<?xml version="1.0" encoding="utf-8"?>
<!-- Generator: Adobe Illustrator 28.0.0, SVG Export Plug-In . SVG Version: 6.00 Build 0)  -->
<svg version="1.1" id="Layer_1" xmlns="http://www.w3.org/2000/svg" xmlns:xlink="http://www.w3.org/1999/xlink" x="0px" y="0px"
	 viewBox="0 0 321.68 321.68" style="enable-background:new 0 0 321.68 321.68;" xml:space="preserve">
<style type="text/css">
	.st0{fill:url(#SVGID_1_);}
</style>
<linearGradient id="SVGID_1_" gradientUnits="userSpaceOnUse" x1="-0.033" y1="160.7546" x2="321.6895" y2="160.7546">
	<stop  offset="0" style="stop-color:#E01480"/>
	<stop  offset="1" style="stop-color:#37BDEE"/>
</linearGradient>
<path class="st0" d="M300.28,0.01C253.67-0.01,207.05,0,160.44,0C113.96,0,67.48-0.01,21,0.01c-13,0-21.03,8.06-21.03,21.1
	c-0.01,93.01-0.01,186.03,0,279.04c0,13.21,8.1,21.34,21.3,21.34c92.96,0.02,185.91,0.02,278.87,0c13.37,0,21.53-8.19,21.53-21.6
	c0.02-92.88,0.02-185.75,0-278.63C321.67,8.06,313.56,0.01,300.28,0.01z M170.58,231.21c-0.43,0.03-0.86,0.01-1.29,0.01h-28.01
	c-0.34,0-0.68,0.01-1.01,0c-1.93-0.06-3.25-0.79-4.18-2.68c-7.67-15.58-16.09-30.75-24.56-45.91c-0.16-0.29-0.28-0.61-0.69-0.9
	c-0.47,0.49-0.65,1.05-0.9,1.55c-8.09,15.68-16.42,31.24-24.92,46.7c-0.46,0.84-1.08,1.33-2.02,1.4c-0.67,0.05-1.34,0.1-2.01,0.1
	c-8.67,0.01-17.33,0.01-25.99-0.01c-0.53,0-1.25,0.34-1.57-0.3c-0.31-0.65,0.04-1.29,0.41-1.89c1.81-2.95,3.6-5.91,5.4-8.87
	c11-18.03,21.98-36.06,33-54.06c0.53-0.86,0.51-1.47,0.01-2.31c-12.42-20.98-24.82-41.98-37.22-62.97
	c-0.17-0.29-0.36-0.57-0.51-0.87c-0.49-0.94-0.23-1.43,0.85-1.56c0.38-0.04,0.77-0.02,1.15-0.02h27.14c0.34,0,0.68,0.01,1.01,0
	c1.49-0.02,2.43,0.71,3.01,2.04c1.48,3.39,3.14,6.7,4.83,10c3.28,6.42,6.83,12.7,10.45,18.94c3.27,5.62,6.36,11.32,9.24,17.14
	c0.26,0.52,0.52,1.03,0.76,1.49c0.4,0.07,0.47-0.19,0.57-0.4c6.77-14.2,14.61-27.84,21.92-41.76c1.09-2.09,2.18-4.18,3.25-6.28
	c0.36-0.72,0.9-1.1,1.7-1.1c0.53,0,1.06,0.01,1.59,0.01c8.23,0.01,16.46,0,24.68,0c0.29,0,0.58-0.01,0.87,0.01
	c1.4,0.05,1.75,0.71,1.01,1.93c-12.29,20.27-24.58,40.55-36.87,60.82c-0.1,0.17-0.18,0.35-0.3,0.49c-0.6,0.72-0.56,1.34-0.04,2.18
	c3.55,5.72,7.03,11.48,10.54,17.23c9.56,15.69,19.12,31.38,28.68,47.07c0.33,0.53,0.7,1.04,0.84,1.66
	C171.59,230.87,171.36,231.17,170.58,231.21z M266.61,226.21c-5.15,2.15-10.46,3.81-15.91,5.02c-8.91,1.96-17.94,2.93-27.06,2.56
	c-10.19-0.41-19.9-2.8-28.6-8.3c-10.19-6.43-16.66-15.67-19.46-27.38c-1.95-8.12-2.41-16.36-1.15-24.62
	c1.54-10.16,5.8-19.09,12.68-26.71c8.37-9.26,18.84-14.7,31.05-16.96c4.79-0.89,9.63-1.22,14.48-1.27c1.92-0.02,3.84,0.19,5.76,0.32
	c0.95,0.06,0.96,0.07,1-0.9c0.02-0.38,0-0.77,0-1.15V90.59c0-0.38,0-0.77,0.01-1.15c0.02-1.53,0.26-1.8,1.74-1.8
	c8.27-0.01,16.55-0.01,24.82,0c1.36,0,1.6,0.26,1.64,1.59c0.01,0.38,0,0.77,0,1.15v61.2c0,18.43,0.01,36.85,0,55.28
	c-0.01,4.62,0.17,9.23,0.56,13.83c0.08,0.91,0.08,1.83,0.15,2.74C268.42,224.98,268.08,225.59,266.61,226.21z M238.21,152.7
	c-0.8-0.15-1.6-0.28-2.41-0.37c-6.83-0.78-13.35,0.21-19.37,3.63c-6.07,3.45-10.69,8.26-12.54,15.15
	c-2.08,7.77-1.8,15.53,1.09,23.09c2.1,5.51,5.66,9.82,11.07,12.38c4.74,2.24,9.79,3.02,15.01,2.82c1.44-0.06,2.88-0.16,4.32-0.17
	c0.93,0,1.83-0.12,2.72-0.31c1.29-0.26,1.29-0.28,1.3-1.59c0.01-0.29,0-0.58,0-0.87v-51.39c0-0.33,0.01-0.67,0-1.01
	C239.38,152.93,239.38,152.92,238.21,152.7z"/>
</svg>
