<?xml version="1.0" encoding="utf-8"?>
<!-- Generator: Adobe Illustrator 28.0.0, SVG Export Plug-In . SVG Version: 6.00 Build 0)  -->
<svg version="1.1" id="Layer_1" xmlns="http://www.w3.org/2000/svg" xmlns:xlink="http://www.w3.org/1999/xlink" x="0px" y="0px"
	 viewBox="0 0 404.58 454.95" style="enable-background:new 0 0 404.58 454.95;" xml:space="preserve">
<style type="text/css">
	.st0{fill:url(#SVGID_1_);}
	.st1{fill:url(#SVGID_00000083066287373386785290000015403475250224140985_);}
</style>
<g>
	<linearGradient id="SVGID_1_" gradientUnits="userSpaceOnUse" x1="187.8276" y1="8.8287" x2="188.4076" y2="8.8287">
		<stop  offset="0" style="stop-color:#E01480"/>
		<stop  offset="1" style="stop-color:#37BDEE"/>
	</linearGradient>
	<path class="st0" d="M188.41,8.86l-0.58,0.4l0.07-0.87C188.08,8.53,188.25,8.69,188.41,8.86z"/>
	
		<linearGradient id="SVGID_00000038387362262270302310000000292604032264442251_" gradientUnits="userSpaceOnUse" x1="0" y1="227.4769" x2="404.5803" y2="227.4769">
		<stop  offset="0" style="stop-color:#E01480"/>
		<stop  offset="1" style="stop-color:#37BDEE"/>
	</linearGradient>
	<path style="fill:url(#SVGID_00000038387362262270302310000000292604032264442251_);" d="M403.08,299.26L264.36,12.59
		c-1.9-3.92-5.39-6.84-9.58-8.01c-4.19-1.17-8.68-0.49-12.34,1.88l-4.14,2.68l-43.46-3.43c-0.91-1.33-2.01-2.44-3.28-3.32
		c-6.62-4.57-17.08-2.47-26.09,5.22L1.19,122.4l0.37,0.53c-0.14,0.19-0.28,0.38-0.41,0.58c-1.4,2.19-1.53,4.89-0.33,7.2
		l165.4,320.34c1.24,2.4,3.72,3.9,6.41,3.9c0.12,0,0.24,0,0.36-0.01l52.27-2.64c2.48-0.13,4.69-1.5,5.91-3.65l0.01-0.01
		l167.58-130.81C404.36,313.46,406.18,305.65,403.08,299.26z M195.13,12.76l33.49,2.65l0.17,0.01l-5.72,3.59L57.76,122.59
		c-0.36-0.08-0.74-0.13-1.12-0.15l-21.2-0.97L195.13,12.76z M169.62,13.25l0.28-0.22c7.23-6.23,14.37-7.17,17.68-4.88
		c0.11,0.07,0.22,0.15,0.32,0.24c0.18,0.14,0.35,0.3,0.51,0.47l-0.58,0.4L23.8,120.94l-7.79-0.35L169.62,13.25z M225.09,445.2
		c-0.06,0.1-0.13,0.1-0.18,0.11l-52.27,2.64c-0.08-0.01-0.17-0.04-0.2-0.11L7.04,127.5c-0.03-0.05-0.06-0.11,0.01-0.21
		c0.05-0.09,0.11-0.1,0.16-0.1h0.03l49.08,2.25c0.08,0,0.15,0.04,0.18,0.11l168.59,315.44C225.11,445.03,225.14,445.09,225.09,445.2
		z M394.45,312.31L230.51,440.29L63.29,127.39L203.5,39.52l23.63-14.81l19.12-12.38c0.7-0.45,1.46-0.79,2.25-1.01
		c1.42-0.4,2.95-0.41,4.4,0c2.25,0.63,4.13,2.21,5.16,4.32L396.78,302.3C398.45,305.75,397.47,309.96,394.45,312.31z"/>
</g>
</svg>
