<?xml version="1.0" encoding="UTF-8"?>
<svg id="Layer_1" data-name="Layer 1" xmlns="http://www.w3.org/2000/svg" xmlns:xlink="http://www.w3.org/1999/xlink" viewBox="0 0 556.18 312.13">
  <defs>
    <style>
      .cls-1 {
        fill: url(#linear-gradient);
        stroke-width: 0px;
      }
    </style>
    <linearGradient id="linear-gradient" x1="-18.62" y1="574.49" x2="-16.68" y2="574.49" gradientTransform="translate(5331.52 92454.16) scale(286.28 -160.66)" gradientUnits="userSpaceOnUse">
      <stop offset="0" stop-color="#e01480"/>
      <stop offset="1" stop-color="#37bdee"/>
    </linearGradient>
  </defs>
  <path id="arrow-01" class="cls-1" d="m90.71,51.85c3.99.41,7.86,1.6,11.38,3.5,4.85,2.19,9.06,5.56,12.26,9.81,3.15,4.2,4.72,7.3,4.72,9.29.03,1.91-.73,3.74-2.1,5.07l-70.76,78.45,71.81,73.9c1.37,1.33,2.13,3.16,2.1,5.07,0,1.98-1.63,5.15-4.9,9.46-3.18,4.26-7.4,7.64-12.26,9.81-3.43,1.8-7.18,2.93-11.03,3.32-2.29.07-4.51-.82-6.12-2.45L4.9,167.43c-3.26-3.26-4.9-6.18-4.9-8.76.12-2.83,1.38-5.48,3.5-7.36L84.76,54.28c1.51-1.66,3.7-2.56,5.94-2.43ZM315.91,3.89c1.23-2.61,3.97-4.15,6.84-3.85,3.69.07,7.33.9,10.69,2.45,8.63,3.96,14.23,8.63,16.81,14.01.85,1.37,1.34,2.93,1.4,4.55.04,1.2-.2,2.4-.7,3.5l-163.56,284.05c-1.61,2.45-4.45,3.79-7.36,3.5-3.64-.03-7.23-.87-10.51-2.45-8.88-4.2-14.6-8.87-17.15-14.01-.66-1.24-1.02-2.62-1.05-4.02,0-1.3.37-2.57,1.05-3.67L315.91,3.89Zm236.77,147.44c2.12,1.87,3.39,4.53,3.5,7.36,0,2.56-1.63,5.5-4.9,8.76l-80.92,89.66c-1.61,1.63-3.83,2.51-6.12,2.45-3.91-.4-7.71-1.53-11.21-3.32-4.9-2.11-9.13-5.5-12.26-9.81-3.15-4.31-4.72-7.48-4.72-9.46-.03-1.91.73-3.74,2.1-5.07l71.81-73.9-70.76-78.45c-1.37-1.33-2.13-3.16-2.1-5.07,0-1.98,1.57-5.08,4.72-9.29,3.18-4.22,7.41-7.54,12.26-9.64,3.5-1.79,7.3-2.92,11.21-3.32,2.23-.08,4.41.67,6.12,2.1l81.27,97Z"/>
</svg>