<?xml version="1.0" encoding="utf-8"?>
<!-- Generator: Adobe Illustrator 28.0.0, SVG Export Plug-In . SVG Version: 6.00 Build 0)  -->
<svg version="1.1" id="Réteg_1" xmlns="http://www.w3.org/2000/svg" xmlns:xlink="http://www.w3.org/1999/xlink" x="0px" y="0px"
	 viewBox="0 0 421.3 513.7" style="enable-background:new 0 0 421.3 513.7;" xml:space="preserve">
<style type="text/css">
	.st0{fill:#FFFFFF;}
</style>
<path class="st0" d="M416,254.1c0-0.1,0-0.1,0-0.1c-6-26.7-17-51.2-33.1-66.4v-1.1l-0.2-4L377,0l-6.1,0.1
	c0.2,28.9,0.4,41.8,0.5,47.1c0,1,0.1,4.1,0.1,8.3c0,4.3-0.2,7.8-0.3,10.2c-5.7-5.1-11.6-10-17.3-15.1
	c-33.2-25.2-74.3-37.1-116.4-37.1C133,13.6,44.2,84.3,12.5,182.5c-0.4,0.8-0.6,1.7-0.8,2.6C4.1,209.3,0,235.1,0,261.9
	c0,35.1,5.1,67.5,15,96.5c0.2,1,0.6,2,1,3C39,427.8,86,476.3,149.8,499c7.7,2.8,15.6,5.2,23.8,7.1c11.5,2.9,23.6,4.9,36,6.1
	c3.2,0.4,6.4,0.6,9.6,0.8c6.2,0.4,12.6,0.6,19,0.6c71.5,0,137.4-32.8,164-100.8c9.2-23.8,19.6-59.6,19-103.4
	c0.1-2.2,0.1-4.4,0.1-6.7C421.3,286.8,419.5,270.1,416,254.1z M406.4,235c0.5,1.1,0.9,2.2,1.3,3.2c0,0.1,0,0.2,0.1,0.2
	c1,3.4,1.7,6.8,2.2,10.4c0.1,0.4,0.2,0.8,0.2,1.3c0.2,2.1,0.3,4.2,0.3,6.4c0,1.7-0.1,3.3-0.3,5v0.3c-3.5,30.8-37.1,55.2-77.9,55.2
	c-24.1,0-43.5-8.5-54.8-23.1V227c13.8-17.1,38.4-28.5,66.5-28.5C374.7,198.5,397.7,212.5,406.4,235z M370.3,178.9
	c-9.9-5-20.9-7.8-32.4-7.8c-25.8,0-46.9,10.5-60.5,28.6V110h28.6c38.3,0,56,6.1,63.2,33.5L370.3,178.9z M360.6,101.1H145V51.3
	c24.8-17,54.2-26.3,87.1-26.3C286.8,25.1,340.5,56.5,360.6,101.1z M135.9,194c8,0,14.7-7,14.7-15.1c0-5.8-3.4-10.6-7.9-13
	c2.5-46.6,19.4-55.9,66.6-55.9h29.6v98.8c-0.7,13.4-1.5,26.7-2.2,40.2c-6.1-33.6-41.5-55.2-92.2-55.2c-15.8,0-29.1,3.9-39.6,9.4
	c-3.4,1.9-7,3.9-10.5,6.6c-0.5,0.2-0.8,0.5-1.3,0.8c-2.4,1.9-4.7,3.7-6.9,5.8c-1,0.8-2,1.7-2.9,2.6c-5.8,5.6-10.4,11.9-14.2,18.1
	c2.6-17.5,7.9-32.3,15.4-43.4v-0.1c1.3-1.8,2.6-3.5,3.9-5.1c9.3-11.2,21.1-17.4,34.9-17.4v0.3c-1.4,2-2.3,4.7-2.3,7.6
	C121,186.9,127.9,194,135.9,194z M61.3,227.2v-0.7c0-0.1,0.1-0.2,0.1-0.3c0.5-8.6,1.3-16.9,2.5-24.8c8.8-64.1,35-114.4,73.7-144.6
	v46.5l-3.8,59.9c-3.2-0.6-6.8-0.8-10.4-0.8c-27.7,0-50.5,23.9-59.3,64.9L61.3,227.2L61.3,227.2z M187.5,330.5
	c0-22.8-24.1-41.4-53.7-41.4c-30.3,0-53.9,11.9-66,31.8c-0.3-1.3-0.5-2.6-0.8-3.9v-52.9c0-4.2,0.1-8.4,0.5-12.4
	c3.4-6.2,8.4-13.7,15.2-21.1c0.4-0.3,1.4-1.4,2.6-2.7c1.2-1.2,2.6-2.4,4.1-3.9c4.3-3.8,10.1-8.3,17.7-12.8l0.1-0.1
	c0.7-0.5,1.5-1,2.2-1.4c8.9-6,20.7-9.6,35.3-9.6c38.7,0,64.6,22,64.6,54.8v73.4c0,41.5-31.7,75.1-70.8,75.1
	c-30.7,0-51.2-19.6-51.2-48.9c0-35.4,18.6-58.9,46.5-58.9c21,0,38.1,15.3,38.1,34.1v17.1C180.5,346.9,187.5,339.5,187.5,330.5z
	 M135.7,454.9c-13.2-13.2-25.2-28.9-35.3-46.6c9.9,3.4,21.2,5,33.8,5c9.2,0,20.4-1.9,31.6-6.3c1-0.7,2-1.3,3.1-1.7
	c2-1.1,4.1-2,6.3-2.7c-2.2,1.2-4.2,2.1-6.4,3.1c-1,0.5-2,0.9-3,1.3C148.6,416.5,136.7,434.3,135.7,454.9z M239.5,501.4
	c-0.9,0-1.8,0-2.7,0c-1.6,0-3.2,0-4.9-0.2c-28.2-1.7-54.8-12.4-78.2-30.3c-1.1-5.1-1.6-10.4-1.6-16c0-31.2,16.9-52,42.1-52
	c21.8,0,36.3,17.2,36.3,43c0,1.2-0.3,1.7-1.5,1.7h-41.9c-12.7,0-23,9.1-23,20.3c0,4.9,3.7,8.8,8.4,8.8v-11.1c0-1.8,0.3-3.3,1-4.9
	c0.7-0.9,1.9-2,3.5-2.9c2.3-1.4,4.6-1.5,6-1.5h97.7c10.8,7.6,23.8,12,37.9,12c11.6,0,22.5-2.2,32.5-6.4
	C321.1,487,280.6,501.4,239.5,501.4z M408.8,333.8c-2.4,20.3-6.6,38.1-10.9,52.8c-16.6,38.3-45.3,59.6-83.3,59.6
	c-14.7,0-27.2-3.2-36.9-9.1c-0.4-3.2-0.4-7-0.4-11.6v-59.2c5.4-2.5,11.7-3.8,18.6-3.8c1.5,0,2.1,0.4,2.1,1.9v35.4
	c0,14.7,10.3,26.7,23.1,26.7c6.1,0,11.1-4.8,11.1-10.6h-14c-8.2,0-14.8-7.2-14.8-16.1l0.9-49.7c0-4.1-3.2-7.5-7.2-7.5h-1.2
	c-6.8,0-13.1,1.5-18.6,4.5v-34.8c14.3,19.8,36,32.4,60.5,32.4c36.1,0,63-20.7,73.4-54.1C411.4,303.5,410.7,318.1,408.8,333.8z"/>
<path class="st0" d="M-99.9,626.8C-99.9,626.9-99.9,626.9-99.9,626.8c-0.2,0.5-0.4,0.9-0.6,1.3C-100.3,627.7-100.1,627.3-99.9,626.8
	z"/>
</svg>
