<?xml version="1.0" encoding="utf-8"?>
<!-- Generator: Adobe Illustrator 28.0.0, SVG Export Plug-In . SVG Version: 6.00 Build 0)  -->
<svg version="1.1" id="Layer_1" xmlns="http://www.w3.org/2000/svg" xmlns:xlink="http://www.w3.org/1999/xlink" x="0px" y="0px"
	 viewBox="0 0 321.68 321.68" style="enable-background:new 0 0 321.68 321.68;" xml:space="preserve">
<style type="text/css">
	.st0{fill:url(#SVGID_1_);}
	.st1{fill:url(#SVGID_00000067934936505315063960000016344926614429025451_);}
</style>
<linearGradient id="SVGID_1_" gradientUnits="userSpaceOnUse" x1="104.8493" y1="183.011" x2="216.9755" y2="183.011">
	<stop  offset="0" style="stop-color:#E01480"/>
	<stop  offset="1" style="stop-color:#37BDEE"/>
</linearGradient>
<path class="st0" d="M216.9,123.05c-2.72,27.61-5.11,55.26-7.68,82.88c-0.82,8.85-1.96,17.67-2.78,26.52
	c-0.17,1.82-0.87,2.59-2.51,3.05c-13.76,3.81-27.51,7.67-41.25,11.52c-1.48,0.41-2.92,0.21-4.38-0.19
	c-13.25-3.64-26.48-7.32-39.77-10.81c-2.79-0.73-3.89-2.03-4.08-4.94c-0.65-9.54-1.54-19.06-2.48-28.58
	c-0.23-2.31,0.69-2.81,2.69-2.8c5.66,0.06,11.32,0.09,16.98-0.02c2.34-0.04,2.99,1.03,3.09,3.16c0.18,3.63,0.84,7.25,0.84,10.87
	c0.01,3.02,1.15,4.52,4.09,4.77c0.4,0.03,0.8,0.18,1.16,0.34c14.2,6.36,28.2,4.56,42.19-0.85c2-0.77,3.01-1.6,3.17-3.91
	c0.53-7.38,1.23-14.76,2.09-22.12c0.36-3.12-0.38-4.27-3.78-4.23c-14.69,0.18-29.38-0.03-44.07,0.17c-3.58,0.04-4.67-1.1-4.74-4.56
	c-0.08-4.44-0.53-8.89-1.25-13.27c-0.63-3.86,0.7-4.75,4.42-4.7c15.77,0.2,31.54-0.02,47.31,0.17c3.48,0.04,4.76-0.9,4.85-4.43
	c0.1-4.57,0.65-9.14,1.29-13.68c0.45-3.18-0.46-4.2-3.8-4.18c-25.47,0.13-50.94,0.07-76.42,0.07c-5.47,0-5.48,0-5.9-5.44
	c-0.4-5.11-0.53-10.25-1.24-15.3c-0.48-3.38,0.87-3.79,3.69-3.77c17.39,0.09,34.78,0.04,52.16,0.04c17.39,0,34.78,0.06,52.16-0.06
	C216.23,118.75,217.27,119.34,216.9,123.05z"/>
<linearGradient id="SVGID_00000096044933789467516760000011149819362327420592_" gradientUnits="userSpaceOnUse" x1="-0.033" y1="160.7546" x2="321.6895" y2="160.7546">
	<stop  offset="0" style="stop-color:#E01480"/>
	<stop  offset="1" style="stop-color:#37BDEE"/>
</linearGradient>
<path style="fill:url(#SVGID_00000096044933789467516760000011149819362327420592_);" d="M300.28,0.01
	C253.67-0.01,207.05,0,160.44,0C113.96,0,67.48-0.01,21,0.01c-13,0-21.03,8.06-21.03,21.1c-0.01,93.01-0.01,186.03,0,279.04
	c0,13.21,8.1,21.34,21.3,21.34c92.96,0.02,185.91,0.02,278.87,0c13.37,0,21.53-8.19,21.53-21.6c0.02-92.88,0.02-185.75,0-278.63
	C321.67,8.06,313.56,0.01,300.28,0.01z M179.16,35.24c0.02-1.43,1.49-1.3,2.54-1.3c9.03-0.01,18.06,0.01,27.09-0.03
	c1.82-0.01,2.58,0.6,2.75,2.54c0.64,7.49,0.56,7.65-6.91,7.66h-7.62c4.05,4.75,7.5,8.89,11.06,12.93c2.19,2.49,3.97,4.95,3.51,8.6
	c-0.26,2.05-0.9,2.78-2.96,2.77c-8.89-0.08-17.79-0.11-26.68,0.01c-2.41,0.03-2.98-1.01-2.96-3.14c0.07-8.79-0.48-6.9,6.65-7.08
	c2.92-0.07,5.84-0.01,8.75-0.01c0.12-0.36,0.23-0.72,0.34-1.08c-4.45-4.07-8.76-8.3-13.39-12.16
	C177.94,42.13,179.12,38.6,179.16,35.24z M142.62,36c0.03-1.6,0.92-2.07,2.35-2.06c8.49,0.01,16.98,0.02,25.47-0.02
	c1.88-0.01,2.48,0.78,2.6,2.66c0.49,7.54,0.56,7.53-6.95,7.53h-6.77c4.2,5.23,7.53,9.77,11.3,13.91c2.16,2.38,2.47,4.87,2.42,7.76
	c-0.04,1.9-0.66,2.63-2.59,2.62c-8.35-0.07-16.71-0.08-25.06,0c-2.16,0.03-2.93-0.86-2.79-2.87c0.05-0.67,0.01-1.34,0.01-2.02
	c-0.01-5.31,0-5.16,5.17-5.38c2.98-0.12,7.28,1.6,8.54-0.94c0.88-1.77-3.49-4.12-5.43-6.28c-1.62-1.81-3.25-3.69-5.2-5.08
	C142.04,43.25,142.56,39.61,142.62,36z M108.31,51.16c0-4.58,0.09-9.15-0.04-13.72c-0.07-2.32,0.49-3.43,3.1-3.38
	c7.4,0.14,14.8,0.11,22.19,0.02c2.21-0.03,3.03,0.64,3.1,2.98c0.19,7.05,0.3,7.05-6.61,7.05c-9.67,0-9.49,0-9.72,9.62
	c-0.08,3.71,0.98,5.12,4.71,4.69c2.26-0.26,4.57-0.14,6.85-0.01c1.53,0.08,3.86-0.86,4.39,0.9c0.8,2.65,0.65,5.61,0,8.36
	c-0.24,0.99-1.63,0.69-2.54,0.69c-7.53,0.02-15.06-0.07-22.59,0.06c-2.44,0.04-2.93-1.01-2.88-3.14
	C108.38,60.57,108.31,55.86,108.31,51.16z M250.12,88.69c-4.01,43.86-7.81,87.75-11.69,131.63c-1.29,14.62-2.69,29.24-3.88,43.87
	c-0.2,2.44-1.12,3.55-3.41,4.18c-22.85,6.29-45.68,12.65-68.52,19.01c-1.5,0.41-2.88,0.16-4.35-0.25
	c-22.31-6.21-44.62-12.43-66.98-18.5c-3.02-0.82-3.9-2.28-4.16-5.29c-2.99-34.62-6.16-69.23-9.24-103.85
	c-2.14-24.02-4.14-48.04-6.39-72.05c-0.34-3.64,1.79-2.86,3.66-2.86c28.58-0.03,57.16-0.02,85.74-0.02
	c28.44,0,56.88,0.06,85.32-0.06C249.54,84.48,250.45,85.08,250.12,88.69z"/>
</svg>
