<?xml version="1.0" encoding="utf-8"?>
<!-- Generator: Adobe Illustrator 28.0.0, SVG Export Plug-In . SVG Version: 6.00 Build 0)  -->
<svg version="1.1" id="Layer_1" xmlns="http://www.w3.org/2000/svg" xmlns:xlink="http://www.w3.org/1999/xlink" x="0px" y="0px"
	 viewBox="0 0 321.68 321.68" style="enable-background:new 0 0 321.68 321.68;" xml:space="preserve">
<style type="text/css">
	.st0{fill:url(#SVGID_1_);}
</style>
<linearGradient id="SVGID_1_" gradientUnits="userSpaceOnUse" x1="-0.033" y1="160.7546" x2="321.6895" y2="160.7546">
	<stop  offset="0" style="stop-color:#E01480"/>
	<stop  offset="1" style="stop-color:#37BDEE"/>
</linearGradient>
<path class="st0" d="M123.69,161.43c6.3,12.7,12.58,25.42,19.11,38.61c-5.26,0-10.09-0.14-14.92,0.05
	c-2.58,0.11-3.56-1.34-4.13-3.32c-2.31-7.95-5.83-15.38-9.43-22.79c-0.3-0.63,0.41-1.87-1.1-1.76c-0.94,0.06-1.55,0.41-1.89,1.4
	c-2.32,6.84-6.25,13.05-7.81,20.2c-0.47,2.13-1.37,3.84-4.25,3.69c-4.4-0.23-8.82-0.06-14.14-0.06
	c5.48-10.83,10.07-20.93,15.62-30.47c2.99-5.13,2.75-9.15,0.21-14.17c-4.89-9.65-9.19-19.61-13.96-29.92
	c4.97-0.35,9.47-0.57,13.95-1.02c2.49-0.24,2.75,1.58,3.35,3.11c2.58,6.67,5.14,13.34,7.63,20.04c0.4,1.09,0.52,2.43,1.9,2.52
	c1.53,0.1,1.23-1.51,1.59-2.36c3.06-7.16,6.08-14.34,8.97-21.58c0.88-2.21,1.97-3.49,4.62-3.47c4.13,0.02,8.26-0.38,13.16-0.64
	c-1.97,5.02-3.9,9.74-6.27,13.94c-4.55,8.08-8.2,16.59-12.56,24.74C122.73,159.31,123.16,160.36,123.69,161.43z M261.01,232.32
	c0.02,3.36-0.85,4.27-4.22,4.25c-24.22-0.13-48.44-0.11-72.66,0.02c-3.07,0.02-3.8-0.95-3.79-3.88c0.06-10.8-0.05-10.8,10.54-10.8
	c9.1,0.01,9.1,0.01,9.11-9.05c0-7.91,0-7.91-7.72-7.91c-3.01,0-6.03-0.15-9.03,0.05c-2.32,0.15-2.85-0.62-2.86-2.9
	c-0.04-6.92-0.16-6.81,6.6-6.97c4.25-0.1,9.92,1.89,12.32-0.84c2.1-2.37,0.41-7.93,0.74-12.05c0.27-3.35-0.7-4.6-4.22-4.32
	c-4.13,0.32-8.31-0.03-12.46,0.1c-2.18,0.07-3.23-0.55-2.97-2.88c0.14-1.27,0.14-2.59,0-3.86c-0.24-2.22,0.51-3.06,2.84-2.98
	c4.44,0.17,8.89-0.07,13.33,0.1c2.52,0.11,3.66-0.5,3.48-3.29c-0.28-4.41,1.44-10.17-0.75-12.91c-2.33-2.92-8.33-0.66-12.71-0.96
	c-1-0.07-2.02-0.1-3.01,0.04c-2.43,0.33-3.45-0.6-3.16-3.09c0.14-1.27,0.16-2.59-0.01-3.86c-0.32-2.45,0.92-2.87,3-2.82
	c4.29,0.11,8.6-0.1,12.89,0.11c2.68,0.13,3.97-0.42,3.75-3.46c-0.33-4.41,1.38-10.14-0.81-12.9c-2.33-2.92-8.31-0.64-12.68-0.96
	c-1-0.07-2.02-0.13-3.01,0c-2.42,0.32-3.46-0.56-3.14-3.06c0.16-1.27,0.14-2.59,0.01-3.87c-0.21-2.09,0.64-2.71,2.69-2.65
	c4.59,0.14,9.18-0.06,13.76,0.07c2.4,0.08,3.32-0.65,3.18-3.17c-0.21-3.71-0.18-7.45-0.02-11.17c0.1-2.27-0.64-3-2.9-2.93
	c-4.73,0.14-9.46,0.02-14.19,0.03c-1.95,0-3.91,0.11-2.54-2.87c0.22-0.47,0-1.13,0.05-1.7c0.29-3.24-1.49-7.54,0.77-9.42
	c1.89-1.58,6.03-0.51,9.17-0.51c22.21-0.02,44.43,0.06,66.64-0.09c3.24-0.02,3.99,0.81,3.97,4.03c-0.15,24.36-0.08,48.73-0.08,73.09
	c0.01,0,0.02,0,0.02,0C260.93,184.16,260.86,208.24,261.01,232.32z M209.51,111.75c-0.15,2.56,0.91,3.14,3.25,3.06
	c4.71-0.16,9.43-0.05,14.15-0.05c4.72,0,9.44-0.09,14.15,0.04c2.24,0.06,3.02-0.69,2.92-2.95c-0.16-3.7-0.25-7.44,0-11.14
	c0.2-2.83-1-3.28-3.45-3.22c-5.85,0.15-11.72-0.06-17.57,0.1c-4.37,0.11-10.48-1.98-12.63,0.88
	C208.11,101.43,209.76,107.21,209.51,111.75z M212.94,141.64c4.43-0.17,8.87-0.05,13.3-0.05c1.43,0,2.87,0.07,4.29-0.02
	c4.37-0.27,10.5,1.96,12.64-0.92c2.22-2.97,0.66-8.76,0.75-13.32c0-0.14-0.02-0.28,0-0.43c0.28-2.09-0.71-2.68-2.71-2.67
	c-9.59,0.08-19.17,0.1-28.76,0c-2.24-0.02-3.03,0.68-2.94,2.94c0.15,3.71,0.21,7.45-0.02,11.15
	C209.31,141.09,210.41,141.73,212.94,141.64z M243.98,207.67c0.11-2.42-0.96-2.85-3.06-2.79c-4.73,0.12-9.45,0.04-14.18,0.03
	s-9.46,0.09-14.18-0.05c-2.15-0.06-3.15,0.43-3.05,2.82c0.16,3.86,0.11,7.74-0.01,11.6c-0.06,1.97,0.45,2.79,2.63,2.76
	c9.74-0.13,19.48-0.15,29.22-0.05c2.17,0.02,2.66-0.75,2.6-2.72C243.84,215.4,243.8,211.53,243.98,207.67z M243.99,192.45
	c-0.19-3.85-0.18-7.73-0.02-11.58c0.1-2.27-0.67-2.96-2.91-2.94c-9.59,0.1-19.17,0.08-28.76,0.01c-1.95-0.02-2.87,0.43-2.78,2.61
	c0.15,4,0.14,8.01,0,12.02c-0.07,2.08,0.63,2.72,2.69,2.66c4.86-0.13,9.73-0.04,14.59-0.03c4.72,0,9.45-0.08,14.17,0.04
	C243.06,195.29,244.11,194.87,243.99,192.45z M243.97,153.71c0.08-2.24-0.99-2.54-2.86-2.53c-9.57,0.06-19.14,0.09-28.7-0.01
	c-2.22-0.03-3.04,0.55-2.92,2.87c0.2,3.71,0.23,7.44,0,11.14c-0.17,2.82,1.06,3.34,3.52,3.25c4.42-0.16,8.85-0.04,13.28-0.05
	c1.43,0,2.87,0.14,4.28-0.02c4.41-0.52,10.46,2.26,12.81-1.25C245.51,163.95,243.81,158.27,243.97,153.71z M321.67,21.26
	c0.02,92.88,0.02,185.75,0,278.63c0,13.41-8.16,21.6-21.53,21.6c-92.96,0.02-185.91,0.02-278.87,0c-13.2,0-21.3-8.13-21.3-21.34
	c-0.01-93.01-0.01-186.03,0-279.04C-0.03,8.07,8,0.01,21,0.01C67.48-0.01,113.96,0,160.44,0c46.61,0,93.23-0.01,139.84,0.01
	C313.56,0.01,321.67,8.06,321.67,21.26z M268.07,86.58c0-0.57,0.07-1.14,0.1-1.71c-0.83-6.55-2.23-7.96-8.57-8.71
	c-2.11-0.25-4.21-0.59-6.31-0.88c-0.56-0.01-1.13-0.01-1.69-0.01c-23.51,0.37-47.02,0.57-70.53-0.04
	c-1.72-4.54-0.49-9.23-0.65-13.84c-0.23-6.39-0.91-7.07-7.14-5.66c-0.52,0.12-1.12-0.11-1.68-0.18c-3.16,0.3-6.32,0.59-9.48,0.89
	c-0.97,1.07-2.21,0.7-3.39,0.63c-0.32,0.07-0.65,0.14-0.98,0.21c-9.32,2.22-18.81,3.54-28.26,4.98c-5.85,1.04-11.7,2.07-17.55,3.1
	c-7.62,1.36-15.17,3.18-22.91,3.82c-0.52,0.09-1.03,0.18-1.55,0.26c-4.55,1.3-9.2,2.03-13.91,2.41c-0.29,0.04-0.57,0.09-0.85,0.13
	c-0.77,0.65-1.67,0.72-2.62,0.58c-5.35,1.45-10.81,2.25-16.31,2.82c-0.11,4.43-0.31,8.85-0.31,13.27
	c-0.01,51.92,0.01,103.84,0.03,155.76c0,0.71,0.11,1.42,0.18,2.13c0.32,0.08,0.65,0.16,0.97,0.24c0.96-0.18,1.9-0.23,2.66,0.54
	c4.05,0.34,8.04,0.98,11.97,2.03c5.78,1.03,11.56,2.07,17.34,3.1c0.52,0.08,1.04,0.16,1.56,0.24c7.94,0.76,15.73,2.4,23.52,4.02
	c0.77,0.13,1.54,0.25,2.31,0.37c0.94-0.13,1.9-0.36,2.62,0.56c0.56,0.08,1.12,0.16,1.68,0.24c1.02-0.14,2.03-0.17,2.89,0.54
	c0.75,0.12,1.51,0.23,2.27,0.34c1.22-0.15,2.44-0.25,3.48,0.61c0.83,0.1,1.66,0.21,2.49,0.31c7.14,1.52,14.48,1.91,21.51,4.03
	c0.87,0.08,1.75,0.16,2.62,0.25c0.75-0.14,1.47-0.13,2.05,0.48c0.75,0.13,1.5,0.25,2.25,0.38c0.77-0.12,1.54-0.21,2.14,0.45
	c1.33,1.36,3.1,0.91,4.71,1.11h0.85c1.44,0,2.88,0.01,4.31,0.01c2.29-0.06,4.59-0.32,6.85-0.13c2.8,0.23,3.78-0.7,3.66-3.59
	c-0.22-5.14,0.01-10.3-0.11-15.45c-0.05-2.25,0.34-3.31,3-3.3c25.05,0.16,50.09,0.19,75.14,0.25c0.78-0.12,1.56-0.24,2.33-0.36
	c0.55-0.6,1.25-0.62,1.98-0.49c4.49-1.32,4.91-5.12,5.42-8.87C268.13,185.16,268.1,135.87,268.07,86.58z"/>
</svg>
