<?xml version="1.0" encoding="utf-8"?>
<!-- Generator: Adobe Illustrator 28.0.0, SVG Export Plug-In . SVG Version: 6.00 Build 0)  -->
<svg version="1.1" id="Layer_1" xmlns="http://www.w3.org/2000/svg" xmlns:xlink="http://www.w3.org/1999/xlink" x="0px" y="0px"
	 viewBox="0 0 321.68 321.68" style="enable-background:new 0 0 321.68 321.68;" xml:space="preserve">
<style type="text/css">
	.st0{fill:url(#SVGID_1_);}
	.st1{fill:#167A42;}
	.st2{fill:#2F5EAB;}
	.st3{fill:#1B5D38;}
	.st4{fill:#50A2D9;}
	.st5{fill:#3C79BE;}
	.st6{fill:#47BA80;}
	.st7{fill:#D2D2D1;}
	.st8{fill:#24356D;}
	.st9{fill:#21A365;}
	.st10{fill:#21448F;}
	.st11{fill:#FEFEFE;}
</style>
<linearGradient id="SVGID_1_" gradientUnits="userSpaceOnUse" x1="-0.033" y1="160.7546" x2="321.6895" y2="160.7546">
	<stop  offset="0" style="stop-color:#E01480"/>
	<stop  offset="1" style="stop-color:#37BDEE"/>
</linearGradient>
<path class="st0" d="M153.86,201.15c0,10.7,0.75,21.01-0.19,31.17c-1.24,13.49-14.72,23.99-28.11,23.13
	c-14.93-0.96-26.17-12.4-26.29-26.75c-0.12-15.2,11.72-27.36,26.93-27.53C135.46,201.07,144.72,201.15,153.86,201.15z M125.14,66.27
	c-1.57,0.01-3.16,0.27-4.69,0.63c-13.68,3.16-22.51,15.61-21.09,29.7c1.34,13.25,13.12,23.77,26.92,23.91
	c8.59,0.09,17.18,0.02,25.76,0.01c0.75,0,1.49-0.17,2.17-0.24V66.25C144.27,66.25,134.7,66.22,125.14,66.27z M121.91,134.34
	c-12.94,1.09-22.64,13.18-22.64,26.5c0,13.31,9.73,25.37,22.64,26.52c10.57,0.93,21.28,0.41,31.92,0.53c0.07,0,0.15-0.13,0.38-0.35
	v-53.39C143.33,134.15,132.55,133.44,121.91,134.34z M199.36,66.74c-10.3-0.81-20.69-0.38-31.05-0.49c-0.16,0-0.33,0.16-0.66,0.33
	V120c10.98,0,21.86,0.79,32.58-0.2c13.2-1.23,22.57-13.52,22.34-27.32C222.34,79.51,212.24,67.76,199.36,66.74z M195.15,133.65
	c-15.21-0.04-27.67,12.22-27.65,27.21c0.01,14.88,12.3,27.06,27.4,27.17c15.33,0.11,27.64-11.93,27.68-27.07
	C222.62,145.76,210.5,133.69,195.15,133.65z M321.67,21.26c0.02,92.88,0.02,185.75,0,278.63c0,13.41-8.16,21.6-21.53,21.6
	c-92.96,0.02-185.91,0.02-278.87,0c-13.2,0-21.3-8.13-21.3-21.34c-0.01-93.01-0.01-186.03,0-279.04C-0.03,8.07,8,0.01,21,0.01
	C67.48-0.01,113.96,0,160.44,0c46.61,0,93.23-0.01,139.84,0.01C313.56,0.01,321.67,8.06,321.67,21.26z M217.87,127.08
	c0.83-0.66,1.36-1.09,1.91-1.5c13.96-10.58,19.56-28.68,13.98-45.2c-5.51-16.31-20.93-27.34-38.31-27.35
	c-23.1-0.02-46.2-0.21-69.3,0.06c-16.18,0.2-28.44,7.74-35.73,22.15c-7.31,14.42-5.94,28.67,3.42,41.85
	c2.69,3.78,6.41,6.84,9.62,10.21c-22.95,15.89-23.79,50.51,0.36,67.39c-0.8,0.62-1.57,1.2-2.31,1.81
	c-12.1,9.99-17.51,22.89-14.95,38.3c3.71,22.35,23.73,36.46,46.17,33.32c19.55-2.74,34.61-19.85,34.73-39.59
	c0.07-11.45,0.02-22.9,0.02-34.35v-3.48c9.22,7.81,19.34,11.21,30.74,10.39c11.48-0.83,21.01-5.74,28.39-14.56
	c6.17-7.37,9.32-15.99,9.25-25.6C235.77,146.66,229.41,135.51,217.87,127.08z"/>
</svg>
