<?xml version="1.0" encoding="utf-8"?>
<!-- Generator: Adobe Illustrator 28.0.0, SVG Export Plug-In . SVG Version: 6.00 Build 0)  -->
<svg version="1.1" id="Layer_1" xmlns="http://www.w3.org/2000/svg" xmlns:xlink="http://www.w3.org/1999/xlink" x="0px" y="0px"
	 viewBox="0 0 321.68 321.68" style="enable-background:new 0 0 321.68 321.68;" xml:space="preserve">
<style type="text/css">
	.st0{fill:url(#SVGID_1_);}
</style>
<linearGradient id="SVGID_1_" gradientUnits="userSpaceOnUse" x1="-0.033" y1="160.7546" x2="321.6895" y2="160.7546">
	<stop  offset="0" style="stop-color:#E01480"/>
	<stop  offset="1" style="stop-color:#37BDEE"/>
</linearGradient>
<path class="st0" d="M300.28,0.01C253.67-0.01,207.05,0,160.44,0C113.96,0,67.48-0.01,21,0.01c-13,0-21.03,8.06-21.03,21.1
	c-0.01,93.01-0.01,186.03,0,279.04c0,13.21,8.1,21.34,21.3,21.34c92.96,0.02,185.91,0.02,278.87,0c13.37,0,21.53-8.19,21.53-21.6
	c0.02-92.88,0.02-185.75,0-278.63C321.67,8.06,313.56,0.01,300.28,0.01z M205.28,38.67h10.69V60.6h15.53v10.73h-26.22V38.67z
	 M162.38,38.55c3.53,0,7.02-0.1,10.49,0.09c0.73,0.04,1.58,1.05,2.08,1.81c1.97,3.03,3.82,6.14,5.92,9.55
	c2.07-3.36,3.77-6.45,5.82-9.29c0.76-1.04,2.3-1.97,3.57-2.11c2.84-0.31,5.74-0.09,8.89-0.09v32.71h-10.6V56.45
	c-0.24-0.08-0.48-0.16-0.72-0.24c-2.25,3.44-4.5,6.89-7.05,10.78c-2.47-3.75-4.78-7.27-7.09-10.78c-0.21,0.06-0.42,0.12-0.63,0.18
	v14.92h-10.68V38.55z M127.1,38.67h30.04v10.76h-9.47v21.78h-11.04V49.44h-9.53V38.67z M89.93,38.68h10.93v10.51h9.87V38.77h11.19
	v32.54h-11.01V60.74H100.9v10.53H89.93V38.68z M244.88,117.6c-1.68,18.97-3.33,37.95-5.04,56.92c-1.91,21.29-3.86,42.57-5.8,63.86
	c-0.69,7.61-1.45,15.21-2.01,22.83c-0.14,1.89-0.8,2.64-2.59,3.14c-22.28,6.12-44.54,12.35-66.82,18.48
	c-1.19,0.33-2.64,0.32-3.84-0.01c-22.07-6.08-44.11-12.25-66.18-18.31c-2.07-0.57-3.01-1.29-3.22-3.69
	c-2.3-27.26-4.77-54.5-7.21-81.74c-2.71-30.23-5.44-60.45-8.15-90.67c-0.06-0.64-0.01-1.29-0.01-2.13h173.65
	C246.72,96.89,245.8,107.25,244.88,117.6z M187.48,188.43c-0.54,6.42-1.04,12.47-1.55,18.53c-0.8,9.59-0.8,9.59-10.17,12.03
	c-0.96,0.25-1.97,0.39-2.88,0.78c-8.13,3.42-16.21,3.31-24.4,0.05c-3.06-1.22-6.34-1.97-9.58-2.63c-2.07-0.41-2.63-1.43-2.75-3.38
	c-0.32-5.05-0.86-10.1-1.31-15.13h-21.83c0.96,10.79,1.99,21.26,2.76,31.74c0.19,2.52,1.36,3.29,3.51,3.87
	c13.13,3.54,26.23,7.22,39.36,10.76c1.29,0.35,2.84,0.35,4.14,0.01c12.38-3.34,24.74-6.78,37.1-10.2c5.65-1.56,5.55-1.57,6.05-7.37
	c1.23-14.34,2.59-28.67,3.87-43.01c0.53-5.9,0.98-11.81,1.49-18.05h-79.28c-0.68-7.44-1.34-14.58-2.06-22.35h83.39
	c0.65-7.34,1.26-14.33,1.89-21.45H106.2c1.98,21.99,3.93,43.74,5.91,65.8H187.48z"/>
</svg>
