<?xml version="1.0" encoding="utf-8"?>
<!-- Generator: Adobe Illustrator 28.0.0, SVG Export Plug-In . SVG Version: 6.00 Build 0)  -->
<svg version="1.1" id="Layer_1" xmlns="http://www.w3.org/2000/svg" xmlns:xlink="http://www.w3.org/1999/xlink" x="0px" y="0px"
	 viewBox="0 0 321.68 321.68" style="enable-background:new 0 0 321.68 321.68;" xml:space="preserve">
<style type="text/css">
	.st0{fill:url(#SVGID_1_);}
</style>
<linearGradient id="SVGID_1_" gradientUnits="userSpaceOnUse" x1="0" y1="160.8399" x2="321.6766" y2="160.8399">
	<stop  offset="0" style="stop-color:#E01480"/>
	<stop  offset="1" style="stop-color:#37BDEE"/>
</linearGradient>
<path class="st0" d="M0.17,160.86c0-46.69,0.02-93.38-0.02-140.07C0.14,11.76,4.2,5.28,12.34,1.78C15.35,0.48,19,0.25,22.35,0.24
	c60.8-0.08,121.6-0.06,182.4-0.06c31.65,0,63.31,0.36,94.96-0.18c12.61-0.21,22.01,9.78,21.97,21.95
	c-0.31,92.72-0.29,185.43-0.02,278.15c0.04,12.3-9.82,21.6-21.52,21.56c-92.72-0.27-185.44-0.28-278.15,0.01
	C9.65,321.72-0.12,312.31,0,299.74C0.43,253.45,0.17,207.15,0.17,160.86z M95.73,245.78c0.4-1.28,0.81-2.52,1.17-3.78
	c3.25-11.52,6.58-23.02,9.67-34.59c0.68-2.55,1.84-3.3,4.38-3.28c13.32,0.11,26.64,0.13,39.96-0.01c2.75-0.03,3.88,0.87,4.62,3.52
	c3.25,11.52,6.85,22.94,10.1,34.46c0.86,3.05,2.21,4.16,5.48,4.09c10.41-0.24,20.84-0.1,31.25-0.14c1.34-0.01,2.68-0.23,4.3-0.38
	c-9.84-31.76-19.48-62.92-29.15-94.08c-6.71-21.61-13.6-43.17-20.12-64.84c-1.06-3.51-2.48-4.39-5.93-4.34
	c-13.45,0.21-26.9,0.17-40.35,0.02c-2.75-0.03-3.88,0.82-4.66,3.44c-5.6,18.77-11.35,37.51-17.1,56.24
	c-9.3,30.3-18.64,60.59-27.93,90.9c-1.26,4.1-2.36,8.25-3.64,12.78C70.58,245.78,82.92,245.78,95.73,245.78z M262.9,186.99
	c0-18.45-0.08-36.91,0.07-55.36c0.03-3.54-1.13-4.52-4.54-4.45c-9.36,0.2-18.72,0.2-28.07,0c-3.45-0.07-4.51,1.02-4.5,4.51
	c0.11,36.78,0.11,73.56-0.01,110.33c-0.01,3.47,1.25,4.15,4.37,4.09c9.36-0.17,18.72-0.2,28.07,0.02c3.55,0.09,4.74-0.84,4.7-4.58
	C262.79,223.38,262.9,205.18,262.9,186.99z M244.2,112.65c11.4,0.01,19.85-7.59,20.02-18.01c0.18-10.64-8.37-18.91-19.6-18.97
	c-11.42-0.06-19.43,7.5-19.46,18.36C225.13,105.14,232.8,112.64,244.2,112.65z M130.37,110.83c-5.73,21.81-11.41,43.45-17.17,65.39
	c11.86,0,23.28,0,35.53,0C142.54,154.17,136.48,132.59,130.37,110.83z"/>
</svg>
