<?xml version="1.0" encoding="utf-8"?>
<!-- Generator: Adobe Illustrator 28.0.0, SVG Export Plug-In . SVG Version: 6.00 Build 0)  -->
<svg version="1.1" id="Layer_1" xmlns="http://www.w3.org/2000/svg" xmlns:xlink="http://www.w3.org/1999/xlink" x="0px" y="0px"
	 viewBox="0 0 321.68 321.68" style="enable-background:new 0 0 321.68 321.68;" xml:space="preserve">
<style type="text/css">
	.st0{fill:url(#SVGID_1_);}
</style>
<linearGradient id="SVGID_1_" gradientUnits="userSpaceOnUse" x1="-0.033" y1="160.7546" x2="321.6895" y2="160.7546">
	<stop  offset="0" style="stop-color:#E01480"/>
	<stop  offset="1" style="stop-color:#37BDEE"/>
</linearGradient>
<path class="st0" d="M300.28,0.01C253.67-0.01,207.05,0,160.44,0C113.96,0,67.48-0.01,21,0.01c-13,0-21.03,8.06-21.03,21.1
	c-0.01,93.01-0.01,186.03,0,279.04c0,13.21,8.1,21.34,21.3,21.34c92.96,0.02,185.91,0.02,278.87,0c13.37,0,21.53-8.19,21.53-21.6
	c0.02-92.88,0.02-185.75,0-278.63C321.67,8.06,313.56,0.01,300.28,0.01z M117.69,158.43c0,20.5-0.2,41,0.13,61.49
	c0.1,5.95-1.89,7.85-7.59,7.37c-4.86-0.4-9.83-0.53-14.66,0.03c-6.84,0.79-8.06-2.24-7.97-8.36c0.34-20.73,0.13-41.46,0.13-62.19
	s0.3-41.46-0.17-62.18c-0.16-7.26,2.47-8.76,9.85-7.76c4.09,0.55,8.24,0.64,12.32,0c6.77-1.06,8.11,1.22,8.06,6.62
	C117.57,115.11,117.69,136.77,117.69,158.43z M233.49,221.47c-19.22,6.92-38.79,10.09-58.87,4.75
	c-42.33-11.27-44.94-64.16-23.28-88.1c10.37-11.46,23.2-17.55,38.27-19.49c1.85-0.3,3.69-0.61,5.54-0.92
	c2.82-0.04,4.19-0.06,7.01-0.1c1.33-0.04,2.66-0.07,3.99-0.1c0.29-7.28,0.39-13.22,0.43-17.56c0.04-5.73,0.07-8.6,0.01-9.53
	c-0.07-1.08,0.01-4.59-0.09-9.13c-0.11-5.02,1.69-6.52,6.44-6.24c5.69,0.32,11.41,0.34,17.09-0.06c5.38-0.37,6.72,1.77,6.68,7.11
	c-0.22,35.19-0.14,70.38-0.09,105.57c0.01,9.08,0.22,18.17,0.42,27.26C237.11,217.85,237.05,220.19,233.49,221.47z M169.18,181.08
	c0.29,1.23,4.07,16,18.47,21.17c9.99,3.59,18.82,0.29,21.18-0.68c-0.13-19.19-0.26-38.38-0.38-57.57c-3.32-1.02-11.41-3-20.06,0.33
	C174.58,149.64,165.62,166.09,169.18,181.08z"/>
</svg>
