<?xml version="1.0" encoding="utf-8"?>
<!-- Generator: Adobe Illustrator 28.0.0, SVG Export Plug-In . SVG Version: 6.00 Build 0)  -->
<svg version="1.1" id="Layer_1" xmlns="http://www.w3.org/2000/svg" xmlns:xlink="http://www.w3.org/1999/xlink" x="0px" y="0px"
	 viewBox="0 0 80 80" style="enable-background:new 0 0 80 80;" xml:space="preserve">
<style type="text/css">
	.st0{clip-path:url(#SVGID_00000001632343870974332190000005605244528685502904_);}
	.st1{fill:none;stroke:#FFFFFF;stroke-width:1.5;stroke-miterlimit:10;}
	.st2{fill:#FFFFFF;}
</style>
<g>
	<defs>
		<rect id="SVGID_1_" width="80" height="80"/>
	</defs>
	<clipPath id="SVGID_00000058588556977554276380000016063848145073418633_">
		<use xlink:href="#SVGID_1_"  style="overflow:visible;"/>
	</clipPath>
	<g id="Group_53" transform="translate(0 0)" style="clip-path:url(#SVGID_00000058588556977554276380000016063848145073418633_);">
		<path id="Path_232" class="st1" d="M40,78.48L40,78.48C18.75,78.48,1.52,61.25,1.52,40l0,0C1.52,18.75,18.75,1.52,40,1.52
			S78.49,18.75,78.49,40l0,0C78.49,61.26,61.26,78.48,40,78.48L40,78.48z"/>
		<path id="Path_233" class="st2" d="M40,22.7c5.63,0,6.3,0.02,8.53,0.12c1.34,0.02,2.66,0.26,3.92,0.73
			c0.92,0.34,1.75,0.88,2.43,1.58c0.7,0.68,1.24,1.51,1.58,2.42c0.47,1.25,0.71,2.58,0.73,3.92c0.1,2.22,0.12,2.89,0.12,8.53
			s-0.02,6.3-0.12,8.53c-0.02,1.34-0.26,2.66-0.73,3.92c-0.34,0.92-0.87,1.75-1.58,2.43c-0.68,0.7-1.51,1.24-2.43,1.58
			c-1.25,0.47-2.58,0.71-3.92,0.73c-2.23,0.1-2.89,0.12-8.53,0.12s-6.3-0.02-8.53-0.12c-1.34-0.02-2.66-0.26-3.92-0.73
			c-0.92-0.34-1.75-0.88-2.43-1.58c-0.7-0.68-1.24-1.51-1.57-2.43c-0.47-1.25-0.71-2.58-0.73-3.92c-0.1-2.22-0.12-2.89-0.12-8.53
			s0.02-6.3,0.12-8.53c0.02-1.34,0.26-2.66,0.73-3.92c0.34-0.92,0.88-1.75,1.58-2.43c0.68-0.7,1.51-1.23,2.42-1.57
			c1.25-0.47,2.58-0.71,3.92-0.73C33.69,22.73,34.36,22.7,40,22.7 M40,18.9c-5.73,0-6.45,0.02-8.7,0.13
			c-1.75,0.04-3.48,0.37-5.12,0.98c-2.84,1.1-5.08,3.34-6.17,6.17c-0.61,1.64-0.95,3.37-0.98,5.12c-0.1,2.25-0.12,2.97-0.12,8.7
			s0.02,6.45,0.12,8.7c0.03,1.75,0.37,3.48,0.98,5.12c1.1,2.83,3.34,5.07,6.17,6.17c1.64,0.62,3.37,0.95,5.12,0.98
			c2.25,0.1,2.97,0.13,8.7,0.13s6.45-0.02,8.7-0.13c1.75-0.03,3.48-0.37,5.12-0.98c2.83-1.1,5.08-3.34,6.17-6.17
			c0.61-1.64,0.95-3.37,0.98-5.12c0.1-2.25,0.12-2.97,0.12-8.7s-0.03-6.45-0.12-8.7c-0.04-1.75-0.37-3.48-0.98-5.12
			c-1.1-2.84-3.34-5.08-6.17-6.17c-1.64-0.61-3.37-0.95-5.12-0.98C46.45,18.93,45.73,18.91,40,18.9"/>
		<path id="Path_234" class="st2" d="M40,29.17c-5.98,0-10.84,4.85-10.84,10.83S34.02,50.84,40,50.84S50.84,45.99,50.84,40l0,0
			C50.84,34.02,45.99,29.17,40,29.17C40,29.17,40,29.17,40,29.17 M40,47.03c-3.88,0-7.03-3.15-7.03-7.03c0-3.88,3.15-7.03,7.03-7.03
			c3.88,0,7.03,3.15,7.03,7.03c0,0,0,0,0,0C47.03,43.88,43.88,47.03,40,47.03"/>
		<path id="Path_235" class="st2" d="M53.8,28.74c0,1.4-1.13,2.53-2.53,2.53c-1.4,0-2.53-1.13-2.53-2.53c0-1.4,1.13-2.53,2.53-2.53
			l0,0C52.66,26.2,53.8,27.34,53.8,28.74"/>
	</g>
</g>
</svg>
