<?xml version="1.0" encoding="utf-8"?>
<!-- Generator: Adobe Illustrator 28.0.0, SVG Export Plug-In . SVG Version: 6.00 Build 0)  -->
<svg version="1.1" id="Layer_1" xmlns="http://www.w3.org/2000/svg" xmlns:xlink="http://www.w3.org/1999/xlink" x="0px" y="0px"
	 viewBox="0 0 321.68 321.68" style="enable-background:new 0 0 321.68 321.68;" xml:space="preserve">
<style type="text/css">
	.st0{fill:url(#SVGID_1_);}
</style>
<linearGradient id="SVGID_1_" gradientUnits="userSpaceOnUse" x1="-0.033" y1="160.7546" x2="321.6895" y2="160.7546">
	<stop  offset="0" style="stop-color:#E01480"/>
	<stop  offset="1" style="stop-color:#37BDEE"/>
</linearGradient>
<path class="st0" d="M300.28,0.01C253.67-0.01,207.05,0,160.44,0C113.96,0,67.48-0.01,21,0.01c-13,0-21.03,8.06-21.03,21.1
	c-0.01,93.01-0.01,186.03,0,279.04c0,13.21,8.1,21.34,21.3,21.34c92.96,0.02,185.91,0.02,278.87,0c13.37,0,21.53-8.19,21.53-21.6
	c0.02-92.88,0.02-185.75,0-278.63C321.67,8.06,313.56,0.01,300.28,0.01z M159.66,65.2c0.18-2.07,0.18-2.07,2.33-2.07
	c6.02,0,12.05-0.03,18.07,0.03c1.19,0.01,1.78-0.25,1.55-1.53c-0.18-1.01,0.57-2.39-1.58-2.35c-6.23,0.14-12.46,0.02-18.7,0.08
	c-1.22,0.01-1.57-0.36-1.55-1.58c0.06-5.62,0.06-11.23,0-16.84c-0.01-1.17,0.34-1.55,1.49-1.53c2.69,0.06,5.4,0.03,8.1,0.03
	c6.49,0,12.98,0.02,19.48-0.03c1.1-0.01,1.47,0.33,1.39,1.42c-0.07,0.92,0.03,1.86,0.05,2.8c-0.01,1.34-0.01,2.68-0.02,4.03
	c-1.2,0.78-2.57,0.1-3.82,0.42c-1.43,0-2.85-0.01-4.28-0.01c-1.37,0.01-2.74,0.01-4.12,0.01h-8.75c-0.19,0-0.39-0.01-0.58-0.01
	c-0.2-0.05-0.27,0.04-0.23,0.23v3.12c-0.04,0.19,0.03,0.28,0.23,0.23c0.19-0.01,0.38-0.01,0.57-0.01c1.28,0,2.56,0,3.84-0.01
	c1.64,0.01,3.29,0.01,4.93,0.01h8.38c0.83,0.02,1.66,0.11,2.48,0.04c1.04-0.09,1.31,0.3,1.31,1.31c-0.05,5.75-0.05,11.5,0,17.24
	c0.01,1.14-0.26,1.54-1.46,1.5c-2.22-0.07-4.44,0.03-6.67,0.05c-1.43,0-2.86,0-4.3,0.01h-4.11c-1.44,0-2.87-0.01-4.3-0.01h-8.74
	c-1.65-0.2-0.55-1.58-0.99-2.3C159.79,68.05,159.79,66.62,159.66,65.2z M132.22,65.2c0.36-0.73-0.59-2.15,1.22-2.1
	c3.26,0.07,6.53,0.05,9.79,0.07c0.96,0.05,1.94,0.31,2.88-0.18c0.3,0.11,0.44,0.02,0.38-0.31c-0.01-0.61-0.01-1.22-0.01-1.83v-8.78
	c0-1.37,0-2.74-0.01-4.1v-4.64c0.03-0.88,0.1-1.76,0.05-2.64c-0.04-0.9,0.18-1.31,1.2-1.27c1.97,0.08,3.95,0.07,5.91-0.01
	c1.12-0.05,1.55,0.22,1.52,1.44c-0.08,3.74-0.04,7.48-0.03,11.22c0.01,6.38,0.05,12.76,0.07,19.14c-0.94,1.06-2.21,0.22-3.27,0.57
	c-1.37,0.01-2.75,0.01-4.12,0.01h-4.61c-1.37,0-2.75,0-4.12-0.01h-4.3c-0.25-0.02-0.52-0.09-0.76-0.05
	c-1.31,0.2-1.97-0.23-1.72-1.65c0.03-0.19-0.05-0.4-0.07-0.6C132.34,68.05,132.34,66.62,132.22,65.2z M246.9,89.19
	c-0.21,0.6-0.21,1.23-0.16,1.86c-0.64,3.22-0.58,6.5-0.97,9.75c-0.35,2.98-0.53,5.98-0.79,8.98c-0.04,1.04-0.28,2.07-0.09,3.12
	c-0.47,1.32-0.36,2.69-0.37,4.05c-0.39,1.43-0.41,2.89-0.4,4.36c-0.24,1.54-0.47,3.09-0.45,4.67c-0.03,0.53-0.05,1.06-0.08,1.6
	c-0.48,2.46-0.53,4.96-0.69,7.45c-0.28,1.14-0.29,2.31-0.23,3.47c-0.66,3.6-0.73,7.25-1.01,10.88c-0.25,0.63-0.23,1.27-0.18,1.92
	c-0.17,1.76-0.52,3.5-0.4,5.27c-0.44,1.02-0.4,2.08-0.3,3.14c-0.34,1.65-0.37,3.33-0.44,5c-0.33,0.99-0.2,2.03-0.24,3.04
	c-0.39,2.3-0.5,4.61-0.63,6.93c-0.24,0.82-0.26,1.67-0.2,2.52c-0.29,1.54-0.43,3.09-0.37,4.66c-0.36,1.43-0.42,2.9-0.39,4.37
	c-0.24,1.45-0.55,2.89-0.4,4.38c-0.18,0.72-0.2,1.45-0.11,2.19c-0.43,0.78-0.28,1.63-0.31,2.46c-0.03,0.6-0.06,1.2-0.09,1.79
	c-0.22,0.31-0.25,0.65-0.16,1c-0.01,0.33-0.03,0.66-0.04,0.99c-0.4,1.43-0.37,2.89-0.33,4.35c-0.51,1.42-0.36,2.9-0.4,4.36
	c-0.38,2.17-0.56,4.36-0.62,6.56c-0.25,0.61-0.23,1.25-0.18,1.9c-0.18,1.75-0.51,3.49-0.4,5.27c-0.01,0.19-0.02,0.39-0.03,0.58
	c-0.3,0.5-0.28,1.04-0.19,1.58c-0.02,0.23-0.03,0.45-0.04,0.68c-0.42,1.83-0.36,3.71-0.53,5.56c-0.06,0.93-0.13,1.85-0.19,2.77
	c-0.31,1.78-0.51,3.57-0.43,5.38c-0.04,0.42-0.08,0.84-0.12,1.26c-0.24,0.18-0.26,0.39-0.07,0.62c-0.21,2.29-0.7,4.55-0.59,6.86
	c-0.33,1.52-0.41,3.07-0.41,4.62c-0.03,0.34-0.06,0.68-0.09,1.02c-0.09,0.08-0.1,0.17-0.03,0.27c-0.02,0.22-0.03,0.44-0.05,0.66
	c-0.27,0.39-0.25,0.8-0.11,1.23c-0.19,0.29-0.2,0.6-0.09,0.92c-0.14,1.56-0.28,3.12-0.42,4.68c-0.03,0.41-0.05,0.81-0.07,1.22
	c-0.02,0.02-0.07,0.05-0.07,0.07c0,0.07,0.03,0.13,0.04,0.19c-0.19,0.4-0.5,0.65-0.91,0.81c-0.14,0.05-0.29,0.11-0.44,0.16
	c-0.16,0.04-0.32,0.08-0.48,0.12c-1.07,0.17-2.13,0.39-3.09,0.93c-0.21,0.05-0.42,0.09-0.63,0.14c-1.97,0.32-3.87,0.9-5.73,1.6
	c-0.64-0.02-1.22,0.19-1.79,0.47c-0.15,0.06-0.3,0.11-0.46,0.17c-0.26,0.06-0.53,0.12-0.79,0.18c-0.14,0.05-0.27,0.1-0.4,0.14
	c-0.17,0.05-0.34,0.09-0.5,0.13c-1.61,0.24-3.14,0.74-4.66,1.27c-0.22,0.07-0.43,0.15-0.65,0.22c-1.18,0.18-2.34,0.43-3.42,0.96
	c-0.47-0.07-0.88,0.09-1.27,0.34c-0.1-0.04-0.19-0.02-0.27,0.06c-0.37-0.06-0.69,0.08-0.99,0.28c-0.26-0.07-0.47,0.02-0.65,0.2
	c-0.2,0.04-0.4,0.09-0.59,0.13c-0.13,0.06-0.25,0.12-0.37,0.18l-0.13-0.01l-0.1,0.08c-1.72,0.21-3.34,0.75-4.96,1.32
	c-1.24,0.14-2.39,0.57-3.54,1.02c0,0,0.01,0.02,0.01,0.03c-1.27,0.58-2.77,0.34-4,1.08c-1.74,0.33-3.43,0.82-5.09,1.41
	c-1.25,0.2-2.47,0.53-3.63,1.04c-0.77,0.06-1.52,0.21-2.17,0.64c-0.47-0.05-0.89,0.08-1.27,0.34c-0.11-0.04-0.2-0.02-0.28,0.06
	c-0.37-0.07-0.68,0.04-0.95,0.29c-1.75,0.3-3.46,0.74-5.1,1.42c-0.95,0.08-1.86,0.33-2.72,0.74c-0.26-0.06-0.47-0.01-0.64,0.21
	c-2.96,0.53-5.79,1.57-8.7,2.29c-2.8-0.71-5.49-1.83-8.35-2.31c-1.43-0.58-2.91-0.99-4.43-1.21l-0.08-0.07l-0.09,0.03
	c-0.15-0.06-0.29-0.11-0.44-0.17c-0.86-0.43-1.78-0.66-2.74-0.75c-3.19-1.15-6.46-1.98-9.76-2.72c-0.74-0.47-1.59-0.6-2.43-0.7
	c-0.18-0.2-0.4-0.26-0.65-0.2c-0.19-0.05-0.37-0.1-0.55-0.15c-3.1-1.06-6.28-1.88-9.46-2.67c-1.42-0.49-2.85-0.94-4.34-1.18
	c-1.32-0.5-2.64-1-4.08-1.07c-2.54-0.61-4.91-1.8-7.52-2.19l-0.08-0.11l-0.11,0.05c-0.25-0.07-0.49-0.14-0.73-0.21
	c-1.51-0.59-3.06-0.99-4.66-1.28c-1.16-0.51-2.36-0.87-3.63-1c-0.8-0.54-1.74-0.75-2.64-0.86c-2.98-0.38-4.94-1.55-4.44-4.99
	c0.02-0.13-0.11-0.28-0.16-0.42c0.07-0.72,0.05-1.43-0.13-2.12c-0.14-1.56-0.27-3.12-0.41-4.68c-0.03-0.2-0.06-0.41-0.08-0.61
	c0.17-0.42,0.16-0.83-0.1-1.22c0.09-0.57,0.04-1.12-0.14-1.66c0.04-1.66-0.13-3.3-0.46-4.92c0.13-1.38-0.06-2.73-0.33-4.07
	c-0.02-0.2-0.04-0.39-0.05-0.59c-0.03-0.32-0.07-0.63-0.1-0.95c0.1-0.64,0.2-1.27-0.15-1.86c-0.05-0.44-0.09-0.87-0.13-1.31
	c0.14-1.47-0.09-2.91-0.37-4.34c-0.01-0.23-0.01-0.46-0.01-0.69c0.02-0.03,0.07-0.07,0.07-0.09c-0.03-0.06-0.08-0.12-0.12-0.19
	c-0.56-1.08-0.23-2.25-0.33-3.38c-0.01-2.34-0.12-4.66-0.59-6.95c-0.02-0.19-0.03-0.37-0.04-0.55c0.14-1.99-0.28-3.93-0.44-5.9
	c0.07-0.34,0.04-0.66-0.13-0.96c-0.01-2.41-0.26-4.8-0.68-7.18c0.04-1.26,0.11-2.52-0.28-3.74c-0.02-2.52-0.21-5.02-0.64-7.51
	c-0.04-0.52-0.07-1.04-0.1-1.56c0.02-0.73,0.12-1.47-0.27-2.15c0.08-1.06-0.01-2.1-0.24-3.14c0.21-1.27-0.09-2.51-0.3-3.75
	c0.07-1.47-0.14-2.92-0.39-4.36c0.11-1.47-0.13-2.91-0.35-4.35c0.08-0.75,0.04-1.48-0.18-2.2c-0.08-2.43-0.28-4.83-0.65-7.23
	c-0.05-0.82-0.1-1.65-0.15-2.47c0.05-0.09,0.04-0.18-0.03-0.26c-0.04-0.21-0.08-0.42-0.12-0.63c-0.03-1.57-0.02-3.14-0.39-4.68
	c-0.03-0.23-0.05-0.46-0.07-0.69c0.12-0.55,0.13-1.09-0.16-1.6c-0.02-0.29-0.04-0.58-0.06-0.86c0.11-1.98-0.28-3.92-0.44-5.88
	c0.06-0.44,0.05-0.88-0.15-1.3c-0.05-2.19-0.2-4.38-0.64-6.54v-0.63c-0.01-1.26,0.13-2.52-0.34-3.73c0.02-1.17,0.06-2.33-0.26-3.47
	c-0.15-2.49-0.2-4.99-0.67-7.45c0.03-0.74,0.08-1.48-0.17-2.2c0.05-1.47-0.14-2.93-0.39-4.37l-0.15-2.22
	c0.11-0.35,0.06-0.67-0.17-0.97c-0.01-0.18-0.01-0.35-0.02-0.53c0.03-0.04,0.08-0.08,0.08-0.1c-0.02-0.08-0.06-0.15-0.09-0.23
	c-0.01-0.1-0.03-0.21-0.04-0.32c0.11-1.46-0.13-2.9-0.35-4.35c-0.03-0.83-0.06-1.67-0.09-2.51c-0.53-5.92-1.04-11.85-1.6-17.78
	c-0.08-0.86,0.24-1.07,1.03-1.08c0.97-0.02,1.96,0.19,2.92-0.15h4.04c1.57,0.26,3.13,0.26,4.69,0h4.05
	c1.46,0.26,2.91,0.27,4.37-0.01h4.36c1.46,0.28,2.91,0.28,4.37,0.01c1.45,0,2.91-0.01,4.36-0.01c1.46,0.29,2.92,0.26,4.37,0.01h4.05
	c1.46,0.26,2.91,0.27,4.37-0.01h4.37c1.45,0.28,2.91,0.28,4.36,0h4.37c1.45,0.28,2.91,0.27,4.36,0.01c1.46,0,2.91-0.01,4.37-0.01
	c1.46,0.29,2.91,0.26,4.37,0.01h4.05c1.45,0.26,2.91,0.27,4.37-0.01h4.36c1.46,0.28,2.91,0.28,4.37,0.01
	c1.45-0.01,2.91-0.01,4.36-0.01c1.46,0.29,2.92,0.26,4.37,0.01h4.05c1.46,0.26,2.91,0.27,4.37-0.01h4.36c1.46,0.28,2.92,0.28,4.37,0
	h4.37c1.45,0.28,2.91,0.27,4.36,0.01h4.05c1.56,0.26,3.13,0.26,4.69,0h4.05c1.45,0.26,2.91,0.27,4.36-0.01h4.37
	c1.45,0.28,2.91,0.28,4.37,0.01c1.45,0,2.91-0.01,4.36-0.01c1.46,0.29,2.91,0.26,4.37,0.01h4.05c1.45,0.26,2.91,0.27,4.37-0.01
	c1.42,0.03,2.84,0.06,4.26,0.09c0.03,0.49,0.07,0.97,0.1,1.46C246.75,88.54,246.75,88.85,246.9,89.19z M219.65,122.89
	c-0.95,0.13-1.93,0.09-2.89,0.12c-1.46-0.19-2.92-0.19-4.37,0c-1.36-0.17-2.71-0.18-4.06,0.01c-1.56-0.21-3.11-0.21-4.67,0.01
	c-1.35-0.2-2.71-0.19-4.06-0.02c-1.45-0.19-2.91-0.19-4.36,0c-1.46-0.17-2.91-0.17-4.37,0c-1.45-0.19-2.91-0.19-4.37,0
	c-1.45-0.17-2.91-0.17-4.36,0c-1.46-0.19-2.91-0.2-4.37,0.01c-1.35-0.18-2.7-0.18-4.05,0c-1.46-0.21-2.91-0.2-4.37-0.01
	c-1.46-0.43-2.1,0.1-1.87,1.63c0.05,0.34,0.06,0.7,0.09,1.05c-0.17,1.46-0.17,2.91,0,4.37c-0.14,1.46-0.14,2.91-0.01,4.36
	c-0.15,1.57-0.17,3.13,0.03,4.69c-0.18,1.24-0.16,2.49-0.02,3.74c-0.18,1.46-0.16,2.92-0.01,4.38c-0.15,7.27-0.15,14.55,0,21.83
	c-0.14,1.56-0.18,3.12,0.03,4.68c-0.05,5.56-0.09,11.12-0.13,16.68c-0.01,1.77,0.01,3.53-0.01,5.3c0,0.6,0.08,1.07,0.85,0.89
	c3.13-0.69,6.37-0.79,9.47-1.65c1.49,0.03,2.93-0.32,4.38-0.66c1.47-0.1,2.93-0.24,4.35-0.7c1.5,0.06,2.92-0.38,4.37-0.65
	c1.94-0.26,3.89-0.46,5.81-0.82c1.27-0.24,1.54,0.22,1.4,1.36c-0.23,1.94-0.37,3.9-0.55,5.84c-0.2,0.61-0.2,1.22-0.14,1.85
	c-0.03,0.02-0.08,0.04-0.08,0.06c0,0.06,0.02,0.13,0.03,0.19c-0.27,0.53-0.24,1.1-0.19,1.67c-0.37,1.53-0.48,3.1-0.51,4.66
	c-0.04,0.43-0.08,0.85-0.12,1.27c-0.25,0.39-0.28,0.79-0.11,1.21c-0.28,0.51-0.27,1.05-0.22,1.59c-0.2,1.56-0.41,3.11-0.61,4.67
	c-0.12,0.06-0.23,0.11-0.34,0.17c-1.62,0.32-3.21,0.73-4.75,1.33c-0.31,0.08-0.62,0.17-0.93,0.25c-0.09,0.03-0.19,0.06-0.28,0.09
	c-0.97,0.11-1.92,0.3-2.78,0.79c-2.95,0.62-5.85,1.41-8.71,2.39c-0.69,0.06-1.36,0.23-1.98,0.54l-0.1-0.05l-0.06,0.1
	c-0.6-0.02-1.14,0.17-1.66,0.45c-0.11,0.05-0.23,0.09-0.34,0.14c-0.1-0.03-0.18-0.01-0.25,0.06c-0.45,0.09-0.91,0.14-1.35,0.26
	c-4.94,1.33-4.94,1.33-4.49,6.58c-0.15,1.46-0.16,2.92,0.01,4.37c-0.14,1.35-0.15,2.71,0,4.06c-0.17,1.45-0.16,2.91-0.01,4.37
	c-0.11,1.79-0.02,1.83,2.12,0.95c0.7,0.05,1.32-0.21,1.93-0.52c0.65-0.02,1.25-0.23,1.82-0.52c1.6-0.25,3.15-0.69,4.65-1.28
	c1.4-0.22,2.76-0.57,4.05-1.16c2.98-0.57,5.89-1.42,8.75-2.44c1.64-0.15,3.18-0.69,4.72-1.23c1.35-0.29,2.72-0.54,4-1.12
	c0.98-0.12,1.92-0.35,2.79-0.83c0.38,0.03,0.74-0.02,1.06-0.25l0.07,0.06l0.05-0.1c0.13-0.04,0.26-0.07,0.4-0.11
	c1.5-0.19,2.94-0.62,4.33-1.19c0.25-0.06,0.5-0.12,0.75-0.19l0.12,0.05l0.09-0.1c2.65-0.45,2.83-0.63,2.73-2.82
	c0.29-1.44,0.51-2.88,0.38-4.36c0.17-0.84,0.39-1.68,0.23-2.55c0.69-3.48,0.8-7.02,1-10.55c0.24-0.94,0.34-1.89,0.29-2.85
	c0.41-1.95,0.45-3.92,0.56-5.89c0.02-0.33,0.05-0.65,0.07-0.97c0.26-0.56,0.28-1.14,0.14-1.73c0.2-0.45,0.24-0.91,0.13-1.38
	c0.38-1.64,0.48-3.3,0.47-4.97c0.33-0.72,0.22-1.47,0.2-2.22c0.41-2.67,0.72-5.35,0.73-8.06c0.28-0.62,0.27-1.28,0.18-1.93
	c0.41-1.53,0.46-3.08,0.38-4.64c0.25-0.73,0.34-1.47,0.23-2.23c0.32-0.6,0.35-1.22,0.15-1.86c0.15-0.33,0.21-0.68,0.03-1.02
	c0.21-0.75,1.17-1.92-0.41-1.93c-1.44-0.02-2.97,0.15-4.37,0.73c-0.73,0.13-1.46,0.26-2.19,0.39c-0.2-0.25-0.4-0.18-0.59,0.01
	c-0.44-0.06-0.87-0.05-1.27,0.16c-1.67,0.13-3.34,0.32-4.96,0.78c-0.44-0.07-0.88-0.07-1.27,0.19c-0.34-0.16-0.65-0.11-0.93,0.13
	c-0.43-0.03-0.85-0.06-1.25,0.16c-0.34-0.1-0.64-0.06-0.9,0.19c-1.11,0-2.2,0.11-3.26,0.49l-0.11-0.06l-0.1,0.1
	c-0.11,0.02-0.22,0.03-0.32,0.05c-1.58,0.02-3.12,0.26-4.64,0.66c-0.25,0.04-0.49,0.09-0.74,0.13c-0.21-0.13-0.39-0.06-0.57,0.08
	c-0.54-0.02-1.09-0.02-1.6,0.23c-0.78-0.02-1.34-0.12-1.33-1.2c0.04-10.24,0.03-20.49,0.01-30.73c0-0.67,0.18-1.1,0.83-1.29
	c1.11-0.01,2.21-0.01,3.32-0.01c1.7,0.23,3.39,0.23,5.08,0h3.66c1.69,0.23,3.39,0.23,5.08,0h3.33c1.69,0.23,3.39,0.22,5.08,0h3.65
	c3.17,0.45,3.18,0.45,3.55-2.5c0.04-0.3,0.02-0.61,0.03-0.91c0.25-0.64,0.22-1.3,0.18-1.96c0.19-0.19,0.19-0.39,0.02-0.59
	c0.03-0.42,0.06-0.83,0.09-1.25c0.41-2.06,0.63-4.14,0.61-6.24c0.34-0.82,0.23-1.67,0.2-2.52c0.08-0.29,0.17-0.58,0.23-0.87
	C221.63,123.42,221.26,122.67,219.65,122.89z M154.04,238.34c0.15-1.46,0.13-2.91,0.01-4.37v-4.37c0.13-1.45,0.13-2.91,0-4.37v-4.36
	c0.13-1.46,0.13-2.92,0-4.37v-4.37c0.13-1.46,0.14-2.91-0.01-4.37v-4.06c0.15-1.45,0.14-2.91,0.01-4.37v-4.36
	c0.13-1.46,0.13-2.92,0-4.37v-4.37c0.13-1.46,0.13-2.91,0-4.37v-4.37c0.12-1.45,0.14-2.91-0.01-4.37v-4.05
	c0.14-1.46,0.14-2.92,0.01-4.37v-4.37c0.13-1.46,0.13-2.91,0-4.37v-4.37c0.13-1.46,0.13-2.91,0-4.37c-0.01-1.35-0.01-2.7-0.01-4.06
	c0.15-1.45,0.13-2.91,0.01-4.37v-4.36c0.13-1.46,0.13-2.92,0-4.37c0.03-2.02,0.03-4.04,0.1-6.05c0.03-0.9-0.33-1.18-1.18-1.15
	c-1.91,0.07-3.82,0.08-5.73,0.11c-1.06-0.14-2.12-0.14-3.18,0c-2.31-0.03-4.63-0.09-6.95-0.08c-0.57,0-1.24-0.29-1.72,0.3
	c-0.16,0.83-0.3,1.66-0.05,2.5c-0.24,1.46-0.24,2.91,0,4.37c-0.25,1.35-0.23,2.7-0.02,4.05c-0.21,1.57-0.22,3.13,0.02,4.69
	c-0.24,1.35-0.24,2.7-0.01,4.05c-0.23,1.56-0.22,3.12,0,4.69c-0.22,1.35-0.24,2.7,0.01,4.05c-0.24,1.46-0.24,2.91,0,4.37
	c-0.25,1.45-0.24,2.91,0,4.37c-0.24,1.46-0.23,2.92,0,4.39c-0.25,1.34-0.24,2.68-0.01,4.03c-0.22,1.56-0.23,3.13,0,4.69
	c-0.23,1.34-0.23,2.69,0.01,4.03c-0.23,1.47-0.24,2.94,0,4.41c-0.25,1.45-0.25,2.9,0,4.35c-0.24,1.46-0.24,2.92,0,4.39
	c-0.25,1.44-0.24,2.88,0,4.32c-0.24,1.47-0.24,2.94,0,4.41c-0.25,1.35-0.24,2.69-0.01,4.03c-0.23,1.57-0.22,3.13,0,4.7
	c-0.23,1.34-0.23,2.68,0.01,4.03c-0.24,1.47-0.24,2.94,0,4.41c-0.1,0.84-0.19,1.69-0.28,2.53c-1.66-0.41-3.32-0.83-4.98-1.24
	c-1.23-0.8-2.78-0.45-4.04-1.1c-2.86-1.02-5.79-1.76-8.75-2.36c-0.49-0.1-1.04,0.01-1.45-0.4c-0.14-0.06-0.27-0.11-0.41-0.17
	c-0.27-0.05-0.54-0.1-0.81-0.15c-1.85-0.82-3.82-1.21-5.78-1.65c-0.21-0.04-0.42-0.07-0.63-0.11c-1.51-0.74-3.2-0.88-4.74-1.47
	c-1.08-0.41-1.43-0.19-1.42,1.03c0.05,5.61,0.02,11.23,0.03,16.84c0,0.46-0.13,0.95,0.21,1.35c0.63,0.87,1.62,0.73,2.51,0.92
	c1.17,0.5,2.37,0.94,3.67,1c1.44,0.53,2.9,1,4.44,1.17l0.08,0.08l0.11-0.02c0.13,0.06,0.27,0.11,0.41,0.17
	c0.19,0.04,0.39,0.08,0.59,0.12c0.11,0.05,0.22,0.1,0.33,0.14c0.68,0.22,1.34,0.54,2.09,0.51c0.71,0.38,1.47,0.61,2.28,0.64
	c0.75,0.39,1.55,0.57,2.38,0.65c1.66,0.63,3.37,1.09,5.12,1.41c0.1,0.02,0.21,0.05,0.31,0.07c0.09,0.04,0.19,0.08,0.28,0.12
	c1.15,0.34,2.22,0.95,3.46,0.9c2.86,1,5.79,1.76,8.75,2.38c0.43,0.31,0.92,0.41,1.44,0.39c0.13,0.04,0.27,0.09,0.4,0.14
	c0.27,0.06,0.53,0.12,0.8,0.18c0.15,0.05,0.31,0.11,0.46,0.17c0.18,0.04,0.37,0.08,0.55,0.12c1.54,0.59,3.11,1.06,4.75,1.27
	c1.7,0.51,3.42,0.96,5.1,1.54c1.39,0.49,1.78,0.06,1.44-1.29V238.34z"/>
</svg>
