<?xml version="1.0" encoding="utf-8"?>
<!-- Generator: Adobe Illustrator 28.0.0, SVG Export Plug-In . SVG Version: 6.00 Build 0)  -->
<svg version="1.1" id="Layer_1" xmlns="http://www.w3.org/2000/svg" xmlns:xlink="http://www.w3.org/1999/xlink" x="0px" y="0px"
	 viewBox="0 0 533.3 474.9" style="enable-background:new 0 0 533.3 474.9;" xml:space="preserve">
<style type="text/css">
	.st0{fill:url(#SVGID_1_);}
	.st1{fill:url(#SVGID_00000047740095290848243220000003252922889093053077_);}
	.st2{fill:url(#SVGID_00000171685236921885614840000017580489053720969405_);}
	.st3{fill:url(#SVGID_00000141429711119861852390000007701049465578730655_);}
	.st4{fill:url(#SVGID_00000030462025102524588830000006121639703134516414_);}
	.st5{fill:url(#SVGID_00000022519272054127519140000008104616535405332906_);}
	.st6{fill:#FFFFFF;}
	.st7{fill:#DBBFB4;}
	.st8{fill:#C6ACA5;}
	.st9{fill:#146FAD;}
	.st10{fill:#261F1A;}
	.st11{fill:#B7A09A;}
	.st12{fill:#E2C7BF;}
	.st13{fill:#D3D0CB;}
	.st14{fill:#43593D;}
	.st15{fill:#2D221A;}
	.st16{fill:#937269;}
	.st17{fill:#0F0500;}
	.st18{fill:#44362C;}
	.st19{fill:#D58D91;}
	.st20{fill:#C18086;}
	.st21{fill:#894B45;}
	.st22{fill:#DBABAF;}
	.st23{fill:url(#SVGID_00000078044093306513769450000014838161302955923865_);}
	.st24{fill:url(#SVGID_00000030464221128623196470000010836530263040448899_);}
	.st25{fill:url(#SVGID_00000149360575770954432160000007452794954070275760_);}
	.st26{fill:url(#SVGID_00000085243865439484744290000001688317382385161647_);}
	.st27{fill:url(#SVGID_00000181772708844238392370000011001153155084062616_);}
	.st28{fill:url(#SVGID_00000021830813821743893530000016151574125604253839_);}
	.st29{fill:url(#SVGID_00000121970488706632470570000002614887896089906075_);}
</style>
<linearGradient id="SVGID_1_" gradientUnits="userSpaceOnUse" x1="813.4849" y1="-3248.9714" x2="1199.4229" y2="-3248.9714" gradientTransform="matrix(0.3257 0.3257 -0.2464 0.2464 -918.0986 683.6945)">
	<stop  offset="5.327789e-09" style="stop-color:#EC2C91"/>
	<stop  offset="0.2805" style="stop-color:#C154AB"/>
	<stop  offset="0.911" style="stop-color:#56B8EB"/>
	<stop  offset="1" style="stop-color:#46C7F4"/>
</linearGradient>
<path class="st0" d="M273.1,260.5L160.7,148.1c-3.7-3.7-9.6-3.7-13.3,0l0,0c-3.7,3.7-3.7,9.6,0,13.3l112.4,112.4
	c3.7,3.7,9.6,3.7,13.3,0l0,0C276.8,270.1,276.8,264.2,273.1,260.5z"/>
<linearGradient id="SVGID_00000120542101508102869520000003415151960183347073_" gradientUnits="userSpaceOnUse" x1="1013.3621" y1="-3493.2898" x2="1399.3" y2="-3493.2898" gradientTransform="matrix(0.3257 0.3257 -0.2464 0.2464 -918.0986 683.6945)">
	<stop  offset="5.327789e-09" style="stop-color:#EC2C91"/>
	<stop  offset="0.2805" style="stop-color:#C154AB"/>
	<stop  offset="0.911" style="stop-color:#56B8EB"/>
	<stop  offset="1" style="stop-color:#46C7F4"/>
</linearGradient>
<path style="fill:url(#SVGID_00000120542101508102869520000003415151960183347073_);" d="M398.4,265.4L286,153
	c-3.7-3.7-9.6-3.7-13.3,0l0,0c-3.7,3.7-3.7,9.6,0,13.3l112.4,112.4c3.7,3.7,9.6,3.7,13.3,0l0,0C402.1,275,402.1,269.1,398.4,265.4z"
	/>
<linearGradient id="SVGID_00000137829532021417258210000012014767304047494837_" gradientUnits="userSpaceOnUse" x1="-226.7761" y1="1262.8905" x2="-188.8931" y2="1225.0073" gradientTransform="matrix(1.1925 1.1925 0.7071 -0.7071 -494.7057 1314.2806)">
	<stop  offset="5.327789e-09" style="stop-color:#EC2C91"/>
	<stop  offset="0.2805" style="stop-color:#C154AB"/>
	<stop  offset="0.911" style="stop-color:#56B8EB"/>
	<stop  offset="1" style="stop-color:#46C7F4"/>
</linearGradient>
<path style="fill:url(#SVGID_00000137829532021417258210000012014767304047494837_);" d="M171.8,228.6L95.2,152
	c-1.9-1.9-1.9-5.1,0-7l0,0c1.9-1.9,5.1-1.9,7,0l76.7,76.7c1.9,1.9,1.9,5.1,0,7l0,0C176.9,230.6,173.8,230.6,171.8,228.6z"/>
<linearGradient id="SVGID_00000166650536946014691510000001835148463873138609_" gradientUnits="userSpaceOnUse" x1="-400.7478" y1="1225.4608" x2="-362.9664" y2="1187.6793" gradientTransform="matrix(1.1187 1.1187 0.7071 -0.7071 -285.3127 1523.6736)">
	<stop  offset="5.327789e-09" style="stop-color:#EC2C91"/>
	<stop  offset="0.2805" style="stop-color:#C154AB"/>
	<stop  offset="0.911" style="stop-color:#56B8EB"/>
	<stop  offset="1" style="stop-color:#46C7F4"/>
</linearGradient>
<path style="fill:url(#SVGID_00000166650536946014691510000001835148463873138609_);" d="M172.9,282.5L101.4,211
	c-1.9-1.9-1.9-5.1,0-7l0,0c1.9-1.9,5.1-1.9,7,0l71.5,71.5c1.9,1.9,1.9,5,0,7l0,0C177.9,284.5,174.8,284.5,172.9,282.5z"/>
<linearGradient id="SVGID_00000094577434168899585710000016166729125814573466_" gradientUnits="userSpaceOnUse" x1="-181.3789" y1="1423.0294" x2="-143.7945" y2="1385.4449" gradientTransform="matrix(0.9773 0.9773 0.7071 -0.7071 -473.2779 1335.7083)">
	<stop  offset="5.327789e-09" style="stop-color:#EC2C91"/>
	<stop  offset="0.2805" style="stop-color:#C154AB"/>
	<stop  offset="0.911" style="stop-color:#56B8EB"/>
	<stop  offset="1" style="stop-color:#46C7F4"/>
</linearGradient>
<path style="fill:url(#SVGID_00000094577434168899585710000016166729125814573466_);" d="M388,218.1l-61.5-61.6
	c-1.9-1.9-1.9-5.1,0-7l0,0c1.9-1.9,5-1.9,7,0l61.5,61.6c1.9,1.9,1.9,5.1,0,7l0,0C393.1,220.1,390,220.1,388,218.1z"/>
<linearGradient id="SVGID_00000035517783878825051660000015791841147936181423_" gradientUnits="userSpaceOnUse" x1="62.6916" y1="1460.339" x2="99.7795" y2="1423.2509" gradientTransform="matrix(0.7071 0.7071 0.7071 -0.7071 -708.6348 1100.3514)">
	<stop  offset="5.327789e-09" style="stop-color:#EC2C91"/>
	<stop  offset="0.2805" style="stop-color:#C154AB"/>
	<stop  offset="0.911" style="stop-color:#56B8EB"/>
	<stop  offset="1" style="stop-color:#46C7F4"/>
</linearGradient>
<path style="fill:url(#SVGID_00000035517783878825051660000015791841147936181423_);" d="M386.1,163.1l-42.6-42.6
	c-1.9-1.9-1.9-5.1,0-7l0,0c1.9-1.9,5-1.9,7,0l42.6,42.6c1.9,1.9,1.9,5.1,0,7l0,0C391.1,165,388,165,386.1,163.1z"/>
<path class="st6" d="M91.7,462c1.8-10.7,3.3-22.6,4.1-35.5c0.7-12.2,0.8-23.5,0.3-33.7c-2.1-6-5.1-8.6-7.5-9.9
	c-1.8-0.9-3.6-0.8-5.1-2.4c-2.2-2.3-2.1-5.8-2-7.1c0.4-9.1,10.7-21.3,17.7-30.2c7.1-9.1,11.5-14.8,16.3-23.3
	c6.6-11.8,6.7-16.1,12.6-23.8c6.2-8.2,13.6-13.2,18.7-16c6.8-26.3,13.6-47.3,18.8-61.9c6.7-19.2,13.5-35.8,21-63.7
	c4-14.9,2.7-12.4,5.4-21.6c5.5-18.4,13-42.7,32.6-65c6.7-7.6,13.3-15,24.8-20.9c0,0,17.9-9.3,40.5-7.8c4.9,0.3,9.5,0.7,15,3.1
	c4.5,2,6,3.8,12.6,7.5c5.5,3,9.2,4.4,11.6,5.5c11,4.8,21.8,15.3,27.9,25.2c5.6,9,6.7,17.1,8.9,33c1,7.2,2.7,23.4,1.4,48
	c-1,17.7-2.1,35.9-9.2,58.6c-5.9,19-12.2,28.9-15.5,33.6c-5.6,8.2-11.5,14.1-15.9,18.1c2.4,2.1,6,5,10.9,7.8c6,3.4,9.4,4.1,15.7,6.5
	c18,6.7,17.1,11.2,29.3,13.6c7,1.4,9.1,0.3,16.3,2.7c5.6,1.9,9.4,4.3,14,7.1c4.7,3,11.5,7.3,18,15c2.8,3.3,4.8,5.6,6.5,9.2
	c3,6.4,2.7,11.6,3.1,18.4c0.4,8.3,1.6,14.2,3.4,22.8c1.7,8.1,5.5,23.6,7.8,37.8c0.3,2.1,0.9,5.9-1.4,8.5c-2.5,2.9-7.2,2.6-8.9,2.4
	c-0.6,6-1.1,12.5-1.4,19.4c-0.2,6.8-0.2,13.2,0,19.2C323.9,462,207.8,462,91.7,462z"/>
<path class="st7" d="M437.2,431.6c-0.7,10.6-0.8,20.7-0.4,30.4h-114c-4.3-26.7,4-56.7,26.3-69.4c14.3-8.1,33.4-8.6,51.7-1.5
	c13.7,5.3,27,14.8,37.5,28.5C437.9,423.5,437.5,427.5,437.2,431.6z"/>
<path class="st7" d="M152.3,428c-1.1,7.3-3.1,15.2-5.9,23.6c-0.6,1.7-1.2,3.4-1.8,5.1c-0.6,1.5-1.2,3.1-1.8,4.6
	c-0.1,0.2-0.1,0.4-0.2,0.6H96.5c0.2-4.5,0.8-9.7,1.4-15.7c1.2-12.8,2.2-30.1,2.1-51.3v-0.2v-3.1v-0.7c0-0.1,0-0.2,0-0.4
	c4.1-2,14.6-7,25.1-8.4c3.3-0.4,6.6-0.5,9.6,0.1l0,0c2.9,0.5,5.7,1.5,8.1,3.2c0.2,0.1,0.4,0.3,0.6,0.5l0,0
	C152.1,392.5,155.4,407.8,152.3,428z"/>
<path class="st8" d="M144.6,456.7c-0.6,1.5-1.2,3.1-1.8,4.6c-0.1,0.2-0.1,0.4-0.2,0.6h-25.2c0-0.8-0.1-1.6-0.1-2.5
	c-1.4-16.5-10.2-19.8-10.7-35.7c-0.4-11.8,4.2-17.2,0-23.5c-1.7-2.5-4-4.2-6.6-5.3v-0.2v-3.1v-0.7c0.1,0,0.2-0.1,0.4-0.1
	c8-2,16-4,24-6c3.5-0.9,6.9-1.7,10.4-2.6l0,0c2.9-0.7,5.8-1.4,8.7-2.2c0,1.9,0.1,3.9,0.1,5.8l0,0
	C143.8,409.5,144.2,433.1,144.6,456.7z"/>
<path class="st8" d="M438.3,419.6c-0.4,4.2-0.8,8.2-1.1,12c-8.5,0.2-18.5-0.8-26.8-2.7c-9.2-2.1-14-2.2-15.8-1.5
	c-6.5,2.2-7.1,18.8-6.1,34.6h-33.8c-2.2-17.4,0.4-37.4,12.8-52c7.8-9.2,19.9-16.6,33.3-18.9C414.5,396.4,427.8,405.9,438.3,419.6z"
	/>
<path class="st9" d="M446.1,418.7c-1.5,1.6-3.4,1.3-7.8,0.9c-1.6-0.1-3.6-0.3-6-0.4c-16.5-0.8-16.8,2.8-25.5,0.5
	c-7.3-1.9-10.4-5.3-16.9-4.1c-3.1,0.6-5.6,2-7.1,3.1c2.1,5.1,4.1,12.6,2.6,20.9c-1.4,7.6-4.5,8.5-7.1,17.9c-0.2,0.8-0.5,1.9-0.8,3.3
	c-0.1,0.4-0.1,0.8-0.2,1.2h-247c0.1-0.5,0.1-0.9,0.2-1.3c1.1-9,0.8-10.8,0.5-12.5c-0.8-5.6-2.7-8.1-2.6-15.1c0.2-8.3,3-9.6,2.8-18.1
	c-0.1-3.1-0.4-11.9-5.6-15.4c-0.6-0.4-2.2-1-5-1.8c-2.1-0.7-4.8-1.5-8.3-2.5c-7.6-2.3-9.5-2.5-11.9-4.3c-0.1-0.1-0.2-0.2-0.4-0.3
	c-3.5-2.8-3-4.7-7.7-9.2c-4.1-3.9-5.6-3.6-6.6-5.6c-2.6-5.1,4.4-13.1,10.2-20.4c3.4-4.4,9.6-13.8,21.9-32.7
	c14.4-22,11.9-24.1,18.9-30.6c3.9-3.6,8.2-6.3,12.7-8.2c9.4-4.1,19.6-5.1,28.7-5.6c6.2-0.3,12.9-0.5,19.9-0.5
	c7.1,0,14.6,0.1,22.2,0.4c8.7,0.3,17.6,0.7,26.5,1.3l0,0c0.3,0,0.3,0,0.4,0c30.7,1.7,58.1,17.8,87.1,7.9c0.8-0.3,2.6-0.9,4.9-1.9
	c3.1,0.2,4.6,1.1,5.3,2c0.5,0.6,0.6,1.1,1.3,1.6c1.2,0.9,2.4,0.8,3.8,1c0.4,0.1,0.6,0.1,4.8,1.9c5.3,2.2,7.5,3.2,10.5,4.3
	c0.5,0.2,0.5,0.2,0.9,0.4c10.7,4,11.4,5.8,18.4,7.7c7.8,2.1,7.7,0.1,13.8,2c4.4,1.4,7.4,3.4,17.9,11.7c8.8,7,13.1,10.5,13.8,11.2
	c7.5,8.8,4,14.7,9.7,44.4c3.3,17.4,5,26.1,5.1,26.6C446.6,409.9,449,415.7,446.1,418.7z"/>
<path class="st10" d="M220.2,349.3c16.7-14.1,22.6-28.4,24.9-36.2c3.5-11.6,2.7-22.8,1-44.6c-1.3-17.2-3.4-31.3-5.1-41.2
	c23,22.9,37.9,25.3,47.3,23.1c11.1-2.5,22.1-13,24.9-10.2c1.9,1.9-2.6,7.8,0,15.7c0.7,2,1.6,3.5,2.2,4.4c0.8-0.2,1.5-0.3,2.3-0.5
	c0.7-1.8,1.9-4.6,3.5-7.9c9.8-20.9,20.4-32.9,24.6-38.8c11.5-16.3,9.4-36.1,5.4-72.8c-4.1-37.1-6.1-56.2-22.2-68.9
	c-24.5-19.3-60.3-7-62.8-6.1c-35.7,12.8-50.6,49.7-59,70.5C172.4,222,205.4,314,220.2,349.3z"/>
<path class="st7" d="M338.9,285.4c-6.3,14.1-21.9,42.8-53.1,56.9c-9.1,4.1-27.1,11.4-44.9,4.1c-4.9-2-8.6-4.6-10.9-6.6
	c6.9-11.5,10.5-21.7,12.5-28.9c5.3-19.2,4.3-35.6,3.6-46.3c-0.4-6.7-1.2-12.2-1.9-16.1c45.7-15.3,62.2-11.5,68.2-3.8
	c2.2,2.9,3.2,6.6,4.1,10.7c1.7,8,2.8,17.4,11.2,24.3C331.8,283.1,336.1,284.6,338.9,285.4z"/>
<path class="st8" d="M316.5,255.5c-0.7,0.6-1.8,1.5-3.1,2.6c-7.8,6.2-19.9,15.8-31.5,18.1c-16.1,3.2-30.9-7.6-35.8-11.6
	c-0.3-6.1-1.1-11.6-1.9-16.1c45.7-15.3,62.2-11.5,68.2-3.8C314.6,247.7,315.6,251.4,316.5,255.5z"/>
<path class="st11" d="M225,206.3c-1.2,0.6-3.2,0.4-4.5-0.6c-0.5-0.4-2.3-1.9-2-7.9c0.2-3.3,1-9.2,5.4-16.3
	C228.8,201.1,226.8,205.3,225,206.3z"/>
<path class="st11" d="M337.1,205.6c2,0.6,4.7-1.9,5.9-3.4c2.4-3.1,1-5.4,2.3-12c1.3-6.5,3.4-8,2.5-11.7c-0.7-2.8-2.6-4.8-4-5.9
	c-2.4-8.1-4.1-10.6-5.4-10.5C333.4,162.5,330,203.5,337.1,205.6z"/>
<path class="st7" d="M342,173.6c-0.4,14.9-3.2,25.8-6.4,38.1c-3.6,14-5.6,21.4-10.8,27.6c-0.2,0.2-0.4,0.5-0.6,0.8
	c-3.2,3.5-9,8.6-12,11.2c-4.5,3.9-7.1,6.2-10.7,8.7c-6.2,4.2-10.8,7.4-17.4,8.7c-1.1,0.2-10.7,2-20.3-2.4c-1.1-0.5-2.1-1-3.2-1.7
	c-1.4-0.9-5.6-5-13.8-13.3c-5.4-5.4-8.1-8.2-8.9-9.2c-2.5-3.2-5.5-8-9.2-21.8c-3-11-4.8-17.6-5.3-26.2c-0.6-10.5,1.3-18.3,5.1-31.3
	c0.2-0.8,0.5-1.7,0.8-2.5c0.1-0.4,0.3-0.9,0.4-1.3s0.3-0.9,0.4-1.4c0.3-0.9,0.5-1.7,0.8-2.5c0.1-0.3,0.2-0.6,0.3-0.9v-0.1
	c0.2-0.6,0.4-1.2,0.6-1.8c0.1-0.2,0.1-0.4,0.2-0.6c0.1-0.4,0.3-0.9,0.4-1.4c0-0.1,0.1-0.2,0.1-0.3c0.1-0.2,0.1-0.4,0.2-0.6
	c0.1-0.4,0.3-0.8,0.4-1.1c0-0.1,0.1-0.2,0.1-0.3s0.1-0.1,0.1-0.2v-0.1c0.1-0.3,0.2-0.7,0.4-1c0.4-1.1,0.8-2.2,1.2-3.4
	c0.3-0.8,0.6-1.6,0.9-2.5c0.2-0.6,0.4-1.1,0.6-1.7c0.4-1.2,0.9-2.4,1.4-3.6c0.2-0.6,0.5-1.2,0.7-1.8c3.3-8.1,7.6-17.2,13.1-27.1
	c8.8-15.9,13.9-21,19.7-24.8c2.3-1.5,8.3-5.3,17-6.7c1.9-0.3,3.9-0.5,6-0.5c0.6,0,10.8,0.1,20,4.7c4,2,7.7,4.8,10.4,8.9
	c1.9,2.9,0.9,2.8,4.6,10.5c5.4,11.2,8.2,12.8,10.7,18.6c3.1,7.4,1,10.6,0.8,27.3C340.2,161.5,342.3,160.1,342,173.6z"/>
<path class="st12" d="M342,173.6c-0.4,14.9-3.2,25.8-6.4,38.1c-3.6,14-5.6,21.4-10.8,27.6c0.1-1.6,1.1-2.9,2-5.5
	c0.8-2.3,1.1-4.1,1.2-4.6c1.3-6.2,3.9-14.6,5.9-23.9c2.9-13.3,4.3-20.1,2.9-29.3c-0.8-4.9-1.5-9.5-4.8-14.1c-1.9-2.6-3.6-4-7.2-8.9
	c-3.1-4.4-2.7-4.7-4.2-6.4c-6.1-6.9-16.3-5.3-16.3-7c0-1.5,8.3-4.8,17.4-3.4c7.1,1.1,9.5,4.3,12,2.6c3.6-2.4,2.4-11.6,0-16.3
	c-0.5-1-1.1-1.9-1.2-2c-1.5-1.8-3.6-2.1-6.6-5.5c-6.9-7.9-7.5-19.5-7.7-21.8c-0.2-3.7,0.2-5.4-0.9-8.4c-0.8-2.2-2.1-3.9-3.3-5.3
	c4,2,7.7,4.8,10.4,8.9c1.9,2.9,0.9,2.8,4.6,10.5c5.4,11.2,8.2,12.8,10.7,18.6c3.1,7.4,1,10.6,0.8,27.3
	C340.2,161.5,342.3,160.1,342,173.6z"/>
<path class="st8" d="M287.9,75.2c-4.1,1.7-9.2,4.2-14.2,8.3c-4.6,3.7-7.7,7.4-9.4,9.4c-2.4,2.9-5.7,7.3-11.6,19.4
	c-6.9,14.1-10.3,21.3-8.3,25.4c0.5,1,1.8,3.2,5.6,5.2c2.1,0.5,4.2,1.1,6.4,1.7c0.8,0.2,1.6,0.5,2.4,0.8c-0.9-0.1-2.2-0.4-3.8-0.7
	c-2.5-0.5-4-0.9-4.5-1c-3.1-0.7-7.9,0.3-11.2,2.9c-4.1,3.2-5.1,8.3-6.5,14.5c-1.4,6-0.4,7.1-1.5,14.1c-1.6,10.1-3.9,9.2-4.4,16.2
	c-0.3,3.7,0.3,4.4,3.1,21.6c0.5,3.1,0.3,2.4,0.8,5s1.5,7.5,3.6,14.1s3.8,9.9,3.4,10.1c-2.5-3.2-5.5-8-9.2-21.8
	c-3-11-4.8-17.6-5.3-26.2c-0.6-10.5,1.3-18.3,5.1-31.3c0.2-0.8,0.5-1.7,0.8-2.5c0.1-0.4,0.3-0.9,0.4-1.3s0.3-0.9,0.4-1.4
	c0.3-0.9,0.5-1.7,0.8-2.5c0.1-0.3,0.2-0.6,0.3-0.9v-0.1c0.2-0.6,0.4-1.2,0.6-1.8c0.1-0.2,0.1-0.4,0.2-0.6c0.2-0.5,0.3-0.9,0.4-1.4
	c0-0.1,0.1-0.2,0.1-0.3c0.1-0.2,0.1-0.4,0.2-0.6c0.1-0.4,0.3-0.8,0.4-1.1c0-0.1,0.1-0.2,0.1-0.3s0.1-0.1,0.1-0.2v-0.1
	c0.1-0.3,0.2-0.7,0.4-1c0.4-1.1,0.8-2.2,1.2-3.4c0.3-0.8,0.6-1.6,0.9-2.5c0.2-0.6,0.4-1.1,0.6-1.7c0.4-1.2,0.9-2.4,1.4-3.6
	c0.2-0.6,0.5-1.2,0.7-1.8c3.3-8.1,7.6-17.2,13.1-27.1c8.8-15.9,13.9-21,19.7-24.8C273.3,80.4,279.3,76.6,287.9,75.2z"/>
<g>
	<path class="st13" d="M320.3,158.6c-0.5,0.5-1.3,1.2-2.4,2c-1.8,1.2-5.5,3.4-10.4,3.5c-2.3,0-4.2,0.1-6.1-0.9
		c-0.4-0.2-1.3-0.8-2.6-0.9l0,0c-0.6-0.1-1.1,0-1.9,0.1c-1.8,0.2-2.3,0.4-2.5,0.1c-0.3-0.4,0.1-1.4,0.6-2c0.7-0.8,1.4-0.8,2.5-1.4
		c0.2-0.1,0.4-0.3,0.6-0.4c0.7-0.6,0.9-1.1,1.8-1.8c1.5-1.2,3-1.8,4-2.1c5.8-2,11.3,0.4,11.3,0.4
		C316.4,155.6,318.4,156.6,320.3,158.6z"/>
	<path class="st14" d="M303.5,162.3c-0.9-1.1-1.1-2.5-1.1-2.9c-0.2-2.2,0.8-3.9,1.1-4.3c0.7-0.5,2.2-1.5,4.3-1.7
		c2.6-0.2,4.5,0.8,5.3,1.2c0.1,0.2,1.6,3.5,0.1,6.3c-1.1,1.9-2.9,2.4-3.9,2.6C308.8,163.7,305.4,164.6,303.5,162.3z"/>
	<path class="st15" d="M320.3,158.6c-0.8-0.8-2.2-2.1-4.2-3.2c-4.1-2.1-9.3-2.3-13.5-0.3c-2.9,1.4-4.5,3.6-4.7,3.5
		c-0.1-0.1,1.4-2.4,3.8-3.9c3.2-2,6.7-1.9,8.8-1.7c5.7,0.3,9.9,3,11.9,4.5C321.8,158,321.1,158.3,320.3,158.6z"/>
	<path class="st16" d="M298.8,162.3L298.8,162.3c-0.6-0.1-1.1,0-1.9,0.1c-1.8,0.2-2.3,0.4-2.5,0.1c-0.3-0.4,0.1-1.4,0.6-2
		c0.7-0.8,1.4-0.8,2.5-1.4c0.2-0.1,0.4-0.3,0.6-0.4c0.3,0.4,0.1,1,0,1.5c0.1,0.2,0.4,0.5,0.5,0.9
		C298.7,161.5,298.8,161.9,298.8,162.3z"/>
	<path class="st17" d="M308,156.4c-0.9-0.1-1.7,0.6-1.9,1.4c-0.2,1,0.6,2,1.6,2c1,0.1,1.9-0.9,1.8-1.9
		C309.5,157.2,308.8,156.5,308,156.4z"/>
	<path class="st13" d="M309.6,156.2c-0.6,0-1.2,0.2-1.3,0.6c-0.1,0.4,0.4,0.8,1.1,0.9c0.7,0,1.3-0.4,1.3-0.8
		C310.7,156.5,310.2,156.3,309.6,156.2z"/>
	<path class="st13" d="M306.7,158.8c-0.3,0-0.6,0.2-0.6,0.6c-0.1,0.4,0.2,0.8,0.6,0.9c0.4,0,0.7-0.4,0.6-0.8
		C307.2,159.1,307,158.9,306.7,158.8z"/>
	<g>
		<path class="st16" d="M295.3,158.1c1.5-2.1,3.5-3.9,5.8-5.2s5-1.9,7.6-2c1.3-0.1,2.6,0.1,4,0.4c1.3,0.3,2.5,0.7,3.7,1.3
			s2.3,1.3,3.3,2.1s2,1.7,2.8,2.7c-1-0.8-2-1.6-3.1-2.3s-2.2-1.3-3.4-1.8c-2.3-1-4.8-1.5-7.3-1.4c-2.5,0-5,0.6-7.3,1.7
			c-1.1,0.5-2.2,1.2-3.2,2C297.1,156.3,296.2,157.1,295.3,158.1z"/>
	</g>
	<g>
		<path class="st15" d="M320.5,158.6c-1.2,1.2-2.6,2.3-4,3.2s-2.9,1.8-4.6,2.3c-1.6,0.6-3.4,0.8-5.1,0.7s-3.4-0.6-4.9-1.3
			c1.6,0.5,3.3,0.7,5,0.7s3.3-0.3,4.9-0.8s3.1-1.3,4.5-2.1C317.7,160.4,319.1,159.6,320.5,158.6z"/>
	</g>
</g>
<g>
	<path class="st13" d="M235.7,161.1c0.6,0.5,1.4,1.2,2.4,1.9c1.8,1.2,5.6,3.2,10.6,3c2.3-0.1,4.2-0.1,6.1-1.2
		c0.4-0.2,1.3-0.9,2.6-1.1l0,0c0.6-0.1,1.1-0.1,1.9,0c1.8,0.1,2.3,0.3,2.5,0c0.3-0.4-0.1-1.4-0.7-1.9c-0.7-0.8-1.4-0.7-2.5-1.3
		c-0.2-0.1-0.5-0.3-0.6-0.4c-0.7-0.5-1-1.1-1.9-1.7c-1.6-1.2-3.1-1.6-4.1-1.9c-5.9-1.8-11.3,0.9-11.3,0.9
		C239.5,157.9,237.6,159,235.7,161.1z"/>
	<path class="st14" d="M252.6,164c0.9-1.2,1-2.6,1-3c0.1-2.3-1-3.9-1.3-4.2c-0.8-0.5-2.3-1.4-4.4-1.5c-2.6-0.1-4.5,1-5.2,1.5
		c-0.1,0.2-1.5,3.6,0.2,6.3c1.1,1.9,3,2.3,4,2.5C247.5,165.6,250.9,166.4,252.6,164z"/>
	<path class="st15" d="M235.7,161.1c0.8-0.9,2.1-2.2,4.1-3.4c4-2.3,9.2-2.8,13.4-0.9c3,1.3,4.7,3.4,4.8,3.3c0.1-0.1-1.5-2.3-4-3.7
		c-3.3-1.9-6.8-1.5-8.9-1.3c-5.6,0.6-9.7,3.4-11.7,5.1C234.2,160.5,235,160.8,235.7,161.1z"/>
	<path class="st16" d="M257.4,163.8C257.4,163.7,257.4,163.7,257.4,163.8c0.6-0.1,1.1-0.1,1.9,0c1.8,0.1,2.3,0.3,2.5,0
		c0.3-0.4-0.1-1.4-0.7-1.9c-0.7-0.8-1.4-0.7-2.5-1.3c-0.2-0.1-0.5-0.3-0.6-0.4c-0.3,0.4-0.1,1,0.1,1.5c-0.1,0.2-0.3,0.5-0.5,0.9
		C257.5,162.9,257.4,163.4,257.4,163.8z"/>
	<path class="st17" d="M247.9,158.3c0.9-0.1,1.7,0.5,1.9,1.3c0.2,1-0.5,2-1.5,2.1s-1.9-0.8-1.9-1.8
		C246.5,159.1,247.1,158.4,247.9,158.3z"/>
	<path class="st13" d="M246.3,158.2c0.6-0.1,1.2,0.2,1.3,0.5c0.1,0.4-0.4,0.9-1.1,0.9c-0.7,0.1-1.4-0.3-1.3-0.8
		C245.3,158.6,245.7,158.3,246.3,158.2z"/>
	<path class="st13" d="M249.3,160.7c0.3-0.1,0.6,0.2,0.7,0.6c0.1,0.4-0.2,0.9-0.5,0.9c-0.4,0-0.7-0.4-0.7-0.8
		C248.8,161,249,160.7,249.3,160.7z"/>
	<g>
		<path class="st16" d="M260.7,159.4c-0.9-0.9-1.9-1.7-3-2.4c-1-0.7-2.2-1.3-3.3-1.8c-2.3-1-4.8-1.4-7.3-1.4c-2.5,0.1-5,0.7-7.3,1.8
			c-1.1,0.5-2.2,1.2-3.3,1.9s-2.1,1.5-3,2.4c0.8-1,1.7-1.9,2.7-2.8c1-0.8,2.1-1.6,3.2-2.2c1.1-0.7,2.4-1.1,3.6-1.5
			c1.3-0.3,2.6-0.6,3.9-0.6c2.6-0.1,5.3,0.5,7.7,1.7C257.1,155.6,259.2,157.3,260.7,159.4z"/>
	</g>
	<g>
		<path class="st15" d="M235.5,161c1.4,0.9,2.9,1.7,4.4,2.5s3,1.5,4.6,1.9c1.6,0.5,3.2,0.6,4.9,0.6c1.7-0.1,3.3-0.4,4.9-1
			c-1.5,0.8-3.2,1.3-4.9,1.5s-3.5,0-5.1-0.4s-3.2-1.2-4.7-2.1C238.2,163.2,236.7,162.2,235.5,161z"/>
	</g>
</g>
<path class="st18" d="M289.7,143.6c0.7-1.9,1.5-3.7,2.2-5.6c0.2-0.6,0.8-1.1,1.4-1.3c6.2-1.9,15.4-4.1,24.5-4.5
	c2.2-0.1,4.8-0.1,7.8,1c5.3,1.9,8.4,5.9,10,8.1c-2-1.3-5.7-3.2-10.7-4c-4.6-0.7-8.3-0.1-10.6,0.4l-23.9,6.5
	C289.9,144.5,289.5,144,289.7,143.6z"/>
<path class="st18" d="M258.9,145.3l-22.8-6.2c0.4-1.2,0.9-2.4,1.4-3.6c0.2-0.6,0.5-1.2,0.7-1.8c6.7,0.9,13.1,2.5,17.7,3.9
	c0.6,0.2,1.2,0.7,1.4,1.3c0.7,1.9,1.5,3.7,2.2,5.5C259.8,145,259.4,145.5,258.9,145.3z"/>
<g>
	<g>
		<path class="st16" d="M263.2,205.7c-0.8-0.9-1.3-2.1-1.6-3.3c-0.3-1.2-0.3-2.5,0-3.7s0.8-2.4,1.5-3.4s1.6-1.9,2.7-2.5
			c-1.5,1.9-2.7,3.9-3.2,6.1c-0.2,1.1-0.3,2.2-0.2,3.4C262.5,203.5,262.8,204.6,263.2,205.7z"/>
	</g>
	<g>
		<path class="st16" d="M292,205.7c0.4-1.1,0.7-2.3,0.8-3.4s0-2.3-0.2-3.4c-0.5-2.2-1.7-4.2-3.2-6.1c1,0.6,1.9,1.5,2.7,2.5
			c0.7,1,1.3,2.1,1.5,3.4c0.2,1.2,0.3,2.5,0,3.7C293.3,203.7,292.8,204.8,292,205.7z"/>
	</g>
	<g>
		<path class="st16" d="M270.4,205c-0.6,0.3-1.2,0.5-1.9,0.4c-0.3,0-0.7-0.1-1-0.2c-0.3-0.2-0.6-0.2-1-0.5c0-0.1-0.1-0.2-0.1-0.3
			s0.1-0.2,0.2-0.2c0.1-0.1,0.2-0.1,0.3-0.2c0.2-0.1,0.4-0.1,0.5-0.1c0.3-0.1,0.7-0.1,1-0.1c0.7,0,1.5,0.2,2,0.7s1,1,1.4,1.4
			c0.4,0.5,0.9,0.9,1.4,1.2c1,0.7,2.2,1,3.5,1.1c1.2,0.1,2.5,0,3.8-0.2s2.6-0.3,3.5-1c0.5-0.3,0.9-0.8,1.3-1.3s1-1,1.6-1.3
			s1.2-0.6,1.9-0.6s1.4,0.1,1.9,0.4c-0.6-0.2-1.3-0.3-1.9-0.2s-1.2,0.4-1.7,0.8c-0.5,0.4-1,0.8-1.3,1.3c-0.4,0.5-0.8,1.1-1.4,1.5
			c-0.5,0.4-1.2,0.7-1.9,0.9c-0.7,0.2-1.3,0.3-1.9,0.4c-1.3,0.2-2.6,0.3-4,0.2c-1.3-0.1-2.7-0.5-3.9-1.3c-0.6-0.4-1.1-0.9-1.5-1.4
			s-0.8-1.1-1.2-1.4c-0.4-0.4-1-0.6-1.6-0.6c-0.3,0-0.6,0-0.9,0c-0.1,0-0.3,0-0.4,0.1c-0.1,0-0.1,0.1-0.1,0.1l0,0c0-0.1,0-0.1,0-0.1
			c0.1,0.1,0.5,0.3,0.7,0.5c0.3,0.1,0.6,0.2,0.9,0.3C269.1,205.3,269.8,205.2,270.4,205z"/>
	</g>
	<path class="st16" d="M270.4,204.8c0-0.3-1.1-0.7-2.1-0.8c-0.6,0-1.6,0-1.7,0.3s0.9,0.9,1.9,0.9
		C269.4,205.4,270.4,205.1,270.4,204.8z"/>
	<path class="st16" d="M286.9,204.7c0-0.3,1.1-0.7,2.1-0.8c0.6,0,1.6,0,1.7,0.3s-0.9,0.9-1.9,0.9C288,205.3,287,205,286.9,204.7z"/>
</g>
<g>
	<path class="st19" d="M296.6,231.7L296.6,231.7c-1.8,2.1-6.3,6.8-13,8.3c-3,0.7-6.3,0.7-6.8,0.7c-1.2,0-4.4,0-7.3-0.8
		c-5.9-1.6-9.3-6.1-10.7-8.2l0.1-0.1c2.7-2.8,5.4-4.6,7.3-5.7c2.7-1.6,4.5-2.6,6.8-2.4c2.2,0.1,2.5,1.2,4.8,1.2
		c2.8,0.1,3.4-1.4,5.9-1.5c2.1-0.1,3.6,1,6.6,3C292,227.4,294.3,229.1,296.6,231.7z"/>
	<path class="st20" d="M296.5,231.7c-1.8,2.1-6.3,6.7-12.9,8.2c-3,0.7-6.3,0.7-6.8,0.7c-1.2,0-4.4,0-7.3-0.8
		c-5.9-1.6-9.3-6.1-10.7-8.2l0.1-0.1c0.5-0.3,2,0.4,5.2-0.1c2.5-0.5,2.6-1.1,4.8-1.4c2.3-0.3,2.3,0.4,6.3,0.5c2.4,0,4.6-0.2,4.8-0.2
		c2-0.2,2.2-0.4,3.3-0.4c2,0,3,0.6,5,1.1c2.2,0.6,4.5,0.9,6.1,0.9C295,232,295.7,231.9,296.5,231.7z"/>
	<g>
		<path class="st21" d="M251.8,228.3c1.8,1.2,3.6,2.3,5.7,2.9c2,0.6,4.2,0.6,6.3,0.1c2-0.5,4-1.5,6.3-1.7c1.1-0.1,2.2,0,3.3,0.2
			c1.1,0.2,2.1,0.4,3.1,0.5s2.1,0,3.1-0.2c1-0.3,2.1-0.5,3.3-0.5c1.1,0,2.2,0.4,3.2,0.6c1,0.3,2.1,0.5,3.1,0.8
			c2.1,0.5,4.2,1,6.3,0.7c2.1-0.2,4.1-1.2,5.9-2.4c-1.6,1.4-3.6,2.4-5.8,2.8c-2.2,0.4-4.4-0.1-6.5-0.5c-1-0.2-2.1-0.4-3.2-0.7
			s-2-0.6-3.1-0.6s-2,0.2-3.1,0.5s-2.2,0.3-3.3,0.3c-1.1-0.1-2.2-0.3-3.2-0.5s-2.1-0.3-3.1-0.2c-2.1,0.1-4,1.1-6.2,1.6
			c-2.1,0.5-4.4,0.4-6.5-0.3C255.3,230.8,253.4,229.7,251.8,228.3z"/>
	</g>
	<path class="st22" d="M263.6,234.2c-0.1,0.7,1.9,1.8,3.8,2.2c2.9,0.6,6-0.3,6-0.9c0-0.3-0.5-0.5-0.8-0.6c-1-0.4-1.8-0.1-2.6,0
		c-2.6,0.3-3.8-1.8-5.7-1C263.7,233.9,263.6,234.1,263.6,234.2z"/>
</g>
<path class="st10" d="M362.1,141.9c-0.6-26.2-1.3-44.9-12.8-62c-1.2-1.7-9.7-14.3-19.4-20.3c-2.3-1.4-4.6-2.4-6.9-2.9
	c-1.2-0.2-5.2-0.9-10-3.2c-5.3-2.6-8.6-5.7-9.4-6.5c-7.7-6.9-33.4-6.2-53.9,4.1c-4.7,2.4-21.3,11.4-40.1,45.7
	c-9.2,16.8-12.7,28.4-16.3,42.8c-3.9,15.5-7.7,34.3-18.7,66.2c-2.2,6.4-8.7,25.1-17.1,51.4c-0.9,2.7-3.7,11.7-6.1,19.6
	c-0.8,2.5-1.4,4.8-2.1,7.1c-12.5,42.4-13.1,58.1-24.4,98.4c-0.2,0.9-0.5,1.8-0.8,2.7c-0.7,2.6-1.5,5.4-2.4,8.3
	c-0.5,1.6-0.9,3.2-1.4,4.6c-4.4,14.7-5.4,16.5-5.8,23c-0.8,15.1,3.4,28.9,9.1,40.2c0.2,0.4,0.3,0.7,0.5,1h6.5
	c-0.2-0.4-0.3-0.9-0.5-1.3c-1.4-4.1-2.6-8.4-3.3-13c-0.9-5.6-1-11.6-0.1-17.8c0.8-5,2.4-11,4.1-15c1.2-2.7,2.4-4.5,3.5-4.4
	c3.7,0.3,8.5,21.7,1.5,40.9c-1.5,4-3.3,7.5-5.3,10.6h11.6c0.1-0.2,0.2-0.4,0.4-0.6c0.5-0.9,1.1-1.9,1.5-2.9c1.2-2.7,1.8-4.8,2.1-6.9
	c0.6-4.3,0.1-8.1,2.8-16c0.9-2.7,2-5.3,3.1-7.6c5.5-11.3,12.8-18.5,13.5-18c0.6,0.4-3.6,6.5-8.4,17.5c-0.4,1-6.7,16.7-10.5,33.6
	c-0.1,0.3-0.1,0.6-0.2,0.9h11.9c1.6-4.6,3.4-9.4,5.7-14.2c14.6-31.7,27.8-31.1,42.9-61.3c2.6-5.3,9-18.8,13.1-37.2l0,0
	c2.9-12.8,4.6-28,3.3-44.5c-0.6-7.1-1.9-16.5-3.4-26.7c-3.4-23.7-7.7-51.6-5.3-65.3c1.2-6.6,2.9-13,2.9-13c0.2-0.7,0.4-1.3,0.6-1.9
	c2.1-6,3.4-8.9,5.1-14.1l0,0c0.1-0.4,0.3-0.9,0.5-1.4s0.4-1.1,0.5-1.7c2.4-7.6,1.8-8.8,4.1-18c0.7-2.8,1.4-5.3,2.1-7.6
	c0.1-0.1,0.1-0.3,0.1-0.4v-0.1c0-0.1,0.1-0.2,0.1-0.3c0,0,0,0,0-0.1c1-3.3,2-6.2,3-9c0.2-0.5,0.3-0.9,0.5-1.4c0-0.1,0.1-0.2,0.1-0.2
	c0.1-0.2,0.1-0.4,0.2-0.6c0.5-1.3,0.9-2.5,1.4-3.7c2.3-6.2,6.3-16.5,13.2-28.9c0.4-0.8,0.9-1.6,1.4-2.5c0-0.1,0.1-0.1,0.1-0.2
	s0.1-0.1,0.1-0.2c0,0,0,0,0-0.1l0,0c2.1-3.7,4-6.9,5.6-9.6c0-0.1,0.1-0.1,0.1-0.2c3.7-6,6.6-9.8,10.5-12.9l0.1-0.1
	c1.2-0.9,8.5-6.4,19-8.6c3.8-0.8,8.1-1.2,12.6-0.8l0,0h0.1c0.1,0,0.2,0,0.3,0c1.5,0.2,3.6,0.4,6.1,1.1c2.3,0.6,4.9,1.5,7.6,2.8
	c0.1,0.1,0.3,0.1,0.4,0.2c0.4,0.2,0.7,0.4,1.1,0.6c0.3,0.2,0.7,0.4,1,0.6l0,0c0.2,0.1,0.3,0.2,0.5,0.3c0,0,0,0,0.1,0
	c2.2,1.3,4.6,2.9,6.7,5.7l0,0l0,0l0,0l0,0c2.4,3.3,1.9,5,3.9,10.3c0.7,1.8,3.1,6,8,14.3c4.3,7.3,4.8,8.1,5.4,10.1
	c1.2,4.6,0.5,7.6-0.1,12.8c-1.3,11.2-0.3,19.6,0.7,27.4c0.2,1.8,0.5,3.3,0.7,4.7l0,0c0.1,0.8,0.3,1.5,0.4,2.1l0,0l0,0l0,0l0,0l0,0
	c1.2,5.6,2.5,6.9,3.1,7.4s2.6,2.1,2.9,4.4v0.1c0.1,1.2-0.3,2.3-0.6,3c0,0,0,0,0,0.1l0,0l0,0c-2.1,4.5-2.6,8.1-2.6,10.7v0.1
	c0,2,0.2,3.5-0.5,5.6l0,0c-0.1,0.2-0.3,1-0.8,1.8l0,0l0,0c-0.8,1.4-2.2,3.2-4.3,3.8l0,0l0,0l0,0l0,0c-0.7,0.2-1.3,0.2-1.8,0.2h-0.1
	c-0.1,0.3-0.1,0.6-0.2,0.9c-0.2,0.8-0.5,1.8-0.7,2.8c0,0.1,0,0.2-0.1,0.3c-0.3,1-0.6,2.2-0.9,3.4c-0.1,0.4-0.2,0.9-0.3,1.3
	c0,0.1,0,0.1-0.1,0.2c0,0.1,0,0.1-0.1,0.2c-0.1,0.5-0.2,1-0.4,1.4c0,0.2-0.1,0.4-0.2,0.7c0,0.2-0.1,0.4-0.1,0.6
	c0,0.2-0.1,0.4-0.1,0.5c-1.4,5.2-1.9,7.2-2.9,9.6c0,0.1-0.1,0.2-0.1,0.3s-0.1,0.2-0.1,0.2c-0.8,2-1.6,4.1-3.2,6.7
	c-1,1.7-2,3.1-2.9,4.2l0,0c-0.7,0.9-1.4,1.7-2,2.4l-0.1,0.1c-1.9,2.1-4.5,4.8-8,7.5l-0.1,0.1c0.6,2.2,1.1,4.4,1.7,6.6l0,0
	c0.1,0.3,0.2,0.6,0.2,0.9c0.3,1.1,0.6,2.2,0.9,3.3l0,0c0.1-0.1,0.3-0.2,0.4-0.4c5.2-4.1,6.8-4.3,7.3-3.8c1.3,1.1-1.6,7.3-5.5,12.5
	c-0.2,0.3-0.4,0.5-0.6,0.8c-7.1,8.9-16.4,12.7-16.4,12.8c0.2,0,9.9-3.8,18.6-10c0.1-0.1,0.2-0.1,0.3-0.2
	c24.5-17.8,31.4-48.6,36.2-70.5C363,177.8,362.6,160.1,362.1,141.9z"/>
<path class="st8" d="M982.6,418.6c-0.3,3.1-0.6,6-0.8,8.9c0.1-1.5,0.3-3,0.4-4.5c0.1-0.7,0.1-1.5,0.2-2.2
	C982.5,420.1,982.6,419.3,982.6,418.6z"/>
<path class="st10" d="M702.7,461C702.7,461,702.7,461.1,702.7,461l-11.9,0.1c0,0,0-0.1,0-0.1H702.7z"/>
<g>
	<path class="st16" d="M267.3,175.1c0.1-2.1,0.2-4.3,0.2-6.4c-0.1-2.1-0.2-4.2-0.6-6.3c-0.3-2.1-0.8-4.1-1.4-6.2s-1.3-4-2.1-6
		c0.6,0.9,1.1,1.9,1.6,2.8c0.5,1,0.9,2,1.2,3c0.8,2,1.3,4.1,1.6,6.3c0.3,2.1,0.5,4.3,0.4,6.5c0,1.1-0.1,2.1-0.3,3.2
		C267.8,173,267.6,174.1,267.3,175.1z"/>
</g>
<path class="st12" d="M278.5,195.7c-0.2,0-2.4,0.1-3.1,1.6c-0.7,1.6,0.6,4.1,2.5,4.5c2.2,0.5,4.7-2,4.3-3.8
	C282,196.5,280.1,195.6,278.5,195.7z"/>
<linearGradient id="SVGID_00000178886362767917844110000000925188480218831764_" gradientUnits="userSpaceOnUse" x1="100.4863" y1="-162.1962" x2="123.1137" y2="-184.8237" gradientTransform="matrix(1 0 0 -1 0 109.89)">
	<stop  offset="5.327789e-09" style="stop-color:#EC2C91"/>
	<stop  offset="0.2805" style="stop-color:#C154AB"/>
	<stop  offset="0.911" style="stop-color:#56B8EB"/>
	<stop  offset="1" style="stop-color:#46C7F4"/>
</linearGradient>
<circle style="fill:url(#SVGID_00000178886362767917844110000000925188480218831764_);" cx="111.8" cy="283.4" r="16"/>
<linearGradient id="SVGID_00000083089093596308716060000003374139065278103465_" gradientUnits="userSpaceOnUse" x1="74.9432" y1="-127.7531" x2="86.2568" y2="-139.0668" gradientTransform="matrix(1 0 0 -1 0 109.89)">
	<stop  offset="5.327789e-09" style="stop-color:#EC2C91"/>
	<stop  offset="0.2805" style="stop-color:#C154AB"/>
	<stop  offset="0.911" style="stop-color:#56B8EB"/>
	<stop  offset="1" style="stop-color:#46C7F4"/>
</linearGradient>
<circle style="fill:url(#SVGID_00000083089093596308716060000003374139065278103465_);" cx="80.6" cy="243.3" r="8"/>
<linearGradient id="SVGID_00000014603047229251097350000015043461328487150493_" gradientUnits="userSpaceOnUse" x1="61.1461" y1="-160.4561" x2="75.9105" y2="-175.2205" gradientTransform="matrix(1 0 0 -1 0 109.89)">
	<stop  offset="5.327789e-09" style="stop-color:#EC2C91"/>
	<stop  offset="0.2805" style="stop-color:#C154AB"/>
	<stop  offset="0.911" style="stop-color:#56B8EB"/>
	<stop  offset="1" style="stop-color:#46C7F4"/>
</linearGradient>
<circle style="fill:url(#SVGID_00000014603047229251097350000015043461328487150493_);" cx="68.5" cy="277.7" r="10.4"/>
<linearGradient id="SVGID_00000069389172694986085000000006373581664486072452_" gradientUnits="userSpaceOnUse" x1="452.1234" y1="-212.3333" x2="474.7507" y2="-234.9608" gradientTransform="matrix(1 0 0 -1 0 109.89)">
	<stop  offset="5.327789e-09" style="stop-color:#EC2C91"/>
	<stop  offset="0.2805" style="stop-color:#C154AB"/>
	<stop  offset="0.911" style="stop-color:#56B8EB"/>
	<stop  offset="1" style="stop-color:#46C7F4"/>
</linearGradient>
<circle style="fill:url(#SVGID_00000069389172694986085000000006373581664486072452_);" cx="463.4" cy="333.5" r="16"/>
<linearGradient id="SVGID_00000025408298258043323380000014952902151213726645_" gradientUnits="userSpaceOnUse" x1="429.0431" y1="-178.2531" x2="440.3569" y2="-189.5667" gradientTransform="matrix(1 0 0 -1 0 109.89)">
	<stop  offset="5.327789e-09" style="stop-color:#EC2C91"/>
	<stop  offset="0.2805" style="stop-color:#C154AB"/>
	<stop  offset="0.911" style="stop-color:#56B8EB"/>
	<stop  offset="1" style="stop-color:#46C7F4"/>
</linearGradient>
<circle style="fill:url(#SVGID_00000025408298258043323380000014952902151213726645_);" cx="434.7" cy="293.8" r="8"/>
<linearGradient id="SVGID_00000098928067911106814350000004211434609331148672_" gradientUnits="userSpaceOnUse" x1="461.0228" y1="-140.1328" x2="475.7872" y2="-154.8972" gradientTransform="matrix(1 0 0 -1 0 109.89)">
	<stop  offset="5.327789e-09" style="stop-color:#EC2C91"/>
	<stop  offset="0.2805" style="stop-color:#C154AB"/>
	<stop  offset="0.911" style="stop-color:#56B8EB"/>
	<stop  offset="1" style="stop-color:#46C7F4"/>
</linearGradient>
<circle style="fill:url(#SVGID_00000098928067911106814350000004211434609331148672_);" cx="468.4" cy="257.4" r="10.4"/>
<g>
	
		<linearGradient id="SVGID_00000024682822397067005150000004064755060768142741_" gradientUnits="userSpaceOnUse" x1="82.4" y1="17.2901" x2="450.75" y2="-351.06" gradientTransform="matrix(1 0 0 -1 0 109.89)">
		<stop  offset="5.327789e-09" style="stop-color:#EC2C91"/>
		<stop  offset="0.2805" style="stop-color:#C154AB"/>
		<stop  offset="0.911" style="stop-color:#56B8EB"/>
		<stop  offset="1" style="stop-color:#46C7F4"/>
	</linearGradient>
	<path style="fill:url(#SVGID_00000024682822397067005150000004064755060768142741_);" d="M450.8,92.6
		c-49.2-49.2-114.6-76.3-184.2-76.3s-135,27.1-184.2,76.3S6.1,207.2,6.1,276.8s27.1,135,76.3,184.2c0.3,0.3,0.7,0.7,1,1h13
		C46.4,416,15,350,15,276.8C15,138,127.9,25.2,266.6,25.2S518.2,138,518.2,276.8c0,73.2-31.4,139.2-81.5,185.2h13
		c0.3-0.3,0.7-0.7,1-1c49.2-49.2,76.3-114.6,76.3-184.2C527.1,207.2,500,141.8,450.8,92.6z"/>
</g>
</svg>
