<?xml version="1.0" encoding="UTF-8"?>
<svg id="Layer_1" data-name="Layer 1" xmlns="http://www.w3.org/2000/svg" viewBox="0 0 376.79 433.51">
  <defs>
    <style>
      .cls-1 {
        fill: #c6aca5;
      }

      .cls-1, .cls-2, .cls-3, .cls-4, .cls-5, .cls-6, .cls-7, .cls-8, .cls-9, .cls-10, .cls-11, .cls-12, .cls-13, .cls-14, .cls-15, .cls-16, .cls-17 {
        stroke-width: 0px;
      }

      .cls-2 {
        fill: #146fad;
      }

      .cls-3 {
        fill: #0f0500;
      }

      .cls-4 {
        fill: #2d221a;
      }

      .cls-5 {
        fill: #b7a09a;
      }

      .cls-6 {
        fill: #44362c;
      }

      .cls-7 {
        fill: #e2c7bf;
      }

      .cls-8 {
        fill: #dbbfb4;
      }

      .cls-9 {
        fill: #dbabaf;
      }

      .cls-10 {
        fill: #d3d0cb;
      }

      .cls-11 {
        fill: #261f1a;
      }

      .cls-12 {
        fill: #c18086;
      }

      .cls-13 {
        fill: #fff;
      }

      .cls-14 {
        fill: #894b45;
      }

      .cls-15 {
        fill: #d58d91;
      }

      .cls-16 {
        fill: #937269;
      }

      .cls-17 {
        fill: #43593d;
      }
    </style>
  </defs>
  <path class="cls-13" d="m13.79,431.47c2.17-11.77,3.95-25.06,4.83-39.67.73-12.15.74-23.44.3-33.7-2.1-6-5.1-8.6-7.5-9.9-1.8-.9-3.6-.8-5.1-2.4-2.2-2.3-2.1-5.8-2-7.1.4-9.1,10.7-21.3,17.7-30.2,7.1-9.1,11.5-14.8,16.3-23.3,6.6-11.8,6.7-16.1,12.6-23.8,6.2-8.2,13.6-13.2,18.7-16,6.8-26.3,13.6-47.3,18.8-61.9,6.7-19.2,13.5-35.8,21-63.7,4-14.9,2.7-12.4,5.4-21.6,5.5-18.4,13-42.7,32.6-65,6.7-7.6,13.3-15,24.8-20.9,0,0,17.9-9.3,40.5-7.8,4.9.3,9.5.7,15,3.1,4.5,2,6,3.8,12.6,7.5,5.5,3,9.2,4.4,11.6,5.5,11,4.8,21.8,15.3,27.9,25.2,5.6,9,6.7,17.1,8.9,33,1,7.2,2.7,23.4,1.4,48-1,17.7-2.1,35.9-9.2,58.6-5.9,19-12.2,28.9-15.5,33.6-5.6,8.2-11.5,14.1-15.9,18.1,2.4,2.1,6,5,10.9,7.8,6,3.4,9.4,4.1,15.7,6.5,18,6.7,17.1,11.2,29.3,13.6,7,1.4,9.1.3,16.3,2.7,5.6,1.9,9.4,4.3,14,7.1,4.7,3,11.5,7.3,18,15,2.8,3.3,4.8,5.6,6.5,9.2,3,6.4,2.7,11.6,3.1,18.4.4,8.3,1.6,14.2,3.4,22.8,1.7,8.1,5.5,23.6,7.8,37.8.3,2.1.9,5.9-1.4,8.5-2.5,2.9-7.2,2.6-8.9,2.4-.62,6.16-1.1,12.63-1.4,19.4-.36,8.13-.42,15.87-.27,23.17H13.79Z"/>
  <path class="cls-8" d="m360.02,396.9c-.7,10.6-.8,20.7-.4,30.4h-114c-4.3-26.7,4-56.7,26.3-69.4,14.3-8.1,33.4-8.6,51.7-1.5,13.7,5.3,27,14.8,37.5,28.5-.4,3.9-.8,7.9-1.1,12Z"/>
  <path class="cls-8" d="m75.12,393.3c-1.1,7.3-3.1,15.2-5.9,23.6-.6,1.7-1.2,3.4-1.8,5.1-.6,1.5-1.2,3.1-1.8,4.6-.1.2-.1.4-.2.6H19.32c.2-4.5.8-9.7,1.4-15.7,1.2-12.8,2.2-30.1,2.1-51.3v-4.4c4.1-2,14.6-7,25.1-8.4,3.3-.4,6.6-.5,9.6.1h0c2.9.5,5.7,1.5,8.1,3.2.2.1.4.3.6.5h0c8.7,6.6,12,21.9,8.9,42.1Z"/>
  <path class="cls-1" d="m67.42,422c-.6,1.5-1.2,3.1-1.8,4.6-.1.2-.1.4-.2.6h-25.2c0-.8-.1-1.6-.1-2.5-1.4-16.5-10.2-19.8-10.7-35.7-.4-11.8,4.2-17.2,0-23.5-1.7-2.5-4-4.2-6.6-5.3v-4c.1,0,.2-.1.4-.1l24-6c3.5-.9,6.9-1.7,10.4-2.6h0c2.9-.7,5.8-1.4,8.7-2.2,0,1.9.1,3.9.1,5.8h0c.2,23.7.6,47.3,1,70.9Z"/>
  <path class="cls-1" d="m361.12,384.9c-.4,4.2-.8,8.2-1.1,12-8.5.2-18.5-.8-26.8-2.7-9.2-2.1-14-2.2-15.8-1.5-6.5,2.2-7.1,18.8-6.1,34.6h-33.8c-2.2-17.4.4-37.4,12.8-52,7.8-9.2,19.9-16.6,33.3-18.9,13.7,5.3,27,14.8,37.5,28.5Z"/>
  <path class="cls-2" d="m368.92,384c-1.5,1.6-3.4,1.3-7.8.9-1.6-.1-3.6-.3-6-.4-16.5-.8-16.8,2.8-25.5.5-7.3-1.9-10.4-5.3-16.9-4.1-3.1.6-5.6,2-7.1,3.1,2.1,5.1,4.1,12.6,2.6,20.9-1.4,7.6-4.5,8.5-7.1,17.9-.2.8-.5,1.9-.8,3.3-.1.4-.1.8-.2,1.2H53.12c.1-.5.1-.9.2-1.3,1.1-9,.8-10.8.5-12.5-.8-5.6-2.7-8.1-2.6-15.1.2-8.3,3-9.6,2.8-18.1-.1-3.1-.4-11.9-5.6-15.4-.6-.4-2.2-1-5-1.8-2.1-.7-4.8-1.5-8.3-2.5-7.6-2.3-9.5-2.5-11.9-4.3-.1-.1-.2-.2-.4-.3-3.5-2.8-3-4.7-7.7-9.2-4.1-3.9-5.6-3.6-6.6-5.6-2.6-5.1,4.4-13.1,10.2-20.4,3.4-4.4,9.6-13.8,21.9-32.7,14.4-22,11.9-24.1,18.9-30.6,3.9-3.6,8.2-6.3,12.7-8.2,9.4-4.1,19.6-5.1,28.7-5.6,6.2-.3,12.9-.5,19.9-.5s14.6.1,22.2.4c8.7.3,17.6.7,26.5,1.3h.4c30.7,1.7,58.1,17.8,87.1,7.9.8-.3,2.6-.9,4.9-1.9,3.1.2,4.6,1.1,5.3,2,.5.6.6,1.1,1.3,1.6,1.2.9,2.4.8,3.8,1,.4.1.6.1,4.8,1.9,5.3,2.2,7.5,3.2,10.5,4.3q.5.2.9.4c10.7,4,11.4,5.8,18.4,7.7,7.8,2.1,7.7.1,13.8,2,4.4,1.4,7.4,3.4,17.9,11.7,8.8,7,13.1,10.5,13.8,11.2,7.5,8.8,4,14.7,9.7,44.4,3.3,17.4,5,26.1,5.1,26.6,2.2,9.5,4.6,15.3,1.7,18.3Z"/>
  <path class="cls-11" d="m143.02,314.6c16.7-14.1,22.6-28.4,24.9-36.2,3.5-11.6,2.7-22.8,1-44.6-1.3-17.2-3.4-31.3-5.1-41.2,23,22.9,37.9,25.3,47.3,23.1,11.1-2.5,22.1-13,24.9-10.2,1.9,1.9-2.6,7.8,0,15.7.7,2,1.6,3.5,2.2,4.4.8-.2,1.5-.3,2.3-.5.7-1.8,1.9-4.6,3.5-7.9,9.8-20.9,20.4-32.9,24.6-38.8,11.5-16.3,9.4-36.1,5.4-72.8-4.1-37.1-6.1-56.2-22.2-68.9-24.5-19.3-60.3-7-62.8-6.1-35.7,12.8-50.6,49.7-59,70.5-34.8,86.2-1.8,178.2,13,213.5Z"/>
  <path class="cls-8" d="m261.72,250.7c-6.3,14.1-21.9,42.8-53.1,56.9-9.1,4.1-27.1,11.4-44.9,4.1-4.9-2-8.6-4.6-10.9-6.6,6.9-11.5,10.5-21.7,12.5-28.9,5.3-19.2,4.3-35.6,3.6-46.3-.4-6.7-1.2-12.2-1.9-16.1,45.7-15.3,62.2-11.5,68.2-3.8,2.2,2.9,3.2,6.6,4.1,10.7,1.7,8,2.8,17.4,11.2,24.3,4.1,3.4,8.4,4.9,11.2,5.7Z"/>
  <path class="cls-1" d="m239.32,220.8c-.7.6-1.8,1.5-3.1,2.6-7.8,6.2-19.9,15.8-31.5,18.1-16.1,3.2-30.9-7.6-35.8-11.6-.3-6.1-1.1-11.6-1.9-16.1,45.7-15.3,62.2-11.5,68.2-3.8,2.2,3,3.2,6.7,4.1,10.8Z"/>
  <path class="cls-5" d="m147.82,171.6c-1.2.6-3.2.4-4.5-.6-.5-.4-2.3-1.9-2-7.9.2-3.3,1-9.2,5.4-16.3,4.9,19.6,2.9,23.8,1.1,24.8Z"/>
  <path class="cls-5" d="m259.92,170.9c2,.6,4.7-1.9,5.9-3.4,2.4-3.1,1-5.4,2.3-12,1.3-6.5,3.4-8,2.5-11.7-.7-2.8-2.6-4.8-4-5.9-2.4-8.1-4.1-10.6-5.4-10.5-5,.4-8.4,41.4-1.3,43.5Z"/>
  <path class="cls-8" d="m264.82,138.9c-.4,14.9-3.2,25.8-6.4,38.1-3.6,14-5.6,21.4-10.8,27.6-.2.2-.4.5-.6.8-3.2,3.5-9,8.6-12,11.2-4.5,3.9-7.1,6.2-10.7,8.7-6.2,4.2-10.8,7.4-17.4,8.7-1.1.2-10.7,2-20.3-2.4-1.1-.5-2.1-1-3.2-1.7-1.4-.9-5.6-5-13.8-13.3-5.4-5.4-8.1-8.2-8.9-9.2-2.5-3.2-5.5-8-9.2-21.8-3-11-4.8-17.6-5.3-26.2-.6-10.5,1.3-18.3,5.1-31.3.2-.8.5-1.7.8-2.5.1-.4.3-.9.4-1.3s.3-.9.4-1.4c.3-.9.5-1.7.8-2.5.1-.3.2-.6.3-.9v-.1c.2-.6.4-1.2.6-1.8.1-.2.1-.4.2-.6.1-.4.3-.9.4-1.4,0-.1.1-.2.1-.3.1-.2.1-.4.2-.6.1-.4.3-.8.4-1.1,0-.1.1-.2.1-.3s.1-.1.1-.2v-.1c.1-.3.2-.7.4-1,.4-1.1.8-2.2,1.2-3.4.3-.8.6-1.6.9-2.5.2-.6.4-1.1.6-1.7.4-1.2.9-2.4,1.4-3.6.2-.6.5-1.2.7-1.8,3.3-8.1,7.6-17.2,13.1-27.1,8.8-15.9,13.9-21,19.7-24.8,2.3-1.5,8.3-5.3,17-6.7,1.9-.3,3.9-.5,6-.5.6,0,10.8.1,20,4.7,4,2,7.7,4.8,10.4,8.9,1.9,2.9.9,2.8,4.6,10.5,5.4,11.2,8.2,12.8,10.7,18.6,3.1,7.4,1,10.6.8,27.3-.6,16.9,1.5,15.5,1.2,29Z"/>
  <path class="cls-7" d="m264.82,138.9c-.4,14.9-3.2,25.8-6.4,38.1-3.6,14-5.6,21.4-10.8,27.6.1-1.6,1.1-2.9,2-5.5.8-2.3,1.1-4.1,1.2-4.6,1.3-6.2,3.9-14.6,5.9-23.9,2.9-13.3,4.3-20.1,2.9-29.3-.8-4.9-1.5-9.5-4.8-14.1-1.9-2.6-3.6-4-7.2-8.9-3.1-4.4-2.7-4.7-4.2-6.4-6.1-6.9-16.3-5.3-16.3-7,0-1.5,8.3-4.8,17.4-3.4,7.1,1.1,9.5,4.3,12,2.6,3.6-2.4,2.4-11.6,0-16.3-.5-1-1.1-1.9-1.2-2-1.5-1.8-3.6-2.1-6.6-5.5-6.9-7.9-7.5-19.5-7.7-21.8-.2-3.7.2-5.4-.9-8.4-.8-2.2-2.1-3.9-3.3-5.3,4,2,7.7,4.8,10.4,8.9,1.9,2.9.9,2.8,4.6,10.5,5.4,11.2,8.2,12.8,10.7,18.6,3.1,7.4,1,10.6.8,27.3-.3,16.7,1.8,15.3,1.5,28.8Z"/>
  <path class="cls-1" d="m210.72,40.5c-4.1,1.7-9.2,4.2-14.2,8.3-4.6,3.7-7.7,7.4-9.4,9.4-2.4,2.9-5.7,7.3-11.6,19.4-6.9,14.1-10.3,21.3-8.3,25.4.5,1,1.8,3.2,5.6,5.2,2.1.5,4.2,1.1,6.4,1.7.8.2,1.6.5,2.4.8-.9-.1-2.2-.4-3.8-.7-2.5-.5-4-.9-4.5-1-3.1-.7-7.9.3-11.2,2.9-4.1,3.2-5.1,8.3-6.5,14.5-1.4,6-.4,7.1-1.5,14.1-1.6,10.1-3.9,9.2-4.4,16.2-.3,3.7.3,4.4,3.1,21.6.5,3.1.3,2.4.8,5s1.5,7.5,3.6,14.1,3.8,9.9,3.4,10.1c-2.5-3.2-5.5-8-9.2-21.8-3-11-4.8-17.6-5.3-26.2-.6-10.5,1.3-18.3,5.1-31.3.2-.8.5-1.7.8-2.5.1-.4.3-.9.4-1.3s.3-.9.4-1.4c.3-.9.5-1.7.8-2.5.1-.3.2-.6.3-.9v-.1c.2-.6.4-1.2.6-1.8.1-.2.1-.4.2-.6.2-.5.3-.9.4-1.4,0-.1.1-.2.1-.3.1-.2.1-.4.2-.6.1-.4.3-.8.4-1.1,0-.1.1-.2.1-.3s.1-.1.1-.2v-.1c.1-.3.2-.7.4-1,.4-1.1.8-2.2,1.2-3.4.3-.8.6-1.6.9-2.5.2-.6.4-1.1.6-1.7.4-1.2.9-2.4,1.4-3.6.2-.6.5-1.2.7-1.8,3.3-8.1,7.6-17.2,13.1-27.1,8.8-15.9,13.9-21,19.7-24.8,2.1-1.5,8.1-5.3,16.7-6.7Z"/>
  <g>
    <path class="cls-10" d="m243.12,123.9c-.5.5-1.3,1.2-2.4,2-1.8,1.2-5.5,3.4-10.4,3.5-2.3,0-4.2.1-6.1-.9-.4-.2-1.3-.8-2.6-.9h0c-.6-.1-1.1,0-1.9.1-1.8.2-2.3.4-2.5.1-.3-.4.1-1.4.6-2,.7-.8,1.4-.8,2.5-1.4.2-.1.4-.3.6-.4.7-.6.9-1.1,1.8-1.8,1.5-1.2,3-1.8,4-2.1,5.8-2,11.3.4,11.3.4,1.2.4,3.2,1.4,5.1,3.4Z"/>
    <path class="cls-17" d="m226.32,127.6c-.9-1.1-1.1-2.5-1.1-2.9-.2-2.2.8-3.9,1.1-4.3.7-.5,2.2-1.5,4.3-1.7,2.6-.2,4.5.8,5.3,1.2.1.2,1.6,3.5.1,6.3-1.1,1.9-2.9,2.4-3.9,2.6-.5.2-3.9,1.1-5.8-1.2Z"/>
    <path class="cls-4" d="m243.12,123.9c-.8-.8-2.2-2.1-4.2-3.2-4.1-2.1-9.3-2.3-13.5-.3-2.9,1.4-4.5,3.6-4.7,3.5-.1-.1,1.4-2.4,3.8-3.9,3.2-2,6.7-1.9,8.8-1.7,5.7.3,9.9,3,11.9,4.5-.6.5-1.3.8-2.1,1.1Z"/>
    <path class="cls-16" d="m221.62,127.6h0c-.6-.1-1.1,0-1.9.1-1.8.2-2.3.4-2.5.1-.3-.4.1-1.4.6-2,.7-.8,1.4-.8,2.5-1.4.2-.1.4-.3.6-.4.3.4.1,1,0,1.5.1.2.4.5.5.9.1.4.2.8.2,1.2Z"/>
    <path class="cls-3" d="m230.82,121.7c-.9-.1-1.7.6-1.9,1.4-.2,1,.6,2,1.6,2,1,.1,1.9-.9,1.8-1.9,0-.7-.7-1.4-1.5-1.5Z"/>
    <path class="cls-10" d="m232.42,121.5c-.6,0-1.2.2-1.3.6-.1.4.4.8,1.1.9.7,0,1.3-.4,1.3-.8s-.5-.6-1.1-.7Z"/>
    <path class="cls-10" d="m229.52,124.1c-.3,0-.6.2-.6.6-.1.4.2.8.6.9.4,0,.7-.4.6-.8-.1-.4-.3-.6-.6-.7Z"/>
    <path class="cls-16" d="m218.12,123.4c1.5-2.1,3.5-3.9,5.8-5.2s5-1.9,7.6-2c1.3-.1,2.6.1,4,.4,1.3.3,2.5.7,3.7,1.3s2.3,1.3,3.3,2.1,2,1.7,2.8,2.7c-1-.8-2-1.6-3.1-2.3s-2.2-1.3-3.4-1.8c-2.3-1-4.8-1.5-7.3-1.4-2.5,0-5,.6-7.3,1.7-1.1.5-2.2,1.2-3.2,2-1.1.7-2,1.5-2.9,2.5Z"/>
    <path class="cls-4" d="m243.32,123.9c-1.2,1.2-2.6,2.3-4,3.2s-2.9,1.8-4.6,2.3c-1.6.6-3.4.8-5.1.7s-3.4-.6-4.9-1.3c1.6.5,3.3.7,5,.7s3.3-.3,4.9-.8,3.1-1.3,4.5-2.1c1.4-.9,2.8-1.7,4.2-2.7Z"/>
  </g>
  <g>
    <path class="cls-10" d="m158.52,126.4c.6.5,1.4,1.2,2.4,1.9,1.8,1.2,5.6,3.2,10.6,3,2.3-.1,4.2-.1,6.1-1.2.4-.2,1.3-.9,2.6-1.1h0c.6-.1,1.1-.1,1.9,0,1.8.1,2.3.3,2.5,0,.3-.4-.1-1.4-.7-1.9-.7-.8-1.4-.7-2.5-1.3-.2-.1-.5-.3-.6-.4-.7-.5-1-1.1-1.9-1.7-1.6-1.2-3.1-1.6-4.1-1.9-5.9-1.8-11.3.9-11.3.9-1.2.5-3.1,1.6-5,3.7Z"/>
    <path class="cls-17" d="m175.42,129.3c.9-1.2,1-2.6,1-3,.1-2.3-1-3.9-1.3-4.2-.8-.5-2.3-1.4-4.4-1.5-2.6-.1-4.5,1-5.2,1.5-.1.2-1.5,3.6.2,6.3,1.1,1.9,3,2.3,4,2.5.6,0,4,.8,5.7-1.6Z"/>
    <path class="cls-4" d="m158.52,126.4c.8-.9,2.1-2.2,4.1-3.4,4-2.3,9.2-2.8,13.4-.9,3,1.3,4.7,3.4,4.8,3.3.1-.1-1.5-2.3-4-3.7-3.3-1.9-6.8-1.5-8.9-1.3-5.6.6-9.7,3.4-11.7,5.1.8.3,1.6.6,2.3.9Z"/>
    <path class="cls-16" d="m180.22,129.1q0-.1,0,0c.6-.1,1.1-.1,1.9,0,1.8.1,2.3.3,2.5,0,.3-.4-.1-1.4-.7-1.9-.7-.8-1.4-.7-2.5-1.3-.2-.1-.5-.3-.6-.4-.3.4-.1,1,.1,1.5-.1.2-.3.5-.5.9-.1.3-.2.8-.2,1.2Z"/>
    <path class="cls-3" d="m170.72,123.6c.9-.1,1.7.5,1.9,1.3.2,1-.5,2-1.5,2.1s-1.9-.8-1.9-1.8c.1-.8.7-1.5,1.5-1.6Z"/>
    <path class="cls-10" d="m169.12,123.5c.6-.1,1.2.2,1.3.5.1.4-.4.9-1.1.9-.7.1-1.4-.3-1.3-.8.1-.2.5-.5,1.1-.6Z"/>
    <path class="cls-10" d="m172.12,126c.3-.1.6.2.7.6.1.4-.2.9-.5.9-.4,0-.7-.4-.7-.8s.2-.7.5-.7Z"/>
    <path class="cls-16" d="m183.52,124.7c-.9-.9-1.9-1.7-3-2.4-1-.7-2.2-1.3-3.3-1.8-2.3-1-4.8-1.4-7.3-1.4-2.5.1-5,.7-7.3,1.8-1.1.5-2.2,1.2-3.3,1.9s-2.1,1.5-3,2.4c.8-1,1.7-1.9,2.7-2.8,1-.8,2.1-1.6,3.2-2.2,1.1-.7,2.4-1.1,3.6-1.5,1.3-.3,2.6-.6,3.9-.6,2.6-.1,5.3.5,7.7,1.7,2.5,1.1,4.6,2.8,6.1,4.9Z"/>
    <path class="cls-4" d="m158.32,126.3c1.4.9,2.9,1.7,4.4,2.5s3,1.5,4.6,1.9c1.6.5,3.2.6,4.9.6,1.7-.1,3.3-.4,4.9-1-1.5.8-3.2,1.3-4.9,1.5s-3.5,0-5.1-.4-3.2-1.2-4.7-2.1c-1.4-.8-2.9-1.8-4.1-3Z"/>
  </g>
  <path class="cls-6" d="m212.52,108.9c.7-1.9,1.5-3.7,2.2-5.6.2-.6.8-1.1,1.4-1.3,6.2-1.9,15.4-4.1,24.5-4.5,2.2-.1,4.8-.1,7.8,1,5.3,1.9,8.4,5.9,10,8.1-2-1.3-5.7-3.2-10.7-4-4.6-.7-8.3-.1-10.6.4l-23.9,6.5c-.5.3-.9-.2-.7-.6Z"/>
  <path class="cls-6" d="m181.72,110.6l-22.8-6.2c.4-1.2.9-2.4,1.4-3.6.2-.6.5-1.2.7-1.8,6.7.9,13.1,2.5,17.7,3.9.6.2,1.2.7,1.4,1.3.7,1.9,1.5,3.7,2.2,5.5.3.6-.1,1.1-.6.9Z"/>
  <g>
    <path class="cls-16" d="m186.02,171c-.8-.9-1.3-2.1-1.6-3.3-.3-1.2-.3-2.5,0-3.7s.8-2.4,1.5-3.4,1.6-1.9,2.7-2.5c-1.5,1.9-2.7,3.9-3.2,6.1-.2,1.1-.3,2.2-.2,3.4.1,1.2.4,2.3.8,3.4Z"/>
    <path class="cls-16" d="m214.82,171c.4-1.1.7-2.3.8-3.4s0-2.3-.2-3.4c-.5-2.2-1.7-4.2-3.2-6.1,1,.6,1.9,1.5,2.7,2.5.7,1,1.3,2.1,1.5,3.4.2,1.2.3,2.5,0,3.7-.3,1.3-.8,2.4-1.6,3.3Z"/>
    <path class="cls-16" d="m193.22,170.3c-.6.3-1.2.5-1.9.4-.3,0-.7-.1-1-.2-.3-.2-.6-.2-1-.5,0-.1-.1-.2-.1-.3s.1-.2.2-.2c.1-.1.2-.1.3-.2.2-.1.4-.1.5-.1.3-.1.7-.1,1-.1.7,0,1.5.2,2,.7l1.4,1.4c.4.5.9.9,1.4,1.2,1,.7,2.2,1,3.5,1.1,1.2.1,2.5,0,3.8-.2s2.6-.3,3.5-1c.5-.3.9-.8,1.3-1.3s1-1,1.6-1.3,1.2-.6,1.9-.6,1.4.1,1.9.4c-.6-.2-1.3-.3-1.9-.2s-1.2.4-1.7.8c-.5.4-1,.8-1.3,1.3-.4.5-.8,1.1-1.4,1.5-.5.4-1.2.7-1.9.9-.7.2-1.3.3-1.9.4-1.3.2-2.6.3-4,.2-1.3-.1-2.7-.5-3.9-1.3-.6-.4-1.1-.9-1.5-1.4s-.8-1.1-1.2-1.4c-.4-.4-1-.6-1.6-.6h-.9c-.1,0-.3,0-.4.1-.1,0-.1.1-.1.1h0v-.1c.1.1.5.3.7.5.3.1.6.2.9.3.5,0,1.2-.1,1.8-.3Z"/>
    <path class="cls-16" d="m193.22,170.1c0-.3-1.1-.7-2.1-.8-.6,0-1.6,0-1.7.3s.9.9,1.9.9c.9.2,1.9-.1,1.9-.4Z"/>
    <path class="cls-16" d="m209.72,170c0-.3,1.1-.7,2.1-.8.6,0,1.6,0,1.7.3s-.9.9-1.9.9c-.8.2-1.8-.1-1.9-.4Z"/>
  </g>
  <g>
    <path class="cls-15" d="m219.42,197h0c-1.8,2.1-6.3,6.8-13,8.3-3,.7-6.3.7-6.8.7-1.2,0-4.4,0-7.3-.8-5.9-1.6-9.3-6.1-10.7-8.2l.1-.1c2.7-2.8,5.4-4.6,7.3-5.7,2.7-1.6,4.5-2.6,6.8-2.4,2.2.1,2.5,1.2,4.8,1.2,2.8.1,3.4-1.4,5.9-1.5,2.1-.1,3.6,1,6.6,3,1.7,1.2,4,2.9,6.3,5.5Z"/>
    <path class="cls-12" d="m219.32,197c-1.8,2.1-6.3,6.7-12.9,8.2-3,.7-6.3.7-6.8.7-1.2,0-4.4,0-7.3-.8-5.9-1.6-9.3-6.1-10.7-8.2l.1-.1c.5-.3,2,.4,5.2-.1,2.5-.5,2.6-1.1,4.8-1.4,2.3-.3,2.3.4,6.3.5,2.4,0,4.6-.2,4.8-.2,2-.2,2.2-.4,3.3-.4,2,0,3,.6,5,1.1,2.2.6,4.5.9,6.1.9.6.1,1.3,0,2.1-.2Z"/>
    <path class="cls-14" d="m174.62,193.6c1.8,1.2,3.6,2.3,5.7,2.9,2,.6,4.2.6,6.3.1,2-.5,4-1.5,6.3-1.7,1.1-.1,2.2,0,3.3.2,1.1.2,2.1.4,3.1.5s2.1,0,3.1-.2c1-.3,2.1-.5,3.3-.5,1.1,0,2.2.4,3.2.6,1,.3,2.1.5,3.1.8,2.1.5,4.2,1,6.3.7,2.1-.2,4.1-1.2,5.9-2.4-1.6,1.4-3.6,2.4-5.8,2.8-2.2.4-4.4-.1-6.5-.5-1-.2-2.1-.4-3.2-.7s-2-.6-3.1-.6-2,.2-3.1.5-2.2.3-3.3.3c-1.1-.1-2.2-.3-3.2-.5s-2.1-.3-3.1-.2c-2.1.1-4,1.1-6.2,1.6-2.1.5-4.4.4-6.5-.3-2.1-.9-4-2-5.6-3.4Z"/>
    <path class="cls-9" d="m186.42,199.5c-.1.7,1.9,1.8,3.8,2.2,2.9.6,6-.3,6-.9,0-.3-.5-.5-.8-.6-1-.4-1.8-.1-2.6,0-2.6.3-3.8-1.8-5.7-1-.6,0-.7.2-.7.3Z"/>
  </g>
  <path class="cls-11" d="m284.92,107.2c-.6-26.2-1.3-44.9-12.8-62-1.2-1.7-9.7-14.3-19.4-20.3-2.3-1.4-4.6-2.4-6.9-2.9-1.2-.2-5.2-.9-10-3.2-5.3-2.6-8.6-5.7-9.4-6.5-7.7-6.9-33.4-6.2-53.9,4.1-4.7,2.4-21.3,11.4-40.1,45.7-9.2,16.8-12.7,28.4-16.3,42.8-3.9,15.5-7.7,34.3-18.7,66.2-2.2,6.4-8.7,25.1-17.1,51.4-.9,2.7-3.7,11.7-6.1,19.6-.8,2.5-1.4,4.8-2.1,7.1-12.5,42.4-13.1,58.1-24.4,98.4-.2.9-.5,1.8-.8,2.7-.7,2.6-1.5,5.4-2.4,8.3-.5,1.6-.9,3.2-1.4,4.6-4.4,14.7-5.4,16.5-5.8,23-.8,15.1,3.4,28.9,9.1,40.2.2.4.3.7.5,1h6.5c-.2-.4-.3-.9-.5-1.3-1.4-4.1-2.6-8.4-3.3-13-.9-5.6-1-11.6-.1-17.8.8-5,2.4-11,4.1-15,1.2-2.7,2.4-4.5,3.5-4.4,3.7.3,8.5,21.7,1.5,40.9-1.5,4-3.3,7.5-5.3,10.6h11.6c.1-.2.2-.4.4-.6.5-.9,1.1-1.9,1.5-2.9,1.2-2.7,1.8-4.8,2.1-6.9.6-4.3.1-8.1,2.8-16,.9-2.7,2-5.3,3.1-7.6,5.5-11.3,12.8-18.5,13.5-18,.6.4-3.6,6.5-8.4,17.5-.4,1-6.7,16.7-10.5,33.6-.1.3-.1.6-.2.9h11.9c1.6-4.6,3.4-9.4,5.7-14.2,14.6-31.7,27.8-31.1,42.9-61.3,2.6-5.3,9-18.8,13.1-37.2h0c2.9-12.8,4.6-28,3.3-44.5-.6-7.1-1.9-16.5-3.4-26.7-3.4-23.7-7.7-51.6-5.3-65.3,1.2-6.6,2.9-13,2.9-13,.2-.7.4-1.3.6-1.9,2.1-6,3.4-8.9,5.1-14.1h0c.1-.4.3-.9.5-1.4s.4-1.1.5-1.7c2.4-7.6,1.8-8.8,4.1-18,.7-2.8,1.4-5.3,2.1-7.6.1-.1.1-.3.1-.4v-.1c0-.1.1-.2.1-.3v-.1c1-3.3,2-6.2,3-9,.2-.5.3-.9.5-1.4,0-.1.1-.2.1-.2.1-.2.1-.4.2-.6.5-1.3.9-2.5,1.4-3.7,2.3-6.2,6.3-16.5,13.2-28.9.4-.8.9-1.6,1.4-2.5,0-.1.1-.1.1-.2s.1-.1.1-.2v-.1h0c2.1-3.7,4-6.9,5.6-9.6,0-.1.1-.1.1-.2,3.7-6,6.6-9.8,10.5-12.9l.1-.1c1.2-.9,8.5-6.4,19-8.6,3.8-.8,8.1-1.2,12.6-.8h.4c1.5.2,3.6.4,6.1,1.1,2.3.6,4.9,1.5,7.6,2.8.1.1.3.1.4.2.4.2.7.4,1.1.6.3.2.7.4,1,.6h0c.2.1.3.2.5.3h.1c2.2,1.3,4.6,2.9,6.7,5.7h0c2.4,3.3,1.9,5,3.9,10.3.7,1.8,3.1,6,8,14.3,4.3,7.3,4.8,8.1,5.4,10.1,1.2,4.6.5,7.6-.1,12.8-1.3,11.2-.3,19.6.7,27.4.2,1.8.5,3.3.7,4.7h0c.1.8.3,1.5.4,2.1h0c1.2,5.6,2.5,6.9,3.1,7.4s2.6,2.1,2.9,4.4v.1c.1,1.2-.3,2.3-.6,3v.1h0c-2.1,4.5-2.6,8.1-2.6,10.7v.1c0,2,.2,3.5-.5,5.6h0c-.1.2-.3,1-.8,1.8h0c-.8,1.4-2.2,3.2-4.3,3.8h0c-.7.2-1.3.2-1.8.2h-.1c-.1.3-.1.6-.2.9-.2.8-.5,1.8-.7,2.8,0,.1,0,.2-.1.3-.3,1-.6,2.2-.9,3.4-.1.4-.2.9-.3,1.3q0,.1-.1.2t-.1.2c-.1.5-.2,1-.4,1.4,0,.2-.1.4-.2.7,0,.2-.1.4-.1.6s-.1.4-.1.5c-1.4,5.2-1.9,7.2-2.9,9.6,0,.1-.1.2-.1.3s-.1.2-.1.2c-.8,2-1.6,4.1-3.2,6.7-1,1.7-2,3.1-2.9,4.2h0c-.7.9-1.4,1.7-2,2.4l-.1.1c-1.9,2.1-4.5,4.8-8,7.5l-.1.1c.6,2.2,1.1,4.4,1.7,6.6h0c.1.3.2.6.2.9.3,1.1.6,2.2.9,3.3h0c.1-.1.3-.2.4-.4,5.2-4.1,6.8-4.3,7.3-3.8,1.3,1.1-1.6,7.3-5.5,12.5-.2.3-.4.5-.6.8-7.1,8.9-16.4,12.7-16.4,12.8.2,0,9.9-3.8,18.6-10,.1-.1.2-.1.3-.2,24.5-17.8,31.4-48.6,36.2-70.5,5.8-23.1,5.4-40.8,4.9-59Z"/>
  <path class="cls-16" d="m190.12,140.4c.1-2.1.2-4.3.2-6.4-.1-2.1-.2-4.2-.6-6.3-.3-2.1-.8-4.1-1.4-6.2s-1.3-4-2.1-6c.6.9,1.1,1.9,1.6,2.8.5,1,.9,2,1.2,3,.8,2,1.3,4.1,1.6,6.3.3,2.1.5,4.3.4,6.5,0,1.1-.1,2.1-.3,3.2-.1,1-.3,2.1-.6,3.1Z"/>
  <path class="cls-7" d="m201.32,161c-.2,0-2.4.1-3.1,1.6-.7,1.6.6,4.1,2.5,4.5,2.2.5,4.7-2,4.3-3.8-.2-1.5-2.1-2.4-3.7-2.3Z"/>
</svg>