<?xml version="1.0" encoding="utf-8"?>
<!-- Generator: Adobe Illustrator 28.0.0, SVG Export Plug-In . SVG Version: 6.00 Build 0)  -->
<svg version="1.1" id="Layer_1" xmlns="http://www.w3.org/2000/svg" xmlns:xlink="http://www.w3.org/1999/xlink" x="0px" y="0px"
	 viewBox="0 0 321.68 321.68" style="enable-background:new 0 0 321.68 321.68;" xml:space="preserve">
<style type="text/css">
	.st0{fill:url(#SVGID_1_);}
</style>
<linearGradient id="SVGID_1_" gradientUnits="userSpaceOnUse" x1="6.871" y1="160.8399" x2="314.8056" y2="160.8399">
	<stop  offset="0" style="stop-color:#E01480"/>
	<stop  offset="1" style="stop-color:#37BDEE"/>
</linearGradient>
<path class="st0" d="M215.81,305.23c-10.91,0-19.83-6.32-25.65-18.41c-1.59-3.31-0.2-7.28,3.11-8.88c3.31-1.59,7.28-0.2,8.88,3.11
	c5.82,12.08,13,11.84,19.27,10c5.79-1.69,10.97-4.8,15.27-7.62c39.58-25.94,61.26-62.42,64.45-108.41
	c2.74-39.63-9.67-74.13-36.91-102.56c-35.78-37.34-79.7-50.92-130.57-40.37c-31.84,6.61-58.85,23.93-80.28,51.48
	c-4.24,5.45-8.19,11.83-12.42,20.05c-1.68,3.27-5.69,4.55-8.96,2.87c-3.27-1.68-4.55-5.69-2.87-8.96
	c4.62-8.98,8.99-16.02,13.75-22.14c23.43-30.11,53.06-49.07,88.08-56.33c55.64-11.55,103.71,3.32,142.87,44.19
	c29.94,31.25,43.59,69.16,40.57,112.68c-3.49,50.37-27.18,90.28-70.42,118.62c-5.12,3.36-11.37,7.09-18.83,9.27
	C221.9,304.76,218.78,305.23,215.81,305.23z M62.1,248.85c12.2-1.24,23.03-7.71,29.71-17.78c2.03-3.06,1.2-7.19-1.86-9.22
	c-3.06-2.03-7.19-1.2-9.22,1.86c-4.47,6.73-11.75,11.07-19.97,11.9c-8.44,0.86-16.72-2.07-22.71-8.03
	c-8.6-8.54-14.04-19.89-16.65-34.7c-1.9-10.76-1.57-21.57,0.97-32.12c1.15-4.8,2.19-9.66,3.19-14.36c0.46-2.18,0.93-4.35,1.4-6.51
	l0.35-1.06c1.12-3.5-0.8-7.24-4.3-8.37c-3.5-1.12-7.24,0.8-8.37,4.3l-0.22,0.66c-0.22,0.64-0.33,1.04-0.43,1.47
	c-0.49,2.25-0.97,4.49-1.45,6.74c-0.99,4.62-2,9.4-3.12,14.02c-2.97,12.34-3.36,24.97-1.14,37.54c3.1,17.6,9.77,31.28,20.38,41.82
	c7.82,7.77,18.27,12.04,29.19,12.04C59.26,249.06,60.68,248.99,62.1,248.85z M10.69,96.07c0.41,0.82,0.78,1.66,1.25,2.45
	c15.2,25.96,31.27,51.37,49.05,75.65c13.67,18.68,28.09,36.74,45.23,52.42c4.03,3.69,8.34,7.06,12.53,10.59
	c3-2.76,5.53-5.3,8.28-7.58c1.74-1.45,1.91-2.52,0.68-4.53c-9.09-14.89-19.36-28.93-30.33-42.47
	c-23.15-28.56-49.01-54.48-76.67-78.64c-3.17-2.77-6.36-5.51-9.55-8.26C11,95.83,10.85,95.95,10.69,96.07z M181.12,277.67
	c-0.74-2.6-1.56-5.18-2.26-7.8c-1.47-5.51-4.29-10.32-8.86-13.61c-4.75-3.41-9.97-6.18-15.11-9.02c-0.74-0.41-2.46,0.04-3.19,0.69
	c-5.06,4.5-10.02,9.11-14.89,13.82c-0.74,0.71-1.3,2.21-1.1,3.18c1.62,8.07,4.61,15.61,10.05,21.9
	c14.26,16.46,33.17,20.33,53.9,19.48C189.12,299.47,184.37,289.05,181.12,277.67z M147.61,228.46c-0.52-0.33-1.99,0.22-2.63,0.81
	c-8.34,7.62-16.56,15.37-24.92,22.97c-1.92,1.75-1.09,2.85,0.21,4.28c1.27,1.4,2.3,2.08,4.03,0.45
	c8.36-7.89,16.81-15.67,25.21-23.51c0.46-0.43,0.81-0.98,1.41-1.7C149.77,230.55,148.86,229.24,147.61,228.46z M141.61,112.75
	c5.64-5.44,8.79-12.75,8.89-20.59v0c0.19-15.86-12.5-28.96-28.3-29.19c-7.89-0.13-15.29,2.8-20.85,8.22
	c-5.47,5.33-8.52,12.5-8.6,20.18c-0.16,16.1,12.32,29.02,28.41,29.4c0.23,0.01,0.46,0.01,0.69,0.01
	C129.24,120.78,136.23,117.95,141.61,112.75z M122.01,76.27c8.62,0.13,15.29,7.04,15.19,15.73c-0.05,4.26-1.76,8.23-4.82,11.18
	c-2.97,2.87-6.83,4.38-10.89,4.3c-8.74-0.21-15.51-7.22-15.43-15.97c0.04-4.11,1.67-7.95,4.59-10.79c2.95-2.87,6.89-4.45,11.11-4.45
	C121.84,76.27,121.93,76.27,122.01,76.27z M234.44,127.7c5.59-5.47,8.71-12.73,8.78-20.44c0.07-7.68-2.88-14.95-8.3-20.47
	c-5.46-5.55-12.74-8.64-20.5-8.69c-0.07,0-0.14,0-0.21,0c-7.64,0-14.84,2.97-20.31,8.38c-5.52,5.47-8.57,12.74-8.59,20.48v0
	c-0.03,15.82,12.8,28.85,28.6,29.04c0.12,0,0.24,0,0.35,0C221.81,136.01,228.96,133.06,234.44,127.7z M198.63,106.99
	c0.01-4.17,1.66-8.1,4.65-11.06c2.98-2.95,6.96-4.52,11.06-4.53c4.2,0.03,8.15,1.71,11.11,4.72c2.93,2.98,4.52,6.89,4.48,11.02
	c-0.04,4.15-1.74,8.07-4.78,11.05c-3.02,2.96-7,4.53-11.05,4.52C205.69,122.6,198.61,115.41,198.63,106.99L198.63,106.99z
	 M256.86,217.07c5.52-5.49,8.56-12.77,8.56-20.49l0,0c0-7.74-3.02-15.01-8.5-20.49c-5.47-5.46-12.73-8.47-20.45-8.47
	c-0.01,0-0.03,0-0.04,0c-7.71,0.01-14.96,3.05-20.43,8.56c-5.48,5.52-8.47,12.81-8.43,20.54c0.09,15.81,13.01,28.72,28.81,28.79
	c0.04,0,0.09,0,0.13,0C244.16,225.52,251.38,222.52,256.86,217.07z M247.52,185.5c2.96,2.96,4.6,6.89,4.6,11.07
	c0,4.16-1.65,8.09-4.64,11.07c-2.97,2.95-6.86,4.57-10.97,4.57c-0.02,0-0.05,0-0.07,0c-8.53-0.04-15.52-7.02-15.56-15.57
	c-0.02-4.16,1.6-8.1,4.57-11.09c2.96-2.98,6.87-4.62,11.01-4.63c0.01,0,0.01,0,0.02,0C240.64,180.92,244.56,182.55,247.52,185.5z"/>
</svg>
