<?xml version="1.0" encoding="utf-8"?>
<!-- Generator: Adobe Illustrator 28.0.0, SVG Export Plug-In . SVG Version: 6.00 Build 0)  -->
<svg version="1.1" id="Layer_1" xmlns="http://www.w3.org/2000/svg" xmlns:xlink="http://www.w3.org/1999/xlink" x="0px" y="0px"
	 viewBox="0 0 321.68 321.68" style="enable-background:new 0 0 321.68 321.68;" xml:space="preserve">
<style type="text/css">
	.st0{fill:url(#SVGID_1_);}
</style>
<linearGradient id="SVGID_1_" gradientUnits="userSpaceOnUse" x1="-0.035" y1="160.7529" x2="321.6875" y2="160.7529">
	<stop  offset="0" style="stop-color:#E01480"/>
	<stop  offset="1" style="stop-color:#37BDEE"/>
</linearGradient>
<path class="st0" d="M160.44,0c46.61,0,93.23-0.01,139.84,0.01c13.28,0.01,21.39,8.05,21.39,21.25c0.01,92.88,0.01,185.76,0,278.63
	c0,13.41-8.16,21.6-21.54,21.6c-92.95,0.01-185.91,0.01-278.86,0c-13.2,0-21.3-8.13-21.31-21.34c-0.01-93.01-0.01-186.03,0-279.04
	c0-13.04,8.03-21.1,21.03-21.1C67.49-0.01,113.96,0,160.44,0z M92.44,176.67c16.71,1.44,32.47,0.56,47.92-4.36
	c44.73-14.26,46.9-63.71,30.19-86.69c-10.87-14.94-26.49-20.75-43.89-22.91c-18.91-2.35-37.87-1.08-56.79,0.22
	c-5.67,0.39-11.31,1.4-16.75,2.1c0,58.68,0,116.68,0,174.64c13.22,0,26.08,0,39.32,0C92.44,218.58,92.44,197.76,92.44,176.67z
	 M189.05,205.17c-2.09,8.5-3.88,16.66-6.17,24.68c-0.89,3.13-0.05,4.35,2.71,5.51c15.57,6.57,31.83,8.1,48.45,6.61
	c9.65-0.86,18.92-3.3,27.24-8.53c24-15.09,24.39-48.66,0.48-63.82c-5.84-3.7-12.6-5.94-18.94-8.85c-5.09-2.34-10.55-4.12-15.2-7.14
	c-6.22-4.04-5.27-12.48,1.49-15.58c2.66-1.22,5.8-1.82,8.74-1.92c10.06-0.32,19.42,2.67,28.83,7.1c2.38-9.26,4.68-18.2,7.02-27.3
	c-1.15-0.57-2.08-1.12-3.08-1.52c-13.97-5.5-28.5-7.05-43.29-5.3c-11.69,1.38-22.29,5.64-30.9,14.08
	c-13.79,13.51-17.75,40.21,3.6,54.81c7.03,4.81,15.29,7.82,23.05,11.56c4.31,2.08,8.94,3.56,13.03,5.99c4.68,2.78,6,8.58,3.41,12.95
	c-2.58,4.35-6.98,5.55-11.63,5.88C214.19,215.39,201.63,211.34,189.05,205.17z M92.54,143.46c0.01,0.83,1.18,2.26,1.96,2.37
	c10.62,1.52,21.17,1.41,31.06-3.33c8.87-4.26,13.73-11.6,14.61-21.38c0.88-9.75-1.33-18.56-10.11-24.08
	c-11.74-7.38-24.54-6.06-37.61-3.84C92.45,110.26,92.42,126.86,92.54,143.46z"/>
</svg>
