<?xml version="1.0" encoding="utf-8"?>
<!-- Generator: Adobe Illustrator 28.0.0, SVG Export Plug-In . SVG Version: 6.00 Build 0)  -->
<svg version="1.1" id="Layer_1" xmlns="http://www.w3.org/2000/svg" xmlns:xlink="http://www.w3.org/1999/xlink" x="0px" y="0px"
	 viewBox="0 0 321.68 321.68" style="enable-background:new 0 0 321.68 321.68;" xml:space="preserve">
<style type="text/css">
	.st0{fill:url(#SVGID_1_);}
</style>
<linearGradient id="SVGID_1_" gradientUnits="userSpaceOnUse" x1="-0.033" y1="160.7546" x2="321.6895" y2="160.7546">
	<stop  offset="0" style="stop-color:#E01480"/>
	<stop  offset="1" style="stop-color:#37BDEE"/>
</linearGradient>
<path class="st0" d="M138.42,68.16c-0.02,6.08-4.79,10.98-10.74,11.01c-6.15,0.03-11.26-4.9-11.32-10.92
	c-0.05-5.95,5.12-11.2,11.07-11.24C133.56,56.96,138.43,61.9,138.42,68.16z M321.67,21.26c0.02,92.88,0.02,185.75,0,278.63
	c0,13.41-8.16,21.6-21.53,21.6c-92.96,0.02-185.91,0.02-278.87,0c-13.2,0-21.3-8.13-21.3-21.34c-0.01-93.01-0.01-186.03,0-279.04
	C-0.03,8.07,8,0.01,21,0.01C67.48-0.01,113.96,0,160.44,0c46.61,0,93.23-0.01,139.84,0.01C313.56,0.01,321.67,8.06,321.67,21.26z
	 M91.15,192.4c0.2-20.95,15.79-36.44,36.78-36.52c15.86-0.06,31.72,0.04,47.57-0.03c7.01-0.04,14.04,0.04,21-0.57
	c13.13-1.16,24.45-13,24.65-26.17c0.31-19.63,0.3-39.27-0.16-58.89c-0.1-4.38-1.85-9.16-4.17-12.96
	c-6.97-11.42-18.46-15.21-30.99-16.5c-14.94-1.53-29.91-2.13-44.89-0.64c-9.75,0.96-19.47,2.21-28.46,6.54
	c-6.47,3.12-10.96,8.11-11.63,15.23c-0.9,9.61-0.85,19.31-1.22,29.46h60.8v8.84h-3.71c-25.24,0-50.48-0.04-75.73,0.03
	c-2.87,0.01-5.85,0.3-8.58,1.11c-12.38,3.67-19.9,12.74-25.42,23.76c-6.34,12.62-8.49,26.11-7.7,40.13
	c0.91,15.95,5.2,30.7,15.54,43.27c9.51,11.56,21.92,14.67,36.31,12.43C91.14,211.37,91.07,201.89,91.15,192.4z M270.95,119.63
	c-8.35-14.94-21.57-21.8-39.42-19.01c0,4.52,0.15,9.04-0.04,13.55c-0.3,7.4-0.05,14.95-1.42,22.17
	c-2.99,15.7-17.25,29.9-36.49,29.48c-20.7-0.46-41.41-0.12-62.12-0.08c-2.57,0.01-5.17,0.18-7.71,0.6
	c-14.24,2.4-24.15,13.8-23.88,27.7c0.34,17.46,0.25,34.94,0.02,52.4c-0.12,8.96,3.34,15.95,10.35,21.13
	c3.51,2.61,7.33,4.99,11.35,6.68c17.14,7.2,35.08,9.44,53.47,7.1c11.89-1.51,23.52-4.29,33.77-10.99
	c6.31-4.12,11.16-9.67,11.94-17.25c0.76-7.42,0.17-14.99,0.17-22.86h-60.03v-8.84h3.45c25.88-0.01,51.77-0.01,77.65-0.05
	c1.71,0,3.46-0.11,5.11-0.5c9.66-2.24,17.15-7.97,22.16-16.15C286.4,176.8,286.86,148.12,270.95,119.63z M182.42,252.06
	c-0.03-6.06,5.07-11.02,11.18-10.9c6.26,0.12,10.9,4.92,10.82,11.18c-0.08,5.84-4.98,10.91-10.57,10.92
	C187.64,263.27,182.44,258.18,182.42,252.06z"/>
</svg>
