<?xml version="1.0" encoding="utf-8"?>
<!-- Generator: Adobe Illustrator 28.0.0, SVG Export Plug-In . SVG Version: 6.00 Build 0)  -->
<svg version="1.1" id="Layer_1" xmlns="http://www.w3.org/2000/svg" xmlns:xlink="http://www.w3.org/1999/xlink" x="0px" y="0px"
	 viewBox="0 0 321.68 321.68" style="enable-background:new 0 0 321.68 321.68;" xml:space="preserve">
<style type="text/css">
	.st0{fill:url(#SVGID_1_);}
</style>
<linearGradient id="SVGID_1_" gradientUnits="userSpaceOnUse" x1="35.8511" y1="159.5747" x2="281.7191" y2="159.5747">
	<stop  offset="0" style="stop-color:#E01480"/>
	<stop  offset="1" style="stop-color:#37BDEE"/>
</linearGradient>
<path class="st0" d="M280.9,149.99c-5.49,32.85-23.43,56.26-54.68,67.81c-30.54,11.28-58.97,5.6-84.19-15.08
	c-2.63-2.15-4.15-1.94-6.62-0.01c-11.64,9.08-23.43,17.96-35.16,26.92c-14.28,10.91-28.53,21.88-42.86,32.73
	c-5.01,3.79-10.71,3.92-15.55,0.77c-4.68-3.06-7.29-8.68-5.36-14.1c1.14-3.21,3.54-6.45,6.25-8.55
	c25.29-19.62,50.73-39.04,76.23-58.38c2.79-2.12,3.54-3.56,1.83-7.01c-8.22-16.67-10.5-34.37-6.93-52.52
	c8.7-44.18,48.07-72.88,93.15-68.31c41.73,4.23,74.39,41.12,74.68,85.59C281.52,142.42,281.52,146.26,280.9,149.99z M266.37,138.08
	c-0.08-38.13-31.12-69.02-69.4-69.04c-38.35-0.02-69.35,31.09-69.32,69.57c0.03,38.38,31.09,69.27,69.64,69.25
	C235.57,207.83,266.45,176.64,266.37,138.08z M149.93,127.86c0.9-5.01,5.12-22.14,21.86-32.36c20.71-12.65,42.3-3.52,44.69-2.43
	c2.52,1.14,5.48,0.02,6.62-2.49c1.14-2.52,0.02-5.48-2.49-6.62c-2.89-1.31-28.93-12.32-54.03,3.01
	c-20.3,12.4-25.4,33.09-26.49,39.13c-0.49,2.72,1.32,5.32,4.04,5.8c0.3,0.05,0.59,0.08,0.89,0.08
	C147.39,131.98,149.5,130.28,149.93,127.86z"/>
</svg>
