<?xml version="1.0" encoding="utf-8"?>
<!-- Generator: Adobe Illustrator 28.0.0, SVG Export Plug-In . SVG Version: 6.00 Build 0)  -->
<svg version="1.1" id="Layer_1" xmlns="http://www.w3.org/2000/svg" xmlns:xlink="http://www.w3.org/1999/xlink" x="0px" y="0px"
	 viewBox="0 0 321.68 321.68" style="enable-background:new 0 0 321.68 321.68;" xml:space="preserve">
<style type="text/css">
	.st0{fill:url(#SVGID_1_);}
</style>
<linearGradient id="SVGID_1_" gradientUnits="userSpaceOnUse" x1="-0.033" y1="160.7546" x2="321.6895" y2="160.7546">
	<stop  offset="0" style="stop-color:#E01480"/>
	<stop  offset="1" style="stop-color:#37BDEE"/>
</linearGradient>
<path class="st0" d="M62.32,120.2c-3.14-0.04-5.73,2.51-5.62,5.54c0.11,2.94,2.58,5.23,5.62,5.2c3.04-0.03,5.44-2.4,5.44-5.37
	C67.76,122.63,65.34,120.23,62.32,120.2z M62.32,120.2c-3.14-0.04-5.73,2.51-5.62,5.54c0.11,2.94,2.58,5.23,5.62,5.2
	c3.04-0.03,5.44-2.4,5.44-5.37C67.76,122.63,65.34,120.23,62.32,120.2z M62.32,120.2c-3.14-0.04-5.73,2.51-5.62,5.54
	c0.11,2.94,2.58,5.23,5.62,5.2c3.04-0.03,5.44-2.4,5.44-5.37C67.76,122.63,65.34,120.23,62.32,120.2z M62.28,164.05
	c-3-0.02-5.7,2.76-5.57,5.72c0.13,2.87,2.77,5.33,5.66,5.26c2.88-0.08,5.43-2.67,5.4-5.51C67.74,166.66,65.15,164.07,62.28,164.05z
	 M62.45,208.07c-2.78-0.16-5.57,2.36-5.73,5.19c-0.17,2.96,2.48,5.8,5.47,5.83c2.83,0.03,5.49-2.53,5.58-5.38
	C67.85,210.89,65.36,208.25,62.45,208.07z M62.28,164.05c-3-0.02-5.7,2.76-5.57,5.72c0.13,2.87,2.77,5.33,5.66,5.26
	c2.88-0.08,5.43-2.67,5.4-5.51C67.74,166.66,65.15,164.07,62.28,164.05z M62.45,208.07c-2.78-0.16-5.57,2.36-5.73,5.19
	c-0.17,2.96,2.48,5.8,5.47,5.83c2.83,0.03,5.49-2.53,5.58-5.38C67.85,210.89,65.36,208.25,62.45,208.07z M62.32,120.2
	c-3.14-0.04-5.73,2.51-5.62,5.54c0.11,2.94,2.58,5.23,5.62,5.2c3.04-0.03,5.44-2.4,5.44-5.37C67.76,122.63,65.34,120.23,62.32,120.2
	z M62.32,120.2c-3.14-0.04-5.73,2.51-5.62,5.54c0.11,2.94,2.58,5.23,5.62,5.2c3.04-0.03,5.44-2.4,5.44-5.37
	C67.76,122.63,65.34,120.23,62.32,120.2z M62.28,164.05c-3-0.02-5.7,2.76-5.57,5.72c0.13,2.87,2.77,5.33,5.66,5.26
	c2.88-0.08,5.43-2.67,5.4-5.51C67.74,166.66,65.15,164.07,62.28,164.05z M62.45,208.07c-2.78-0.16-5.57,2.36-5.73,5.19
	c-0.17,2.96,2.48,5.8,5.47,5.83c2.83,0.03,5.49-2.53,5.58-5.38C67.85,210.89,65.36,208.25,62.45,208.07z M216.83,205.87
	c-1.75-7.8-7.32-12.73-14.53-13.01c-8.13-0.31-13.98,3.91-16.32,11.98c-1.47,5.05-1.53,10.19-0.15,15.29
	c2.22,8.27,7.54,12.51,15.53,12.47c7.75-0.05,13.25-4.41,15.31-12.39c0.62-2.42,0.8-4.96,1.17-7.38
	C217.5,210.42,217.33,208.11,216.83,205.87z M216.83,205.87c-1.75-7.8-7.32-12.73-14.53-13.01c-8.13-0.31-13.98,3.91-16.32,11.98
	c-1.47,5.05-1.53,10.19-0.15,15.29c2.22,8.27,7.54,12.51,15.53,12.47c7.75-0.05,13.25-4.41,15.31-12.39
	c0.62-2.42,0.8-4.96,1.17-7.38C217.5,210.42,217.33,208.11,216.83,205.87z M62.28,164.05c-3-0.02-5.7,2.76-5.57,5.72
	c0.13,2.87,2.77,5.33,5.66,5.26c2.88-0.08,5.43-2.67,5.4-5.51C67.74,166.66,65.15,164.07,62.28,164.05z M62.45,208.07
	c-2.78-0.16-5.57,2.36-5.73,5.19c-0.17,2.96,2.48,5.8,5.47,5.83c2.83,0.03,5.49-2.53,5.58-5.38
	C67.85,210.89,65.36,208.25,62.45,208.07z M62.32,120.2c-3.14-0.04-5.73,2.51-5.62,5.54c0.11,2.94,2.58,5.23,5.62,5.2
	c3.04-0.03,5.44-2.4,5.44-5.37C67.76,122.63,65.34,120.23,62.32,120.2z M300.28,0.01C253.67-0.01,207.05,0,160.44,0
	C113.96,0,67.48-0.01,21,0.01c-13,0-21.03,8.06-21.03,21.1c-0.01,93.01-0.01,186.03,0,279.04c0,13.21,8.1,21.34,21.3,21.34
	c92.96,0.02,185.91,0.02,278.87,0c13.37,0,21.53-8.19,21.53-21.6c0.02-92.88,0.02-185.75,0-278.63
	C321.67,8.06,313.56,0.01,300.28,0.01z M42.43,73.27c4.92-3.11,10.49-5.67,16.12-7.11c25.95-6.62,51.95-6.53,77.67,1.36
	c4.21,1.29,8.35,3.46,11.95,6.02c6.53,4.65,6.3,10.48-0.16,15.33c-7.52,5.62-15.73,7.48-20.28,8.17c-15.47,2.33-23.2,3.5-32.69,3.52
	c-0.31,0-17.5-0.03-43.05-6.63c-1.27-0.33-5.25-1.9-9.59-4.98C35.62,84.14,35.45,77.68,42.43,73.27z M37.39,101.89
	c38.73,15.01,76.92,15.19,115.41-0.1c0,7.8,0.26,16.1-0.12,24.36c-0.18,3.74-3.4,6.02-6.42,7.92c-6.51,4.09-13.79,6.17-21.25,7.57
	c-23.88,4.48-47.63,4.28-70.98-3.01c-4.32-1.35-8.37-3.78-12.26-6.18c-3.15-1.93-4.54-5.07-4.43-8.99
	C37.53,116.13,37.39,108.78,37.39,101.89z M114.61,218.45c-1.32,3.95-2.68,7.89-4.23,11.75c-0.32,0.78-1.47,1.67-2.29,1.73
	c-19.99,1.39-39.75,0.57-58.67-6.96c-2.43-0.97-4.72-2.37-6.89-3.83c-3.59-2.43-5.42-5.69-5.22-10.3c0.3-7.13,0.08-14.28,0.08-21.77
	c22.7,11.8,46.68,12.35,71.13,11.6c0.49,5.78,2.38,10.93,5.98,15.41C114.91,216.59,114.85,217.74,114.61,218.45z M111.59,186.15
	c-0.49,0.88-1.76,1.81-2.71,1.86c-19.07,1.17-38.01,0.71-56.25-5.82c-3.96-1.42-7.66-3.74-11.22-6.06
	c-2.88-1.88-4.17-4.82-4.08-8.49c0.19-7.42,0.06-14.85,0.06-21.81c38.66,15.12,76.96,15.16,115.2,0.07v25.09
	c-5.99,0-11.69-0.45-17.29,0.09C124.98,172.08,116.79,176.83,111.59,186.15z M162.32,229.64c-1,7.47-5.72,12.25-14.03,14.13
	c-8.67,1.96-17.23,1.4-25.65-1.4c-1.25-0.41-2.44-0.97-3.64-1.51c-0.38-0.18-0.68-0.52-1.21-0.94c1.24-3.51,2.48-6.99,3.43-9.68
	c6.1,0.98,11.87,2,17.66,2.78c1.47,0.19,3.06-0.26,4.55-0.6c2.55-0.57,4.41-1.98,4.79-4.76c0.36-2.69-0.75-4.87-3.04-6.09
	c-2.99-1.6-6.18-2.8-9.28-4.18c-3.1-1.38-6.42-2.41-9.25-4.21c-11.38-7.21-10.59-23.71,1.59-29.59c10.4-5.03,20.87-3.48,31.41,1.21
	c-1.33,3.66-2.58,7.11-3.78,10.41c-4.03-0.93-7.79-2.02-11.63-2.59c-2.23-0.33-4.72-0.24-6.83,0.47c-1.63,0.55-3.39,2.1-4.1,3.66
	c-0.95,2.12-0.05,4.42,2.07,5.71c1.86,1.13,3.88,2.02,5.89,2.89c3.82,1.65,7.81,2.95,11.51,4.84
	C160.57,214.15,163.54,220.47,162.32,229.64z M229.34,227.2c-3.1,7.75-8.62,13.1-16.59,15.83c-0.8,0.28-1.58,0.63-2.74,1.09
	c4.5,6.36,11.59,4.68,17.73,6.41c-0.75,2.78-1.36,5.53-2.3,8.17c-0.25,0.69-1.66,1.53-2.37,1.4c-5.58-1-11.23-1.84-16.62-3.51
	c-4.45-1.39-7.46-4.98-9.13-9.39c-0.68-1.77-1.46-2.71-3.53-3.16c-13.87-3.09-22.38-13.61-23.07-27.86
	c-0.42-8.79,0.85-17.04,6.32-24.28c7.28-9.61,20.83-13.6,33.93-9.88c11.44,3.25,19.33,13.05,20.6,25.12
	C232.29,214.03,231.93,220.75,229.34,227.2z M284.39,243.46h-40.73V182.4h13.57v49.37h27.16V243.46z M202.3,192.86
	c-8.13-0.31-13.98,3.91-16.32,11.98c-1.47,5.05-1.53,10.19-0.15,15.29c2.22,8.27,7.54,12.51,15.53,12.47
	c7.75-0.05,13.25-4.41,15.31-12.39c0.62-2.42,0.8-4.96,1.17-7.38c-0.34-2.41-0.51-4.72-1.01-6.96
	C215.08,198.07,209.51,193.14,202.3,192.86z M62.45,208.07c-2.78-0.16-5.57,2.36-5.73,5.19c-0.17,2.96,2.48,5.8,5.47,5.83
	c2.83,0.03,5.49-2.53,5.58-5.38C67.85,210.89,65.36,208.25,62.45,208.07z M62.28,164.05c-3-0.02-5.7,2.76-5.57,5.72
	c0.13,2.87,2.77,5.33,5.66,5.26c2.88-0.08,5.43-2.67,5.4-5.51C67.74,166.66,65.15,164.07,62.28,164.05z M62.32,130.94
	c3.04-0.03,5.44-2.4,5.44-5.37c0-2.94-2.42-5.34-5.44-5.37c-3.14-0.04-5.73,2.51-5.62,5.54C56.81,128.68,59.28,130.97,62.32,130.94z
	 M62.32,120.2c-3.14-0.04-5.73,2.51-5.62,5.54c0.11,2.94,2.58,5.23,5.62,5.2c3.04-0.03,5.44-2.4,5.44-5.37
	C67.76,122.63,65.34,120.23,62.32,120.2z M62.45,208.07c-2.78-0.16-5.57,2.36-5.73,5.19c-0.17,2.96,2.48,5.8,5.47,5.83
	c2.83,0.03,5.49-2.53,5.58-5.38C67.85,210.89,65.36,208.25,62.45,208.07z M62.28,164.05c-3-0.02-5.7,2.76-5.57,5.72
	c0.13,2.87,2.77,5.33,5.66,5.26c2.88-0.08,5.43-2.67,5.4-5.51C67.74,166.66,65.15,164.07,62.28,164.05z M62.45,208.07
	c-2.78-0.16-5.57,2.36-5.73,5.19c-0.17,2.96,2.48,5.8,5.47,5.83c2.83,0.03,5.49-2.53,5.58-5.38
	C67.85,210.89,65.36,208.25,62.45,208.07z M62.28,164.05c-3-0.02-5.7,2.76-5.57,5.72c0.13,2.87,2.77,5.33,5.66,5.26
	c2.88-0.08,5.43-2.67,5.4-5.51C67.74,166.66,65.15,164.07,62.28,164.05z M62.32,120.2c-3.14-0.04-5.73,2.51-5.62,5.54
	c0.11,2.94,2.58,5.23,5.62,5.2c3.04-0.03,5.44-2.4,5.44-5.37C67.76,122.63,65.34,120.23,62.32,120.2z M62.32,120.2
	c-3.14-0.04-5.73,2.51-5.62,5.54c0.11,2.94,2.58,5.23,5.62,5.2c3.04-0.03,5.44-2.4,5.44-5.37C67.76,122.63,65.34,120.23,62.32,120.2
	z M62.28,164.05c-3-0.02-5.7,2.76-5.57,5.72c0.13,2.87,2.77,5.33,5.66,5.26c2.88-0.08,5.43-2.67,5.4-5.51
	C67.74,166.66,65.15,164.07,62.28,164.05z M62.28,164.05c-3-0.02-5.7,2.76-5.57,5.72c0.13,2.87,2.77,5.33,5.66,5.26
	c2.88-0.08,5.43-2.67,5.4-5.51C67.74,166.66,65.15,164.07,62.28,164.05z M62.32,120.2c-3.14-0.04-5.73,2.51-5.62,5.54
	c0.11,2.94,2.58,5.23,5.62,5.2c3.04-0.03,5.44-2.4,5.44-5.37C67.76,122.63,65.34,120.23,62.32,120.2z"/>
</svg>
