<?xml version="1.0" encoding="utf-8"?>
<!-- Generator: Adobe Illustrator 28.0.0, SVG Export Plug-In . SVG Version: 6.00 Build 0)  -->
<svg version="1.1" id="Layer_1" xmlns="http://www.w3.org/2000/svg" xmlns:xlink="http://www.w3.org/1999/xlink" x="0px" y="0px"
	 viewBox="0 0 321.68 321.68" style="enable-background:new 0 0 321.68 321.68;" xml:space="preserve">
<style type="text/css">
	.st0{fill:url(#SVGID_1_);}
</style>
<linearGradient id="SVGID_1_" gradientUnits="userSpaceOnUse" x1="-0.033" y1="160.7546" x2="321.6895" y2="160.7546">
	<stop  offset="0" style="stop-color:#E01480"/>
	<stop  offset="1" style="stop-color:#37BDEE"/>
</linearGradient>
<path class="st0" d="M161.2,115.98c-3.15,15.46-6.21,30.47-9.29,45.49c-2.79,13.64-5.69,27.26-8.34,40.92
	c-0.48,2.48-1.32,3.35-3.83,3.22c-3.69-0.21-7.41-0.23-11.09,0.01c-2.54,0.16-3.44-0.79-3.9-3.19
	c-3.41-17.57-6.93-35.12-10.44-52.68c-0.31-1.59-0.76-3.16-1.37-5.64c-2,3.7-2.04,6.97-2.69,10.01c-3.31,15.7-6.57,31.42-9.58,47.19
	c-0.68,3.54-2.08,4.63-5.57,4.32c-4.37-0.39-9.72,1.24-12.91-0.76c-3.04-1.91-2.37-7.75-3.23-11.87
	c-5.05-24.34-9.9-48.73-14.97-73.07c-0.64-3.05-0.5-4.38,3.11-4.02c3.24,0.32,6.55,0.27,9.8,0.01c2.98-0.24,3.77,0.99,4.21,3.75
	c3.15,20.04,6.5,40.04,9.78,60.05c0.3,0.02,0.6,0.04,0.91,0.06c2.43-11.46,4.86-22.92,7.3-34.39c1.89-8.89,3.85-17.77,5.63-26.68
	c0.41-2.05,1.13-3.07,3.3-2.75c0.7,0.1,1.43-0.02,2.13,0.02c3.93,0.26,8.95-1.66,11.49,0.79c2.3,2.21,2.06,7.13,2.77,10.89
	c3.33,17.58,6.61,35.17,10.5,52.89c0.56-3.35,1.15-6.69,1.69-10.05c2.74-16.97,5.53-33.94,8.13-50.94c0.43-2.78,1.31-3.86,4.24-3.65
	C152.92,116.19,156.9,115.98,161.2,115.98z M184.57,116.45c21.05-0.14,42.11-0.07,63.17-0.07c9.55,0,9.44,0,9.47-9.69
	c0.01-2.95-0.76-3.91-3.8-3.87c-11.67,0.17-23.33,0.07-35,0.07h-29.03c-9.32,0-9.11,0.01-9.38,9.25
	C179.89,115.91,181.21,116.48,184.57,116.45z M252.7,128.34c-20.91,0.16-41.82,0.08-62.73,0.08c-10.03,0-9.92,0-9.93,9.95
	c0,2.75,0.69,3.61,3.52,3.57c11.52-0.16,23.05-0.06,34.57-0.06H248c9.2,0,9.03,0,9.23-9.05
	C257.31,129.25,256.23,128.31,252.7,128.34z M252.86,153.92c-21.01,0.13-42.02,0.07-63.03,0.07c-9.92,0-9.81,0-9.8,10.04
	c0.01,2.82,0.83,3.57,3.6,3.53c11.49-0.14,22.99-0.06,34.49-0.06h29.81c9.31,0,9.14,0,9.3-9.4
	C257.29,154.6,256.08,153.9,252.86,153.92z M253.12,179.53c-21.05,0.13-42.1,0.07-63.15,0.07c-10.05,0-9.9,0-9.95,9.91
	c-0.02,3.23,1.23,3.64,3.98,3.61c11.52-0.13,23.04-0.06,34.56-0.05h29.02c9.69,0,9.53-0.01,9.65-9.54
	C257.27,180.25,256.24,179.51,253.12,179.53z M252.88,205.03c-21.01,0.13-42.02,0.07-63.03,0.07c-9.94,0-9.83,0-9.81,10.01
	c0,2.77,0.76,3.59,3.56,3.55c11.5-0.15,22.99-0.06,34.49-0.06h29.81c9.34,0,9.18,0,9.33-9.36
	C257.28,205.79,256.13,205.01,252.88,205.03z M321.67,21.26c0.02,92.88,0.02,185.75,0,278.63c0,13.41-8.16,21.6-21.53,21.6
	c-92.96,0.02-185.91,0.02-278.87,0c-13.2,0-21.3-8.13-21.3-21.34c-0.01-93.01-0.01-186.03,0-279.04C-0.03,8.07,8,0.01,21,0.01
	C67.48-0.01,113.96,0,160.44,0c46.61,0,93.23-0.01,139.84,0.01C313.56,0.01,321.67,8.06,321.67,21.26z M275.85,219.04
	c-0.38-3.36-0.58-6.71-0.11-10.07c-0.46-3.87-0.54-7.74,0.05-11.6c-0.32-3.53-0.52-7.06-0.05-10.59c-0.42-4.06-0.6-8.11,0.1-12.16
	c-0.42-3.34-0.55-6.69-0.1-10.04c-0.48-3.98-0.48-7.96,0-11.94c-0.4-3.71-0.4-7.41,0-11.11c-0.42-4.05-0.61-8.1,0.1-12.14
	c-0.3-3.35-0.57-6.7-0.1-10.06c-0.46-3.87-0.54-7.74,0.05-11.61c-0.32-3.53-0.52-7.05-0.05-10.59c-0.48-4.55-0.5-9.1,0.02-13.65
	c-0.09-1.51-0.34-3.03-0.23-4.53c0.27-3.77-1.84-5.86-4.91-7.35c-21.4,0.07-42.81,0.14-64.22,0.21c-7.52,0.02-15.03,0.05-22.55-0.05
	c-1.19-0.02-2.92,0.97-3.57-1.1c-0.01-2.55-0.01-5.11-0.02-7.67V51.88c-1.04-1.85,1.48-4.76-1.78-5.94
	c-4.49,1.25-9.05,2.11-13.69,2.57c-2.76,0.99-5.62,1.49-8.54,1.68c-8.54,1.65-17.07,3.3-25.61,4.95c-3.66,0.86-7.29,1.86-11.08,1.95
	c-3.6,1.32-7.39,1.69-11.14,2.27c-3.64,0.93-7.29,1.8-11.06,1.98c-7.32,1.87-14.71,3.35-22.22,4.18c-2.93,1.33-6.09,1.55-9.23,1.83
	c-5.07,1.51-10.29,2.24-15.5,3.09c-2.52,0.46-5.19,0.79-4.5,4.48v167.37c0.9,3.23-2.13,8.47,4.5,8.76
	c3.75,0.53,7.49,1.04,11.09,2.28c0.84,0.1,1.68,0.19,2.52,0.29c3.74,0.64,7.53,1.01,11.13,2.28c3.77,0.22,7.43,1.06,11.07,1.98
	c3.74,0.61,7.53,0.97,11.13,2.26c7.51,0.91,14.89,2.43,22.22,4.24c4.69,0.35,9.25,1.33,13.77,2.58c2.32-0.12,4.5,0.63,6.71,1.15
	c5.4,1.06,10.8,2.12,16.2,3.18c2,0.36,3.99,0.72,5.99,1.07c5.45,0.82,10.89,1.69,16.19,3.2l0.02,0.01c0.54-0.05,1.07-0.09,1.61-0.14
	c0.07-3.65,0.13-7.3,0.2-10.95v-10.26c0.01-1.13,0.01-2.27,0.02-3.4c0.33-1.77,1.76-1.11,2.72-1.11c28.51-0.03,57.02-0.02,85.53,0
	c0.41,0,0.82,0.16,1.24,0.25c2.3-0.54,4-1.95,5.43-3.76c0.21-1.38,0.42-2.76,0.63-4.13c-0.36-3.63-0.56-7.26-0.09-10.9
	C275.33,227.12,275.13,223.07,275.85,219.04z"/>
</svg>
